<mxfile host="Electron" agent="Mozilla/5.0 (Windows NT 10.0; Win64; x64) AppleWebKit/537.36 (KHTML, like Gecko) draw.io/25.0.2 Chrome/128.0.6613.186 Electron/32.2.5 Safari/537.36" version="25.0.2">
  <diagram name="Page-1" id="h8833eGVB99uabGh7BGz">
    <mxGraphModel dx="866" dy="510" grid="1" gridSize="10" guides="1" tooltips="1" connect="1" arrows="1" fold="1" page="1" pageScale="1" pageWidth="1169" pageHeight="827" math="0" shadow="0">
      <root>
        <mxCell id="0" />
        <mxCell id="1" parent="0" />
        <mxCell id="Qo2WvoHysH8q_IWQYq50-1" value="" style="shape=image;verticalLabelPosition=bottom;labelBackgroundColor=default;verticalAlign=top;aspect=fixed;imageAspect=0;image=data:image/png,iVBORw0KGgoAAAANSUhEUgAAArAAAAEBCAYAAACAOpb7AAAAAXNSR0IArs4c6QAAAARnQU1BAACxjwv8YQUAAAAJcEhZcwAADsMAAA7DAcdvqGQAAP+lSURBVHhe7L0HgF1Xea79nTJnqjSjUbEkS5blTrEBG2Oa6cTUkOQm4abfPyQh+Un7cxNIx7k3JKRASLk3lfRACCRU00w3tsEGjAE3uUm21aUZjabPnPJ/z9rnnVmztc+ZMzNnZNnMay+ttdf62ip773evs8+Z3PDwcK1YLFo+n7dcLme1Wi2UyUnVatUqlUpoI9EWy5LUJlCWHrlk8BPLYQcgVy6XbWZmJuTIxz6A9GQLlEqlYH92dtYKhcJcm3TISWk/yKNHPTH19vZaR0dHaKeOMnaQAegAxUSSTSB/gvocjxvxAcpA7SSAD/Ropy0uA46Jc2pqak6WGNROrgRoJyGruLu7u0Pq6uoKx7KvOMk5JlbZjsc1BrY1joyXxkPyQP2bnp4OcciX2tBBn36BsbGxUCcZ2ZFv6ZPws27dOuvs7Jybr/HxcRsZGQlt6ivtiglfAH1iJybKrDvWEjn12JJP6QDq4pgkw3hih2PWEzawhd++vr658QbIMR7YoV1jKHsaEwG5OHb6Ojk5uWC9aK6oo88DAwNBjmMgG0B+AP6BjgG2Yhnl6Mdyacj+8lC36ya8p0n5tGP+fG6O9sUXj+nKxq81tOqj2Tw3xukfv6VgNcZ3NecM20u1L3nmb6WxLW8NnF4QY1acj3bsq7kuhPT6OB0+zwSk+5m74447AoGFREAIKANujtzMdHPkmJuvbqTc/HSzI28E5NFHTiRGdqlTmxI+SLqxSz5tC//ECqHjGMiGgCw6cTt1JJEHyAQ2ADd/xoCbP7alJ5/k6gPHJPVDiTZAWRCRUCz4Rk79okyfkUMmnQAx9fT0mD9wBBvUo4+uZOQbyL9ybNNfEoQKe/QXm5JRTNiTXY6JFxnJAcqaK9qRxQf1jJ36Jh35Vx81v+iz9sgnJiaCLEAv7g/QsdqwxdzRB0gbcYgskyCR9BESSQ7QQ5+k+CHOiotjQLv6AGijTlAMJMYT0KeOopP5+vxWKuVANru7e3xd9Xl8vqZcrhL8lEN/Y7vEH/vEBqhWEz8kEVji5FhxuHQoEwPjPzg4GMi7+gPwBeLY8ac5BomthMgqFsWnHEiuPYjnup12kzjV3zj+UzE/7s2xOgSsveM5329hqfabj1UWVnf8FH86rnaP21LQiu/0PDRClq2l9C2Wxd9SdNNY+tw/OiDORrGezj6sZKyXA/lL54sBOa2N5Y5PO2ysBOm+5h5++OEaNzluetzgIADc+EjcmGMipxw5JepI3OxUjoFDUnwzxJ9uwHG97AjYRwZyQVzo6EbLjRxww05DMaiz8kM9+hzLttoAtvAD8UEWYgX5icdA4BgbIggcy4dkyRWDgDz9AXHfiUvy2EWGMrFQFuk8ceLEXB8E6cT6Qlyn+CBz2GS3kmNsU0fSuALkFUsM6knUi6ziQ/LyR8I+MoC4qWMMGGv6BgGNY6YNO4LiTyfq1YY8JBboGOCDGEmSYU6JBzmtJdqJgx1cxU0c2EePhDxQTpvA+CFfqdDf+YezoO/HMzOsqVnr7OpMHhLxm0v6TIzoasc2RuK/mNj142qtGnaKRbglk8Qy/3CHPWz39/eH9asxpZ1EGzl1gnS1DtUH1cepncD+aiJtv3H882PRHKcSMFwsd1hWs/8rsb30eV7++GVhtdfFcrCcmNBpZSw5J5eLdo0VcbYa75kCxZqOWX1JYzX61q7xbwX4iudIx83QqH0pYyGfWbZWY0wbIe0/t3///ho3RW7uo6Oj4UbOzVQBQ2hog9xwU9NNL+4QJ59uigAZkRYguayOoscNVkAXWd1AYx0REnIgu0B5DGyL7Cl2yamsY+RI9F2EgrHAH32HpEDqGSt0gfRlCz1s6GIkOfI4VsoaM8mqr0qqox1Sza4bx/IZ68VltQPlABnaiWX9+vWBrIk8kSNLG32E5NFf+hLHjiw5ttRP5plyGsjFOhoLbCkOgA0IGXKUyUXOBORpk02BesAaJWaRYRJtIuOySz8pq4/MpWxIj8RYM/+SR0Y2JQ9Uxp7iTghsPJfJMe3Mo5vx8V8Xxlcy+KANffVdY5rLOaGsf8RODIViwSYmxubOAZdwmaQUx0iiDxBmEse0x+MoOfnSHFCneVcSVI7bWwH+lgPFmYXl2swC47wUhLg0L9GuMTUc5fwBZTE0iz/d71i22Zi3d0zwk5ynC5FFtrLkloekD1k+PJ6aJ8JaSjfDXGQp1O01QJhXYmlhLtPQ/Gk+4jnjHGsn2jXni62rZu2PJogrHRvHWeOyGn1o1/i3AvnK8tkojkb1jcYCebU10o2xGmPaCOl4cgcPHqxB0Aji5MmTc6QFcFOF6NCGIjdqyCwJ4qLAyUm6OXITliNsKUlebXEw8qGTW23UE5PaATIiDPIJ8CEbyqUX+5dNtQP6hhx9lizHIj4iNNQxXpDAmMwC2SNXfPjRmKJLe6wjefUFqF266KmNnFhI+Ij9IQeoE6gXaGfeNmzYEF5FwIb6ihxl4qBMgmRpF5pyHIPi0G4mupTJFYeAfeqwLVCnJH18IqPEeJPLn+wqjtgnc5IQxPkxIDF+KgPsQXTVX71eQBlANkn4mJycCmQWHT7yx3bO5QqeIKY+ouG22NXZ5bGyU47N+fOHXH4Vi9YRuqwh1h1tWKq4/vR0Ehu7rsThq2DOBjqlUqcT/tFgB9CWtBOJxt3r6IfHWK36uvCajYODgdDTB15JQDYZx6SvtOGP4cMe/ms1H3dPBe8TkK9g0wWT9R/H1xj1aVkWNKcg9hXXN0Ij3VMxP1cx0F9Q7+ZiwtoIMYFN21gs7sVizrKn41NtU5/lLzmHmoP5nr9WNUercsSyWP/Dv6G8EI36snqoca6cOgWLgnk4dS7aj3b7yFpvIF5jWWjWBlZzLPC9mH+hVbml4HTMs4CvRv6y6pvF1mgsltOfZuMqeysd+6y4ckePHg0ENn6vToLKucGJXHDz5RhCo51b3YTjAGNd2aSdm7pu7HE9kI4IALr4BLIv/RjIkbipqwyQJ24gP7JBjpyO6QN9E7GhXlCZNsgPST7Qg+SRx7Gho9jjfpIgMoCy+ixINu4DEJGNdTQn6rf6Sln6sqcy8wZpGxoaCv2VfXIlgKzmG98QRdYJCRu044M1QM6x/GscNI60kTQ2klWMsW9kZBsZ/Iv0SYdcccoP6xA5+ZM9ILsk6ZPLNvXMITboj0c4J4st5Dg/IMjoAsYEGYDOPIGtv//rQ85uqWIAigO71WpC0rV7TK64iIk2jmu1+X6gyzrjkxL1dR7zD2PqfyCkfjzlRJz5471Y+ohtyeEPWXJk6FdsF5kKhDWQ3uRYeqXOUiC3aZ0suMqygK9WgWw6jrR64zibx98M+EibFYFtNf6l9DML6tcpdmq+FnPJebYQrflrfWe61fGb97vSPq8EWWsFqD7E1jA8b1iku5wfq4V2jlvj86ExsnQWs6OY2xm7gO+l9mM5/W6E1ehTGs3Gr5n/Zm3xGJyOPoCVjHtWjOFXCLgx6uNXOdCNmhORerWpzE2Qmzrt3HwhNtrNEtkSVEZWN2ls4VdJ9oHKyrmx6oauuEQgyGOgA+HAh3JsJGQgsaekNmxAyhgDbALqhbhOdgCEBiIhwgE50I6l+oQPgC4y0o1v+rEvEB+jT0KXevU5jgmbtNNfcvnReFFGjjLxUeYLRLIpyKYQt8k+CcKGHXYQmXviwbb6TBnIr3ZJY2hcALYBsvKJvOwhq3FWDBoX5ImB+dMOLHrUyyfxcLygLVffbXZyRh22T54cDV8GY4camyDE4OSt7DaS+U4+6te4+v8um7ynSjx5PvJ3nbz7IOd9V/kGoRzsJq8+nDgxHOzhl3WjcaGPvDdbKfs5IwLpuiXXmQ7v1CY7sAK7pd6cxFv3RUYdseID34MbN/o5yhf35s9x5DVGgcR60syT0w/iQm6WvnvCXsnJNHNPH+P1nAXFJBBvDO30JaOTxO7/hnIzZMuxjmjzegic4HXNYlwp8Cf7ENh0n9OgeS7OFQK/mXYaEtjWxiGZl1ZkW+3DvK1afa03RTJAOqjny8F8fPPjVLdH1jT8rMb52ONWmUp8NDWaQlbf5vXVOm+7PWh0PsTrKb22dF1dKrDRzthjLCemRn1fKlarT8Ji47bctrj/y+0Deksdx+WOe1aMOScyNXZ01BgvVnLd+BQoN9aYsKiOGyoy3JS5CWpnMtzg/Fg3ZuQp6xiojBw2shYjeoB2kggEwAcpvnnLJnIx4aE/ilu+8MuxbuIC5VhOtsljOexCbvADqaeNvqMDoRfJQ4422VJM8qMk6Fh+Jc+x6mKiJVn6wXzQV+TJlSBJtEHWgXRiv0A+FIPayemndl4pi7gz5/QTKD7FqzwQJJeJ/UlWOUAexH5Jmk+NN8fYwy7HgLFQLpvSL5eTXeews+lNgfjl/SHG9cf8PKh4O68LdHd1W7+TSogx8oAbbtXt4YcxJLkVWur9w1EyD/yH/0KBGIgFubod/48QGS/mYcb7MuWJuYTIljpKIW76VnZirLnELm2sMfU1ARa9H9hPXFCV9MvHRuOEzbKnQJbX9SViIWgeIiCzoQMeh89R6EdomkPFZYkBW3rY09jPzWscQwwn4THiuRZQ86vDXKkVBDsZtkLwjeozoDleDrJiSPh44340jLsRWnwPE7sL+uLr/FSw/pN8MbCGhGStZ8GNpV6ZaAQ/K8K/IP0Qk4m5eUSnkf9WgI0kLsxxxvhZGY5jZHs4Nc7kfJsHfQ5R1sc+GYMW+jeHU2PBCxH5jLq95JqiyEntgOIl17xRXrCGHLoe69q6HIQx8hT7agey4m0Fy9HJQjv7EkN2m9lvxXe745M9zeNSxnElY57Vj9zJkydrfIkmHLhxBSVhFi513LRAbETysZ52ZSE4kAxuyiI31ElWduUL+9RxEwTKhdiHoDJ63OCBCB1tyHPCSQ85bubIciyCo91X2tMnKHHEsgI2AXWqRwbb9JUdTr7lT7/oN8QRP5QVE6CdMjl2KJOQUSyx3xjqh2wBkXHFRRLhYj40L/iTTwF/jAGQbmxbZXL6g76+gEXCN3NNUj9J8oFt2cdGIDyRfaBj5NBTjOoXwCb19J9+yT9J7THQU1/46J5dJRI3hUpl2slaR7g1lGeGraN62IpVdkXZ4eQ9zw7rX79+4Xp03WqdFM7MJg9ush/6xA2HWwzddsPU8x//B3X/L6yTsGs8Fd59BXr4CTvb7jf0I+cPPm57YnzcfSU/08WOLL7nxtITN1RiSJA4Dn49iXgDbJadoPd0+0OHzyG6yAR7kPlQk5xH1Ps/4ThGtT7WwT/99v+wq5SlMzcYISfzvF5cCMnNo5pl7ozHqf1YGTIHqwU0j4HWFrnxowY/TVvqfbO+tLqG8m0dixaNcY46gUU6nHJJT7zfnX7691q5sMGmcwNujle3kofmcL7Xz/mlfgExC+Fcr0PXjdWErl2riXAtWgSt9hO5+evrQjSqXyqw08yW2prFItDeilwWpCvENhrVZyGWjdGovhka+QrvwIpoSoiJZ4Fxk8KZyIQQLz7aaUMHeSDCeuzYsbndIwCBg/jgC4IDKZFdcnUsvjlTj1y8GOMBiMvIKm58oiPdLDn6LTKHnMaAFENxYodcfZbNWAcCg7x2qLANgSRp15Mdy/jj93g8Kcd9xwd24j6oXnHQRn8pk1MvAkIiBtrUTp/xwTG5YkQWxPE0Au9TQl6xhR36rNixBVgH/JQT/UVG8ZIrXuTRpY5+xKCOduQkS12c1Hb8+PG5ujRUh5yavegL3fV9yXYXRqx79l4rH/+S5afu9+oTLgChq78Wgd94SbgNXhEIxur+k/rkWOW6q/l2RxJDvcXzcOxFzS/HSsGebk5ehjiCEBPtdVAmVhBU6p6DPf8vPob8FgvF5LUE/FTr6zpIzMeWjLWvu/pxDMmCXP3dWPTCx82niq8Y8z1dw2pgFaas7Wh1DTTqy0r1VxPJ+cu5miCcg5zf/O8ENt+1y3o2X2XW9zSbKOxw2trpTX7+esqFV2Ra7d1C6FyPkZzHqz8KXF9WG+n7SSO00l9k4muukFW3XITrcZt8rCSuZrrxWC3mo9VxbQWNfOUOHDhQwwiTTYLMACmIQAiUtfg0qSSIGLrU8bM9EBvIq9plR8QFXxAc7UqiLzJHO3ZUll0tSOQoSw4oJkA9oE420AHooSM9EU3k8EMe+5Jv+ZJf7MmP2gBkDBn6L5+0kbQTShJhpP+8ZgDhV2wCdtUHARnZFaSjeDTG1JNLh3rFLdvEQT39JHFMvWQEytiTLwgsO8xxbMioD7JHO2PCHNNHyCwxIEeSTAz0ZUfHQHGlfRK/doKB9ElZIB7e43Tab8WZQ1aYvNHyJ79sPdWHrVgbdQPTLuU+5qeiMaIxykQ99iCnMmikh8yCNu8D/UjLx3aDbVJUlxQCQY0/Bk6gY+Tq/tIioSldmQLNchWjbnYhshysYQ1rSMD5EZ8jfn7wikWtaOVan83kNlvHwFMsv/UVVu18os3WeqxSf2hdCnQtbYT0NXe1wHWbtJpodP3PwlL6uxpxy2Yj20vxuZL42tm3Vsa01XFvFFdufHy8JhJDwqCMcoyiiAMLglwJUEc7OQQCcsAuKz/JhT7AnogTuciNPv6lDiIHudHuLDrIp3PkZQeIDMWkRmV0pAeIB33q0CGnDmKFjBL6jAkJOUBOm2wKKpPTTvxAYyk92ZU9+WAM+KkyjYF2r0WEFa9sYFd20NGuMUjnAvLoUS+72FR8+KCdeLSjShk92uK4AT6Zq5g0AtlEHmAHPXLZRJ4+8pBDP7FFPyRDUqzqo2ykbapfxEwC8g00buTh2BM7HegXnaCWasNWHL7OimOftu7cAW+dcQf009PcF1/qY7lwSJeGeuwLUI9pUbCrmUasG0zzj8ebtpnlt93IctFK35YSW4tDtYZl4jQskxWj1TXQqC8r1V9tZJ3nC94RzlnFum2i5xm27rzX2XRtt5VzPX7Wc/3N7pyue7p26rgRdL3k+rjawI/iWgp0PY91G/VrOf1YzPZyYl4M2FzMbqt+2xFfu/rYaF5itCIDGsWUcxISdmABQhAAEQ3IAW0kERnKMhbnLBZkICZAXwyTvmQpI6s6bKIX+4PAQpDIRXAkH+uRZBebyJFUjyxJcQPq1Rf5g9ShJ8gHCZmYzCEru4KOScQr+2pTLIByDPmByELCNPaQO3ZmSTGhj/V1LN9KjUBMJHTwIXIoPdmjz7QTCwloDABEm35CvDWGAFuyAcjjuVY9x9IjBvoIqVU/JS9/yCKnes2B+gKIV3OlMQRqB+FyVnDqWqk6YZ20jomvWffQXziRHfIGfLlNvyEkH5tLj7xenjdVxykVrSP4SCGKNSDIKEWgvi5L/xJTWbFk1aVsBbTajyxdh9TVTGxxX+b6MZ8tCcvRWUPraHX6H020ugYa9WWl+qsKgssKUASWoPz66VewmVrOZtZ9j60754dtMrfbKv6gHV/jBK6PiyGWUTm5niyuu1LgJyvuxdBIRzGTS4Z7z2MBus81QivjtJyxzEK77KSxWmsq50Qz/IyWyAcgxyGEAGJFHpMFcuqQoZ4cfUgX5AbySntsU/qSVRuJsjoY+wQxkaMMZEdlEBMW7AHlyCpJl3jwk0V4FZ90gQiS4lPMIr7SgVwhg03Vyza5yoAyQBY5chIETDuK2MO3XreAOKIvHWxQlm0gsqcEJCddyXOsMvZiogji+VBZDxV8UQ3IjspZUKxA9plT6vmjChzTR+r0mkEsn+4j40IZfSD/jBXjR6yMYaznq9ZvE07a/aLfXb7POg7/k62rftO1+MKWjz03ibzPv7tIrAl+FPwmvueRVddGhD4pLYasONLxNbLVSj8a6C6m1g600v01LB+nYw5XilbXQKO+rFR/VeHB1a9fC0EwSUBJiWuT35fz262480dtcv0rbNa6Fryfr+tgI+jaS56W1bV1MRvtgK7Jy0GWnmJWrj6C09Gf5UAxco/KwlLGZ7ljmUa77KSxWnOQGxkZqXHThzBABnAUO6OeAVbim9J0UoOOLmV0RDz0N/aFeFCkK0KjJP8xIRFhgrjRjm8IDseqkz56xIIe9ilTDyA7yMZABvu0xbGoPwBbJHTJZQ8gFxMlxYOcEJeBbKhe9siJIY6bnB1J8hMnTszVa3ea1zQoS1e2gGTlj/Y4FvmiTXrk6TGJ9aRDX4kHeeQA4yA7IN0/dCnrmHZiZLcem8yr7PNOMjHQP9ohtRpX2knYQV9+GAdAPe3US4akeaJcrdSsMzdqhdEbbf3Jf7GSaffV43Nz/m+41/nMY3Ie9dgXIquuzcj6aLFlZF0Ys+xlX0BPRYbuaRiC9FSsoY04HfPXDrSyBpr1pdU19KiNR8a5lfr9XkLLcZGyDpseuMZK577ORis7vG7+ftUMtOva2Ei2WVs7gR/ScpCllxWz+nsmI2scWhmX5Y5dI2TZi+vS45iWX2ycV2sewjuwGCegcIOvEwARPpEYyZAjgyxkhjr9BBXkkmMIg4hGGtTLBzmQbREVHQPq+Ca7/voQPmmnnh1Z7dCKTAF0pZ+Og/6QiBEbIlfYBLEugPjEMWkHlCTbIkfkHMsHCR+0gdiH7JFiaHyoh7zRX8aXY2LGFjm26bMILeNAbALysqOEDn6JSXVZiPVAWgf/+CYW9Zu5oU11gvoMsAvUd+aVvklXYyab5MhqZ1bzjKxsEQuygHbiFJAjgSTGaZuZnrXO6kHLHbvONky+x1vqseZcNhTiMSF2ks9XwzvbfP9WA3g+FVl1WfFl1bWqm4VTdRv9bFE7UVvdIf62Rhja0zCHK4IH2fIKbSDY6ho6Hes5C7XMB9WFBDaZK/6t2njpcuu98PU2WriSC6tfJ2lsDq6tZwria/NS0UgvvtfEoL5RW7uRjk1+uV+lY8jqR6tjstyxa4TFYiH2VnwuNs7tnofwhwwUnHIGG/IQkzyIg8iBZBQMshARvrhFHYRKpIJccuiRYoITAznsimgBdjYhMPzpUxEc2hQffiFxxCaiExO5GIqbmMjREyESJKOTnVzt+FTsxIA+udqRJSaRKuwQlxJAP9YBKsu3jtmF5D1TPSjQJnCMD7XRD/qvv6+PP9rVD/xKh5wY9CoAxyRAPQkoFvVFeqR4PQD1mfmQL+piW9Rr/mgXgSVRp1gFjSd66ot2ZjX22OXLZKwPkVzaiU3t5CTI6syMH4/fbbMPv9sGpt9vtfC3/PFL/0keW/0/jyAcU0NK2gXsKa0e0l4TpP1mS602Vr/3CRbextfQTpyuOVwJlrK6F15B5tHqGmqkv9pIrjCNz+n5eeLfqk3kL7Kei53AFl/kpHtelmsk11Zd92Kkr6+PJohRiMutoBX5dN/n7wHtBeO8GPBLzPLfLP5W+rbU8WoFWTaz6tSXdDmNRmPdqH65WEBgAbmcqI5JoqxjyEv6ZEBGJ43IDMRD9bENHQP54lgnX9xJCBltfMwsICfyRJl2fLKTB2iDRENy9N4sNiVLEiFSTOjIpvyT06YykLz6Jl3GBMSx0yZf5OjQjrxiEeQHGZUhpBBY6oDskVOneuqwxxhQxgdEDn291kF7LK++KYa4/0AxkKtP6ONDwCb9pl0Jec095Jo5oYwfEu0kdCGwPPTIF5Av6hQnskDxEwOxMrfYQI4deoA/5Jl7/dYux/KRy5esq3y/nbjnr53AfogKaj3R7qnm5bltGOqjthjhUO2riEzzWZWp+AKoW+X4TgNaJR+rj8fHeMagN49+j7LW7nxUtGZJpNGsL62uoUeP4mVFnu61y3D99GyicJ71Xvw6Gy28wi9X9C65TusaTIqvpWo7U6DrMYjLrWAx+ax+6h7Sbuj+uRg0L83QyjgsdayaYTnxtNIP0GittXsNhi9xiXwBBYcjTU4cNHUiJCwKEiSBYwUnwkAdZEakB0IDRDSB5AB68kUiLnbTICf4lH0RMo5J8keOP+yTsIusPmJnN1cytEFyOAbUYUM+ALo6VptiI6ldfdQxNhVTrIOckvxKTqBMbPSdcYXAYoPEGNCuHDny2AegHhmNmchsvDstv8gqAflSfJRjsFtKG32VPsfSI275VTtjQ2L+dUwbf9KU96WB9KknB9JXm+oVK3aYW3xKjhz/zD/jTJ/ZtSUnZqsT2JG7/9r6pz/ijoMph+aAivn5mBeI64Q55TMQxEsiRsWZjjern0JWfx8ttDLOincpsjGy9GKblFl3lFvxkYVmPmIslEPCz+7kIGrzs2XZkWSj1fjaiaR3p2L+YXoeqx3LYwA+BDWfpsni+dZz8U/YWOHlTrqT6yHXS8B1kLKOBV3TzwTEsaXjXAxZ8ro3ZCG+d7QLugdlgXFOt2tOstBq/5c6To2wXDuN9JYytu2eh9zw8HD4EhckQB/LgphkpQdf9SJJgHYROGwJTCT15CR9ZIweOtiCiMiH5KhnBw1b+sF8ZLAl/yCOMZ3og0gTOboisnOEJqUL0ENHfUYu7hP1yGbl6NE39YExBYpfPpAlJpE5PQRQBugxTtQB1cc5cZJrDoD84Jsc++xSkvNtf/rPQwHEj3FQ3Eroyyegnb5rnImZWJGlLtYDlOWfcYvtA4glpJyP/WUTOdrVD3SkF0N15AJ9oW8k+ZMc46O5IO/hFYv+Tba+8LCNOoFdN+MENuXj8QPGSPM4P17zaFbHmJxJ40JcWfEKcbytxp22l/YR21R9q7YboZmPGKfK+ZWhXlabn3+ZustFM1txLFlotR9ZkG6sjw7X5li3kY9vM/gQ1HxYJjsgsD9p4xkEFnDNS18rdb09E0B8uk4vFVk6cT/T0D2hXcB/s7gZ5/ge2goa2VvO+MRYqT5YzMZSxrad8wDCl7gIkBSTEEgLOQ5FVORcuQgH7ZSRAZIVQZQ+UI68EqRIOhAR4kCXnTPtpkJGYoISJ4Gy7AD5pS/YxQagnTI5RFakFlnpq0wiHhL2aCOXHeXIqaycvuFHNhW/jhUftpGLc2IS+UaPHFnJA+yrrDZSGhs3bgykEUKsePANEaX/JJFZgE3FKfuAOvTR0xgA+aQujhOQx+RfPpgP5lXkU3qAfklOdUB1gHqOYwIbQ2Ot+GfLs1bxcrmct4H8Pusc/oANlD82Z+fxCY1ds/7FbSqjNz/ujz6IK45zNeI7k3ycKudneij5FS/kZO39u/0rQbNA4n5koZEu15eFY9Dcz7cJfAhqPiyLEdh0mWvcmXSdI6Y4xqUg1mvUp3R9O/ouv8uNW0jH38zeUn2tNLY0WrW3nPFtx5zM/QoBiIOFqEAkICVKIlIg1lE5Doj62IYIBYhzEja1KxuTWT72pp66WAdbAD3VN4oD6Jg4tCPKu5fYJUbVQ5ghctinDj3ZJSeJaJFLjgSoB/LHMW2Sx5dkIHUaE+rISSJz2n1VHKqXX3QYL3LZ1DGQPeS3bNlix48fD22xTeKBRAJIKf1nzImNhAyQD3SR1/gjo74jK9+CfBFX7De2q2ORa2SVo0ObcukI1EFgmce47wL+5JN2CKzlSlaausuKx/7TNlU/6UKJ3ccfGAseMJkX1iDjwasW1HjKcx6T1P9QmxQDkvN8adD4t3tM07GBhXM91x6qm/gP7zdn9S3xwRoi5cMaJ7l8+JOdJHSzYmkVaV3shYBTWChXrXpMc99S5+HOj70PfvXx4+XGAuRbNtxeLWUvl2xSLI6sOLL6loUs3XRdo7H6NoMPAVO0GIEVqNO1czG0KtcIWf4bgWv6UiDb8X2gWby6L7UL+FtK/0A6ZrBcG61gqbYXw1LsLWftrHS9gdzQ0FAN8oIxGVQZIsFCYLHRGS06ERfqkFOehtoAtkjUpYkfoB778sGXtiBt8g8kA8jlU36QxYcIFseBuHiiTNwQVAgPREz1kkOXXHJ6d5b2dB85JhGHyviVb0E6klOsAF+qwydl5PAHsKVxYywkz7FskCvJRwzsbtiwwY4cORKOFQ95HDvAvkDfReixAWgnjvi1COkiI9sx1JfYV+xHawEoJvVXiTrpxPFji9cjeB0BIKd6bEqWY9VDYLvL95od/g/bWP1EaH+8IMyE+spRjtdT/NzO9/r48T417yHzekrROko1K3UwTk6IIEUhuQ5G5qYxdZOpt1Wsw4vJGgA+a55mnRvOuG+EmM+Fa4Ghr+XQI7Ge5MhjQDck6lI+AyJbkHGnbhXr9YP560eCLN0EiTcfG/NrWm7S8/lzL2n3h0KPK+cxlt3MxIQ/SFd7Qgvj1NmFFDHyxzDqYxVasbmwrzGQwm7V+DJpHG/FPSb9TqQELCexkCoey/QM5wMBVP1Bkz8AwjXLY6j6eAdyHfU76ejiCC5dz2UVX63GnCbK9DFvzCffW1gY3zyY+YIn1/N1JlA7r9sCatjo9MS6kH3NVTLmqvu2hw9BzYeoVQLbCnQOtAOtxoDccuNtBbpng3b1j/vLUhD3b+46s4Q+r5asgE56bJZjR1jqOLdjXnJ79uwJf4lLH6VDTiAV6ghOSEwe9TGRol5khmPaqaOcHgi1o0uCpOCXJD3JSVfERfIC9ciQo0+79EFcBlp4xEof2X2VjhJ2pIcvSC591cfsMZkF0otjIaXtkdKgLu4nUP/Qkw/ZkH1iJibJioSrL7FNjtFR3PoinNoA7QAd1ckGPmhnbkRktTbIpUOu2ADtgNglI9uAOoCOEkj3GzkScZDoq2ICaueLYPxhBenIBojjIwf5Qpf11h5wAvseG5z5qFcQ26lz9FgDFLLm5JHfPs8X/EGu5mS1vN727C/ajV8dsm/cNWpHhs3GJ50ElXK2zrnZWRs67fInn23PfFLOzt9etg4ndj6yScraefNhqjjR+MDnR+1DN0y4n95ALtYXh+yNP/V0O6t3n48/8x0TEeBzZdN2bHKH/cFffc2OT213GR7C/NpRHbX//rKt9qLLC1bMTQV7pwJbxOO0qtxlt90zZn/x/qOWK270uSVe1gTznsxxGgkh9Icsj+GyC7rtZ79vo9NofrWCwXK98qyNV9bbXXvNbrhtxL5y1wkbHq3ZzGzeujq6bH131bZuztlTL9tmV17abbs3TlqXMVa+7vN+Hat5nxf0lxa/prnXXKHbPnvrMfu3TzqZ8/7WfE36arTO3GG79vVPs63rR+pj7RGyFss1m7KN9o37cnbD10bstj0jNjQ2azPTHosPV19n1XZu67OnXbbdrrqwYOdtnXYSezKxEZ1nraDm5NfPDpuobrC3/9Mdtu/wJh9liPO0XXpeh/3c92x38j7s/WBOsM0Y18eZAc33eXxl+8v3PeJ6fVZxEULoseP2Gz9xhW3beKyuuwicwP7dB47Yl+9kPAfCuNVqXbZrw2H7xR+/zPpL+13I/S6te49PMPQ+Du0gsPF1uV1oNQZdx9uN9P1mpYj7s5TxXepcIK/7VSuQvMrtwkpsLWfcVzpXuYceeqimj9JDhRuErIjQQuA0WKS4zCJEjzrKyIqMUqfBiEmF6mQHPcgPOcciQPKhMpC/9EfG5LKDr1gee2pjtw6wY8exfJCwIRIU1wHIEx9xY4sx4ctljJH6haxydNQf6SOHruzTBqRHHe1qo4+KHR35AdKhHTKrVy+A9JChjjQ4OBjqIO3kQHHGZfK4XjlQf7QzzdrgVQPFDNAV4ji0Mxu3xz4kR46fuL/Sp43EPIjAk2gnFsg5sSCTHi/5Cm348Rt0d+V+yx997+OGwNLDhDD5+DmJrVQKNjK7wd72r/vsg5/cb1NVP4fz65xg+AMInK2YfFKRq0JXJm1975R91wt3209+3yW2qXu/FfJTdasLEear8wL78Td93G65b5OVK3wS4w+0U0ft7b9+lX3H0yeso+DE1gmJz3hdC7iex/bQiXPsf/zyZ+2R0a2htcxv8M4ctd/+6SfYD7zEHy5zTsQawuMJ66Xbrv/SMft//+SA92mT12OJWJnz7JtiQmBzTtCn7UXP2Gx//ktbraPmxCw3a9Vchx0a6bbfe+c99vkvj9iUE6eyEzO/ElnNxyfvZDxQzoqPSW3SNq2v2I9996VOus92YvWwt026Z3yn1lCNYz8vixvs3z663/73O4/brJPkqhN3Xt9Y33HC/vPPXmTnb3wYYRf3Oal22dGR9fbWd95pN9wy5ER2vU17f7muTs/WrFjwflZnwxzXqlO2oW/Wfvg1T7AffdVOG/BYrDLBSRPcL4qaP2Tk/AHYSfXDI1vttb/8GRua3OwNHU6Iy9ZfPGzvfcc1ds7gI947XjPCrmxzvfE+Fwbtk18as19++x6bqPSz+nw95Kyndsj+/U+/w56w9YDXLHw3/VRwrSrZr//ZHrvuS35tz2/xOp9Hn5dLtjxif/8Hr7DNnfd5vNTFMXybgtPAh2AlBDa+Fq8GWolDMq3G3CroWzv7R3xZMapOvlbaD/SxtVQ7K/UL2mFjpWO+XP08wXOB1LfSIQIQRH4Y/vDhw3bo0KG590VFlDTQ5OiyIyeiy40xvUtLriQoYHJIinb3RGREmkjSg5jgB/LEriAxyzc2SMhgU/rKBV5NiI+B/BA3vuRfseFv8+bNcwSY90kPHjwYxodfSGBsFCM69AM94hLJw7Z2EZEhCZTxjxxl9ESQqdeYxnFjHxl2IImLsUiPB2XsoSuf1JM0TvhMJ4F2jTkJX4zLsWPHzB985tYG8Sk25Omz+q74SZoLZAD2kVFcxEsbMSCLDmMm2/RXc6/xYezRjxP66MR9CqNNmfcJQ50fB1kaHg+AoPu4VQs2Vt5q177tK/buTx61MdtqleLZTkHWOXnqtnKuy2ac4NacpFUKG2y6cJYdnd5p//axg/an7/ysla0HOlW3uRCM7dfvHrV79vqc1thxc1tO+GY7Ntvnbz3o3Odsg2NlXYrCjPPxvzfO1rpdr8dtJMkffd0jc0xqNCGuyHx5VnGRisdJrGXr9Tg8eTnsAnoqh9QbJW/LuZ98j82U+ajb1z4ec512aHSDvfGPb7WP3jRjo7mtNpXb4jGt93Hs9XCx3elj5uNWGLBqx3Y7Onm2/fm/3G5//W9f8Fi63VKjeKlnV9TnhNcSCj7+xXXOG53E+sMEhLXiRJ/1V/NOVZyoHhzut1/5g5vtuptn7ERum43bBpv1vs1UOj0Wj73iY51bZzM5j6/jLDswcZb9+b/ebn/77hu9S7xSsRTUz9dCv13/2T12fHSjTVWcKPtDyazPych0p926Z8LJtq+H8A61z6DHOz+7fs2s+XXe52Ta57NcYw7Iu72u5Imd3KyVsBCstVz4xKBgM9WSpy63V/I4Sl6XvM4RRtj9rKE94Pq3muA6sRh0rT5TwRjpHpJGu8dP9pZiF9mVxCH9ldhYTbQaV7ivaCFBCEQkRIYgEBC2AwcOzBEWvtEuMqKFGJM2EnUQEAhGTH7xIR0hywY5wAZJ/oDihMSwGyoyy26cSBsy2GMg0BdR0peFsEUuss0xiTI65GqXf3zib9OmTSHHJvUQ2f379wcyy3ipb8RAoj/s3KKPD8ZDhFT+0qAO+xpPysgTPwk/sZzIHTuujIf8IYcPZEgAO/KpsSTXuGkuYlBPHXrIM87Yhcw++OCDgdDzUb4IJfKyHc8n/SYmzQGySvJBQl4x4EcJHdroK0lQf2RT/VDu/4Q8F+Ki3utch6bHOugCJ3LVx7RcG7B//q877fqvObnMneU3fyc/Pia8NZqvzVghN+t0cdby1Wkr5H2dux6kvlio2hWXXxbGqOrjnAajO1Mt2gc++S0bniw5eaGOHUw/b/Lddus3j9rJqUEPIj2gaJKcYHtyPufxJmQVspt3YoRGLvV3309FYhfztVB0WyFBk5hH9PkUKXmvlN3oQt595L3fBR4aeYjjnXp/MA3xVFxqvf2ff/uK3XLfRif5Z3kNv8RR8JjYpy+HlLynij4U288b1+zpztszrniq94WjBpgbBoiyPxzXfO26nbBOg1rNHzh8PbJznsfTRvvrf/mq3fbgRie7m91rR9AzJ4l5T0Wbsg6fI/pT88eRStXj8/nrX1e0K664zM+NFj6qXwDiyNvwaNE++fmHnTBCxv28IE63Peuk/xM37bey1/PyBedN0qlkxNHXPLJaOI8Yo2QeknlpFbW6jhJzx8iEGN1mYinxvYalIVzzzuCLnO4T7YpR9wEhfdxuYH+1faSxUn+nO95WsNyY8iIzJN38Y0CM2OGDLEAg+C1RCBtfCoK8QGghJWmwKCE5ImDYh7iIfMlvs4ULUcE/OfbQEQGirGOAD72rSrwQTGKGyCkRv3ySC9hRm1IMnWTUQ7zIscE34EnaAeXVBIgcu5OME8fYjvvImBAn8QJsyT+56pRTR8I/OvRDu4+MA0m6yJPwQf/58pbIvcZAY0mucZAPgXblyMTy+OJYvvQ6AeMCgX344YftkUceCWsj3u1GF0JKH+L51FxiV3Mgn8grF5nNihc91oHGQXZi2aTsdUFv4fw/HgARyhd77ODRor3nusM2XtzsdT5vPpZFCEH1pJ29uWJP3tVhT9xVtO2DTsoqI94+Y4PdE/b7v/xMe8VzuqxkQ06SfKwTlhghbycmu+0LXxt2sse7kqwRJ19Oggr5Djt0vGqfuvEBD4QvG6V1GeuFlCaRiGo8zuaQbGInIa+JnSTVrLdr0tZ1j9v6nnHr97S+e8zTqPV73td50svj1t0x7n12BZe/98EJu+4zEzZV66/zbl42qFh3fsLO21axJ51TsUt25G3LurKV8pPe1ynbum7S3vEbL7TnXur+qyMeRfp93yRS3gdlzCCJ4eeu5t4p5pUEny1ff7w7G+ScpH1zz7B95IaJsLsKiYPsl5y49ubG7Lyzyvbk3VW7YPukbRkYt84OXmeo2s7+SXvbrz3PnvNEfzCpDiVhtLSumTtS0b5x76jd+Yh77PAHxmrJ4/J15HPBKye33D5m+w/wQMqXtPy8yUGSIfHoei88/gIpEE767Q/Z3pYQUj+Pw0ikUxquGXZ2E5sLkdhZw9LBNZQkpI8fb1D/0n1cjev8SsdR9yal1UTa12r7WwmWEyNXjVPABGFEC0JGISuQJ35XFOIGQTl69GjYmYXQ6uN0yATyEAcICDbIIS4iIhAXSI/IBpA/gLxikA30IUDYQA996QJkRHYgayKzECyRPZE5ZLAHsC8fsqdjESJ8qUwfKQPqAXHxETu7s5BGxobXMBgbxoj3NGUj7peIIaBeYxfLxO2UVY9PEvWyLSJHHaCf9BlCq6SP4EkaTxJ20VPfYjvESb2S6lWmHeIsck1/6fvevXvD2oDM62EDIKM5QB9fGmdyQL36rn5rvJDRu8zYwZ6AnuJENm6rVL1Pc/FjO7H/mAf9yRXtzvtP2FB4FXLGT272snyt507az3zfDnvfW3bZf/3BTvv3t5xt7/798+1tP7/dnrNzv735x/vtxU8rW5cddUM+NhoWPjb2AiPFrxnctadmR4dzVq7x8fCMJ58fJy0oTOcG7D+vv9uGZreEY5CskORfEOyEJko+P+yuOdnx2fI5SchR68Av8SWp4PFc+1O77F3/6wJ7z+94H39nh7372p2ezrd3v3mXH++2f/7NC+1XXzvoxHPYu5W3b9054mY2Bf/h3eDqrPV3HLY3/ugOe8/v7bL3/eH59sE/Otfe99YL7Nd/pM8u33HUfv8NZ9szL560DjvpY1xyEppcz9Lwrs0hDKcf0/ek50lKjhmDnN16zxF/dCjZNO8U+zHEeH3XiP3GT19g//bW3fbut55r7/VY/vUtF9qbfmjArjxnv/3vn9lpV1140jpzzBs2nWi67uLAu5+LpT678Wv73ecm7zuk22kz81H1tVOr2MjorH3sK8M2XfOHEtbXglcIFoJav2InyUXJk95mpXlwfvIowhiE1pDPn69rSKG+hpqBMU2D611yzUvaVV4tZMXQCHFsy0WWDY659jeynaUjED+6S+lHI8hPM38rRdqH0ulCO/0x5ouNu2T8YXshaYxBQLSJDJAAhKjsRAPyA2FBBjLBriMfpbNDC3mDxCEHycC2EnraDQQQS0ghsvKpwZBP6qSPnsgb5AVZdLGBLfyJBAHktSNJrp1Z7YaKSOEjDfwpHmwqLsmqb5IhZ0z4KB8yC9GnnvFgdzZ+bxRZkvwrAfot0q0xwE46AXToCzljgm3pQhqlT5wi9sTFOBArY6DxQF8xEJdipA27gOMYHCsWgB/ZJUcPErtv377wKgqvoFAXxy+/6NIWfzlN4wukQzzxDnP8YIIMfVbCDvrBDjdL/uMz8FOn+zEMn+PyjD8sjXq/en0MvHPexUplyi7Y1Wuv+6Fn21l9Q06LjllP7oTtWHfCvvM5XfY3v3e1fecLtoSdSav5/IYxgdJBZBlrHzG3BbH45JcOWaWwPtxAEWMcAd9m5+fJ9jh5fuSwrx2qnZAmJC6RXAgd13NEmN/ge4nwuWa++Xvwl+zotou3le2S7TOeZj1Ne5pI8p2zPg6zts3bA3krdNojx0Zt3A/5feBqjoervF168RZ77WueaIPdQ96Ho1asHbWdG0/aj7x8s/397z/XnvMUSOsJl/X+BSKY7lvzbsxJR0J+dtnRI6O+/n3ewrrktYUZu/zSLfaql+6yjd2HrNvnbZ3P23mD4yGWd/7+8+1qj6Ur5/OGjmvw6kPLcLI6NtVvt3zjiI9FnxXDrqlf39wOP3fGj3zlO7vtEzcdtooT3FoV8up+go9T+yxwdpESkMcpG/Ot85praC+4/imF84XzLVWfTo9FxHGrnNUXxkD3kizo3tFM5kzCcudrsXE40xG+xMVEMQBxR1RWB7n5IwdxAJAjEQtykSCICKSJHTh2HiG0vEMLaYvJGEAPwgHJIWGLdggMCeIRyyuWdGzYwC+xqR/oxjYUK7LEym4pBI4y5EeESyQOOemkE1AbthWH2gTqIGWQLL4Ehk9sT0xMhLGB1DFO2tFFHrsaF3RJGhNyEn1CFshnHAN9IKELkGdONB4AOWKB0ENmiZHxYCzQ0xiQ1A90dSwbJPkFij99rLFFFgLLuhCZV//V70brQZBtcuwSu4gsesROAujhEzs1v/kmsfmDGibqdh778Plg5ywQ0KSvPvJ+zNxU7eTYjD1yaNqmcme56Dpv6rWcj3OuNmK9hSNWcEJWmR4Lukytn9GeXBfLrs9Hw0dHcvaFrx51YsO8eL3LQuBE4nhRYarcZzd/46QTIj4Gr4+x7FBcLWCcmPL+ANTR7cRrnae+evIHVE+lkq+Lgq8viGrYIvQHpTpJ5w880Efefz0xUrbDx/M2m9/qT1YbrVroDePC6xZ9xWMuBXnlfVoc0/f569NywMOBB42LEJZVfew996uPDY/M2tBYp00Xt3ocG8KXyfBbqg7b+vwjPm/sJLt/jzsMgM9Oy3Cdz3/lkO077ONW6wi+/cx2K5zThTonLtmDBwv24CP+AFhkTr0y9HsxoLyGMxXx9bMZaF9Mph2Qn9PhS/euNKiPUzMs1i60YqtdaMWPZBTX6Yqt3YjXydyWa3LTy4Y6y80fksDOKmQGQ9QB9EVwRAYhEbSzmwZhYweSnUiRWWxiA10SZZFg7ACIF/r6+Bl76aSJoCzyAlnChmzTRnySlS/ImwgcMZOIXySOXLHIFom62FYatMUJHWzhi91ZXm0gJsaCsSHxDinkVvHig1x9QZ82xoJEf0jUCZR1jI7ILAkw7iKMJGJDjr7Sb+IjNsaD8SERg4ig+kqZeiUQlwGy8djgg/VDwidx8K4srxmwa6+dWfVJfSYH1NEOZFt9oEysxA0plx/1m52tcnn+Pduk8rF5AmcijIH5Q4ivmULyV9zoXS5fsEeOVO0Xf/t99lfvPWwfu6VqX76/1/Yc22LD5d02Udsavvld6GCcfEydxvBRMe+2Qj3DX30qdNkNTnYOHGeHvMvJDWu6bD0d/hBbmHa1+kNRsd8+9aUjNlXp98UQfvm/DtbEqedIO8FH7l/fl7Ob93TazXeVPHXYTZ5/8e4uTyW76c6qHT/p5N0Jog+Oc70ZW9/rD4gFPqHwkfJ6X9G2Z++U/cJvfcD+9v1H7NO31uxrD6yzvUPbbLR2vpPa7S7m5N8JZ1g6dEm/4bpMFHiYqpRtQ7/brc5Yh5PGAn8UwMf/W/eM2s//9ofsbz40ZNd/NWdf29dvDwxtsVE712b9YYRfc6jRnzD8HkzYRV08Fp/V8JNdH77+njBXdJ++56tT1tvp14MarxAwx2Zj0932qRv3mY+W2/e6pNOJoTU8ZhFflxeDrrWrCfmI7ynL8Tl3bW8AbCITy+k4Ts2w2mOxVCwWb4ylyLaKdo5HK7biPhTe+MY3Xhsr0ahjlaUAmYAgQLpYYNQrQTIkS4IocEwSEUEHggYBVh4TEtmUHoD0qAxp48YckxDJklRHrpNAoIxurC89tYvoibgio34I6CML0VXsaVsqx3VAZcUn0gjxYow41vuiEE2ADrIkgFw81lnjEcsL8kn/0Jc8uiTaFB/tGgftaBIT9QBZjU/sl0Q8IO0fyD/goYRjbGIL8A416wJiqzZAzrF8EG+8a4u+Yice5ImZNvJk7dXnIud9Yxdt/A7r4Q8azE/PYxh0gr6ZTdYG7P2fOmDlgj8gUe3/lPOdNjLVZ7d+c8o+fssJ++ANB+2Dn37Qrr/hIbvvoWkr9XTZWZt6nTzBhFBi95p1P+uExR8acpvtr/7lbnvg+Cb2Htm3tE6nNP/9VU+zRw4fsNGxso9xl9cW/IFk1J55WZdt2cSrBFNuA4u+Xl3rxFS/feD6vTYyzc/R+fp18parTNoLrtxgl55XC18o84DrMWSDn9y6/+EJ+9iXplyM3VHWhbvyef3C7QfsE184ZB+74bBd5+kjNxyzD98w5OmEffTT99v55+60J5zjfap636xs4zP99pHPPmSzhUGP0K8t7pufGTs60mG3fGvKPvPl43bdF4460XvIrv/iQ3bP3jHbMLDeNg3wjX3Gh0i5BpwaM2eF99Cbuu0b943ZZ2+b9iNIvcfrnroLI/bal19gg10jXlexEzMD9uHPPOT92JCMlpPRspNlfqP2y3dM2Ge+OGwfu/GoffAzD3j/HrQ9B6bDKzSDA13OK51wuvuqB8R/pyKJJgHlgu0/1ml/9a6HbLy6qf4yRM0Gu6fsh3/whfatb93uBLczSPJTVscPPWDXPO9CW9c54r5cMvjx1lyn3b+/Yh+7+YST4J6k3kluyUbs+7xvm/tOuly8K0wMSnW4Dn/Z7VNfOm57HvaHzPAbvOzsF13/hL3mpedbX5E/prAGIcyLr9mOTVf4Q9WFPjbUzEPXwkZYrL0R0Fuu7ulCKzHqnrUctKK7EvvLgfrcjrl5tG20qiu58A6sbvgQKQhGbITJEHnQl6EgEJAH2qQPkCOpXknH5CJsyEFieL2Aj5LJ2Z0VgcE+OgD7kBCRL+pFvERqJY/dGCJD9I+EDREedOPXGogPIE+cem9Wu7IiQ/JLHvdV0NiQVAaSUb0SYEywr91D4mZXlp1JcggkhBl57GjO6A+JmGkjJsnJr4Ce/NEPjWncJ/yiz7H6hS9egeCdXn2BT/OIrsZcPpWAyvKLrIi/5DUuxMIxfWVN8JoBO7S8ZqEde8WMbx6A9HoKcROzYgHIIsf89YTXI5LXGEDwOT9ljwN4Z2p5e9I53XbNlU7+q5BBiMC0UwEfbx+7WSeyU05Ixme77djkoN1xcND+9bNV+6k/fMj+7gPjNjJ7lp9sviZzfv45gYLQ8Vunh47l7VsP+LhCFn1a2at0WmPf9bz19txLfEyd+FaqPq/eNlkp2se+OGS1Qq/r+vwSWnhvchUR5tHJz3SXjU6XbHiqy05OrbexqQE/7rWpyQEb93ySnxQLpByCXrWnPKHHnvFEX3c13tet/6lX3uf1y9lModPJXY+NzKyzA5Ob7LYDm+1fPlOw1/3ePvuXT0/ZuG0O41HhDwIseyExZ6QZu+Kikl11ka9ZfiYrDBrnXiX8YkKuWrKJWpcNT66zgyc9ln0b7J8+XrOffss99v7PTfsM8+P/fu3L/EIZxvwcrP8XQvXz+WZ/mBmaXh/+cAOzxI7rOVtq9toXDdrZ/eMuwnW8aFVnxvcdKdjt9437HPu4sQCws4YzGrqmptGofilo1QZyK/G3HF3uEYuBewRpMfvYSqczAcsd08X0VjJX7cJSxzjPx8W8m8lNHkLExHKT55ibP52CaJBDCCAX6iiy6QmmTYtDZFPyQKSPNnzoI3yIEYSEL/nwqoHeD4W4xMRNdolF9kW+IL/68g8+0NNiVR1ALyaz2MaPSJD6QsI+ZA3yzliROGYckKVdPgSVZSNGXEcuEsdYE4Nikz984Qcix5egGBe+LCdCB+IxIaGPDkmEFChO5NElVz060qUeHXzoAUFABpKt1yCYOwi3CD5xII/vWA/gE1+KR2OneJDnWOSYMmsAEs+60BcDkcUPwBavXiBDzvwD9Y9EzMma7rH1/cmX+AK87XEDlgK7Xx0j9qafe5E9bdchK1WPe72vb+v25A9//FWpnJ/jvEvpJC78tmeu08YmeuxP//ke+8hn+RWRfud27NAzJ05inYh+6qY9dmR6g1VyheSb6jZr27YU7NytY/aiK/1hpjjhziHLvpaKnXbT18dsbHrQfXc7MeJcmD83Vg9+jhNfnr+k5Q+AkHXWmrPR6Ty7yN5V9jadoFbCz0HlbaB32n7r/3u+XbRln3UWxrzV1xQfyzupq7mur9bwxwYqvpb8sdBT0YYn+u0P/vJ2+/TNo07ouo2fw1o+XNcJK+jvnbL/9cbn2bkbHnQSe8JjLTqX5nUN/sgDD10QbHKfPyfXVT8+Mtpjv/Pnt9lnvz5RJ+fJeXUq8BEWiD9L8PpAh338pn3+QNNNla8LrvGT9vQn9tvmrkN22SV9Vq6MhgeQopPofHHQvnjrw75Uzg5mwisXK+r3Gk4HdP0jtRurYfNMAPcNpaViuXrNEMcTpxiN6peKleq3C0uJY+7OIjKpHUAIgggeZAJyIoIHRDzIgU4UnKNLUjmW4VhyIjnYh4hAXHhFAZ/4EjHRb6pCXtBBFhsAeyIo6HMMtLuquBQvfpXUhj79wwbAPknxkaSDfcaJHUnGCl3qkSUH8qOyUgzaqSMubHKcRfhoY27wxdgQFzuOjAu7lCJt+FcfgQgpYwvQY0xjQqoYQRwndqSPDEljQbv0sM1Y8ABEfCTIIYm5QB+gh75iRF9xCvKbBnOCH9p5R5aHG35rFmKLPc0dOQ8wEHx2rBkj+qq4E5++XvI+nr6+8/zWaWq8H9NgOMPu2JQNdh+3P37jVfa6Vw3Yk7cetoH8A9Zb229d1UNWrI5YocqurK8tl84HgtJhM6Xt9v7PPGizxXOcdFacmPlYOXkbPlmyD316v41XIE0+966Vr0zYS55zoXXlHrKnXtxpPUX+KII/ULFr63P48DGzb+4Zt2puQIF5WkV4rJDtQm3EiuVj1lkdDl90KjqB76jn+cq45atjLswaTnaGc5Up271x2v7k166y//6Soj1x637bUNhrffmjVpg9ZIUKYzXuY8U7oXzQ7tc+3qXuOMfef/2DVi7udCsih8uBjwu/sRqo85Sdu2nC3vHrV9oPXtNhF2162PoLD1pPzuesfMTy5RGPf9TjmPW4wyz4dPs1ubjNY3nIZmvb3BoENiuWMNNheeRyXXbP3in7yt0TTmDx7ePmOh35Cbv6GRu8v/vs2Zef7XT4hBNbPz84f/wB6JY7hmz/yV4nv5wzy+3vGk4XdI0WuH6mr7mrBXzH6XRD1/usJKSPQfr4sYJW57WV/j3WxiAwBhEoEiQC0gAJgchCSiAIkEFIg0gihEFkJIYGU/UiS8jGA6126iEo2BfB4Vj+AcQVshaTE8gK8jGwSWzES44//EPcIHmQOPkljxNAPtYH6GsnUvokjQHkEmJJrBwTU+wHm/QJSFdtAjJpHSWgExKfjD8+mSN8Qe75wwH64wH0E3l8KtEfxjSeM/yJzHKsHCiPx0LkXg8G6KNDIk6tGV65gNASJ0m7s7RjC/8ileof/uRTdeq/ErFjg75jB33sKEYS7cgRH68WsF4g+BwDXFT5ONsL+ktcjxs4O0nOND4gH7Pdm0bsTf/P+faPb32hvf1Xnm6/8APn2KufU7RnXjRp5wwcsK7aoYQMBTLiuvmi3bt/3O7aN+4nZZ0IOUG6d9+U3bffDwtQXn8I8Or+ng57/rOv9KpuG9i40S7Y7US1OuH+kXAKXe20D3/qTpupen2YznaPc7JG5uCHEPFnPanLXv3sXnvl03P26qfn7ZVXFuzlVxbtZZ5e8ZxO27phgkUd+hxop4dVrIzaE84et996/QX2N7/7XPvDX7ncfvr7tttrnttjz7541nZtOOQk8pgVIfU5f9jMzTpZzNlde8fs4aN+XhdOfehaHKy9ejF87E9ij3zEnnz2mP3WT15g//gHL7A//OXL7Se+e4vPW4fP26idt/mwdTuhLfF04TH4FdUfEnrtzvsmbGRy0JI/0pFG8tARfu3AMVvtsk/fdNBOTq8P1DU5Dyq26+xBu+SSc6xSdSJ/0QXW58+eRT9Xoda1XNH2Hi7bjV8/avkOrsmp8T+NYNjitIYzD7pmP5rQ/USI7zGrgdW03QpaGe9He05WA4U3velN10LwmABIAYQgngyRDhFKCAIDQR058mmduI36eOAoxwlyA7mCpMZyAIKCPxIyIl+QV+RFSgGxKzaS4hFxIhZAPTqSy4L08af+kagX+QLISE6y6o9sIEvezJcIGYnjWFY+lOI2yarfjId2ZEW4geYDkHMMiFfxCbRzLB3a6bPGMB5L6uPxiHVFNBkLctpi4stxOsknSfbiskAZ+/jGpsYlllffWNvs3M54TlO+UHKicMKmj3/Vusp7MBbkH8tg9sIXeNgxc9Aj/pyqVSast3jEzt9RsSsvKdkLnzlor3zOdnv5i3baxk39dvNXH7RybsApiq8fp0OVqRF7xpM32xPPHYMROn/tt3dd96B95b6Cy/m57z54V7K708/bzqJ9/Vv77EvfPGr7h7rt4DEeEnyu/d+yE71jBx+yFz5rl21Z57acKBPU/Je42Jn1apez+pe4LjvPCZO1+iWuKfvYl5yM5nkVhDUDBZyyP/ifl9gPv2KzveyqXnvFszfYdzx70K55jufP6reXPOcsO2eLj1GFX02AavNARq99zJzA5e2krSuN2AU7y/aMJ5XsRc/YbK987hZ7zTVPCGvmK9/k91D5ghEP2U78yiP2vKdvt3M3nnQzp8bLnPCFJit02zfuHbPPhS9x+XXBI/WzyrrzJ5MvcXWfcEEePvyc8DhyNX/IrI1ab8dRj6ViV13aay+5yuft6g32qhdf7GNWsG/uOW5TNebDZ87PmcrssD33mefYTn9owXE6Gj87/D9v8LmbyW22d/zznXZ4ZMAf5ojFR7BWtq0bu21k+Jh9885hJ8Tjdv8jJ214ep23ct3z8fJzbXz4gL386p3ucyoZt1yXP9xU7KM3n3DTXR4ba5AXHfgS1/m2uW809DWJSFEluYeSDFt4JWX+S1yVXJ/X+Vj4auBLXN/10vMWfImLvsRIiHn9IWJh0+MWrK1Wv8QVlx+LiO9NK0WzsWinn9ON1Yx9qeunHeutFRuSyUMuIHmQBwZC5AdygBAkQMQCooQsHxuz6wg54VgJ8oY9DSg2AMfopxN2IcXyl54ISAgySvjHPmQa38izK8yuLO9HshsJWYHgancRP7EtkTB0IT/yjSx1yCg+Qcck9EnoiIxhR+OlPjAekCxiZVywS5vaBY1vHGtaJq0Xy6ELyPHJePI+Mf1iXNiZZSeSb/hrJxKoP4yF+ow9zYNyxSdQhyx16JKYF+RIjIkSkJxeuyC+OBEzMrEPoPjki6RjjTV9BMwHvhUb8Shpjc64LDvUBw8dDCQf2QCydHqMgRsYH/vnqz5OfkPnZ67K/PB8peiNXVb28arWpqwjN269pWHb3r3fXu6kqC9PvY9r+KMDPn6uMztT16tO2+hsv93iBLVsPd7u81nFU8VOThTsH95/n739gxX7qw9V7St3QQpdxv/jg/ai2zw82me33z3q41l/39jr54iGx8hv8TIF/DWucMzPQUFog9x8FuCCxAbh8p4GeYgMNDS8thBK/JDWqJMr/hTukCslKV8b9voT1uWkqlA56by8aAUfk/ByS87XKV9Aq2C3lLisJn9EoAOdjhO2uWOvfccz+61YHXddzpGkH7OVvE3NRvGmUO9pABIhsT49Ttp8psJcuUNPZS97X5zgzuT8ujbrD+s+nvx1LF5h6MgdcxJ3wrb2HLSXPmOjFfxBo8MfMAJB9vghlzwj8L7xqdEwYn4dhoQWe+yufZN25yFfE4w/+u6bP6N79wMT9n/+c9je9r5J+4sPHLdHRje7JkMd/vXzr9vuuHfEHjrmcTlxThwx/j7nkFCXk+/wiqyPI/ObvEtdHzdS1WOhr3wSgoILs/aSsaHK++D94HOEpEybrz3Wpyf+896GFGZdTtEO4zlX8fiEj2noYZiW+jjWoetjDK5zc9e6NiPtq11QzO2OO7Yb2263n3Yia05jLBZ73N8zuZ9AfW0lTsmE6yzkABLAjZ4kQsAuJwmigEI8kOhAziCy2p2FqIjgQdogEGnyEdugnWN8gLhdZZJsAOKQPXzwRSJ8A96T5d1QfTOduPXep0gPCWT1F4KHfLlOviSLTw2Y6iBGJMWGffRFimN5jQfjBKml37JJO7r4ly35ALITQ7oC8tIhZx6AyDMPJZBZvtVPgswSIz6B/JI0Z4orJr34RIekGORbc0lfpYsPjYXamCu9Lxu/M8s8aP3gX3Z0TJmkGAWOZZ8cvyTKyDFH2CUVi8nvd/KAozl+fMDHhm/DhyXh50nH2fYPHx61v/qgP8SUL/KnqR0u0uftyHRbvuts23uw6gTMq8PuqNMqxrZk1sNnx15G9pbbh+zeh53P1vjrUz7GTpKhQwkF8/O8Csni3Ot0GUiHBwDZcFLU2bXZvvjlR6zWge/k3D0VPLS53UKXXwz6bXyqw6r5dVbJrbOZSo9NOpGrFfq9P4NuAhLt6yCQlHl7zDMJdBXXe8t6K3ZstkJps68p0qaQisVBXwMb3A7jQBd5Z9aJa36H/cm7D9k/fdzpbvUJNlvYatOz7Ej7NSHvec+OMFYVd5v8Xqrn3p98gd8dJhbOocT/YkjO0LQsRtl57bDp2nZ7xz8/ZO/+XN5OeCzl/FkeJ7u+632IB6xa2mIPHJz1ej8niMf/44GhVnB9fo+37mEhvD3U+znr4/rRT33LJqZ8TN1fIYyl99PJYrng17Bct5PRbu+3J77wF/TdtnvxDtu0z8ktX+cvvfFzYKwTPolJHligk0nffD48uHxpwApFH+8oWUibPG0MXwzjS2phrQUsHJdabsbj8bVWWG+V/Iaw+13N80rKgKv0h2SeKp5q4TWMxPcaHh+Iz+s1rD50f02nxbBU+WZYznzn/GYetCAlCkC5FlFMWmKCETtER8eQHsoQJ/QE2UEWkgGZgWBpRwy7QhwLbemYJKtjAbu0QYjwr3aRJEiNyBagLS4rRh3TT5KOJRtD9dInV0KXNiVAjhyxMlaQKcmhIwImW0D20nWAOhL9hqjxDiqENfaLTdklB4wHhFpkXMQQeYBN4uNYYyB7ihcojjSoJylm4pO+dIHiEeElURf3NQa+WTsQca0D7Ek2rYNMwVOtUrVZv9n1VO+33JH/sM3VT3rrqfOZVXXGwwkJmKoN2rs+/rD9xb/vdcLVY7t35O3S8zfY+Tv4ol3Rpmcq9tDBMfvMzQfs/gMlq0AqnMhUnYxs6T5gf/+W77Anb99jM9Wi/dLbH7Trvuxjlt/sFMfFggf/d258fR14mV0wuBCzmHyZyteiE69tvQftH//oGrtg4zd8fmq2b/gc+7E3ftr2ndjFhDnlYc4m7IVXbLAn7+IdU3Zyk3U2B9y5gwu2T9krX7DTctUJ+/hNI/az7zjmhGajCzBZ/IbsrH3/iwdt0/ppp2TQOvoEMST3NeI5rw/s3tFrr3nhBqvOnrSJ6hb7+/98wN75oaNOwHP2hHNLdtnFG23X9j5b11NwEl21+/eetOtvOmT7T/S71V6Xm/W+lcJ7xO/+k1fZju7bQ1+y4eebE7V/++gh++2/H/H54M/w+vXTe76huN/+80+/w3ZvvN9jy9vozFb76/fusb+/7lB4ZeHS89aHdM62butZz3cQpu2ufSP2qZuO2IEht8OfC+Z88v92bzxg7/qTV9u20rfc5/z1VqAGivnIibPsx375Brt/9DxGx+OmBQs8BJa9pn4u+X9+5vq/lJOHFv46V9Gm7PILCvZ3/+t867ODTpx77JO3Vuz/+6P9NgHRZhG4dCk3Yt/zknNty/qJoB8jsezXmcqoveRZZ3sfp8PPc73x7ffYh282m85vcyk//33OtvaN2GtefJ71FoZckWvJwrWBrc5C2V57zQ7b2MtvzkLiXSbsGj9OwfngwzxZPN96Lv4JGyu8zM+belsTxNfbdiLr+hxjsfYsoLMcveWgXX5WO95G9hfzm25v9zpYDXvE3Mxu3JYbGxurURFXZg0KJIB6iAUEQ/KQHghF2qnKyGtXUrt56CAPeVU9ciJJsqUkUE8C6XqORXhEyni9oFz/OJtdXurwAXHDNznHMQkCsT3iInGMrGKMZQWNkcroywb16KInf5Kljhglz5ggI98kAR3JKQbK1KMDsaNffFyucQbYoD3WAZoT2uJXHqTLjjT1ksGO/AHk1CfFJh9p0Ba3S1e2KDMO6rPWjfSkq3lkfuWXetmVTdmdQ9Xrch1OQx6w2qH/sC21xxGB5XdYi1vsHz+8z/74H/baZGm3EwNft07CitVpv9HP2uSEk6iSE5EOdq+6fTwTYsJH47wv+5Knmf3prz3Tuqt32yOj/fa9v/Rle2R8u4+Zrwcfynx+1vpLo1aZGalvqvqa9nqGa6bqhC+3ziYr651MMu69lisftF/40Qvs577bZaqjTmB3pggsUwKlc9JZ41MY6tKD78dOXF70lCH7i2ufb6XyAfv4jaP2s3865F3eFNohMqEP4dcCpucs1MKfXWBn0c87z/n1hOdfucX+76/t8uOC/fm/3WV/9Z+HbKp4oRPTqvXwc1szJ72//uBd5j1P/6+0zokrPzfV4UcO/lztzAn77qs77K2/9FQrVfd6ZXIuxWAEAnlzAvuvzQjs4L02ndtuf/4v99k/XnfERgpO0p3gdVRnrVjxh0cn7NPVEz7eHWE3spbvYsPWx9j7VfB5qZywH7pmnb35py+xQvm+xLFbiOFnh58LBfvIzTn75T/+ls2WLvBjfjWCX5uY9n5PWskmPdr6ucnc+LrJF4rhNZKqk1OXdEsVW1eatHdee7494/zklYpPOIH9xT96xMZy/T72ePZ/nAwXPX6nocH7Qvi1g/ePp4/a7/3SlfbDL3a/GQSWnz3LV2c8vtlgL/TB/enLaIDV0t85Yf/+9hfYJVuP+VjxPjKztLD/jyswvN69M5XAnnLNXQa4zp8urDTedvS3FTTys5j/uH2la0D3VWE11pR8NLMdt+Vj4hQvHIRiQYySIA4ifyI5kAwl2ZA95CFA+rkl/UwWfvVRrj46xp9IVlwGGji1qR6IxADqsYVd6mgjVl41wA+AzPLOLIndX70zKx0BXXTUX4BMWpYcv+Sq0zjIhnyLmJGQkTzt+GCsGCORcMZKOf2SD+nGNrCNHLnGSG3EAeJj7OGTRJlx4X1ZfnOVVw0YH2wB+VZ/4ng0JvIr0BYfU0ZfsTAG7JKjjy42ZJ8xh0zzmgFrh/EgTmzQrn7EUF2jNr6lXa74evebcwKPbT68xzR8JdjNXztkf/NuJ68dO61S9oetmnfOic9sscem8ust33OOVTu2Oznoc2lfjzlfK0EbYnLUfvS/PdG6c/udHXXZLbeP28lJPuL1de9m2IfrzJ+0t/zy1fYf73ih/cfbrrL3vO2Z9u9ve6691/N3/dFL7aoLoSbs1/n5mPM5LfTZRz99l42OD7qPZM65AfP+K8sifIzvrCeXLzkZdaLkMWalcn7AeWOfEyZ/4AlTy6TNTxzkxi154t3OfifSAyGVcxts1nOlWnHAyRjv6pbtI59+wP7lQ05eO85zvVnX9ocmXx9VH6uZ4kar9pxntdL20IcavzTgcfIFKt4z3TY4aj/2vZdahxN0X1j1KBbCpcO/QBuCseRcq9t7/yfusn+77oBN5M+1mYpfQ2enQz7t4zJVGLRc524XO8f7v97n1B9AfPB4naPqa3nnWRP22lde4KR6nxtLZvMUuFy+c9A+96UHff63OdGDWjuNdt8X7CzYv/7Z99t/vP159r53PM/+4098ft/2HHvvnzzX/vraK21dJ7/7zXnsc+praXiiYNffcNSN+pzyzrWXIMIQU/WKL+eFcfO5q/m8xqla2OBqyXwWOta5uOv6VCbjFcHXT67gq6noNjo2Jq+RzL2OQDlJ5vbCbxqjH3aU50Z2DY9RxPeMNawMjKXSSpG+r4Z7apRWCsW4WKyxvzwkBBKk3a4sEiJQL2URIBJkBlJBHfrs2sUEiwRETiAm/NySPtanXaSIJGCLhB18o0+uOGKoXbuHIohqI1EvYkSODd6bZbeSFP/eLKQqDWKNY2S81FfiBFmxCYwV/cSOSJjIH4ljbMV90Xui8e6x4kCehLzsQ/SIiTI2YvLLMQnEukrEpPeJIZa8R8yX4vgJM8ZHMZKwozhJ2OeYcRAhBdQJkidHnrjwSR069F25ZGinD5B6EVlALMhojgXFl64PCLGEW5379DKH2VP1mAN/lOCKS/rtB1+62XZ0nXCy6XPl/YNi+Cg74XHy5ySsVPUxrfr69cS7isWOCTt38Ij94a88zZ51iT+UzY44FSnadV86ZlOzPLT5WDLOTmJ2bOmwZz3Z7IItB+2ibSfswu0n7OJtQ3b+1uN22e6T9qrnbLaO2rRNu9+aE5NCrdMOHszZnkd8rTtp8mlxa547EQ05HyV7bPyBgIrHX+PdTs9PTZ2uz0MqRNXXqsuzk0n/nNV55yGv2CUxGO7IE4Qz/LnaujdGg3HgNYcXP/ts++4XrrfB4n5vY705oXNbjCN7rfnKpNuA5vk69KUERSrlpuxJ247Z2950uT3xHHah+aMZWQuIuvnEu7MF8z64tYrHVXY/M26PPleqs/aSq3fbNc9fZ72lR6wj7z75yTJ/cCj7GFZyM577eePajFuZ+pxHU8jZ03aO2B/9z8vt4u0eC+QtfGGOAYjhfXd/B4b77at3+XWt0us1Ps4uVnSVqy4ZsCduedgu2HrIzj/ruF0Q0pBduHXYrrio6u3rvO/Jrw7wuFPq7LEbbhuxkdleXxPMn4+PE1sfsTDe1PEpB+8MByepVHAZcufObs3vDb5Oq96/io9R+FWK8Ic2/BpZ6/JxLyZfTPS1Q4J4e/CeEE4Su/2c1j46/o8XQv9JaziToet0OnHdJm83ZF9IH69h6eD+G6fTCfkr/OZv/ua13CQgE+Q0QA7KdRIi4hMHmZVLRsQEiJiJkEBGpAPQgZxA1CBl6CJLUlsjyA6LkDIJHZE1CKxiApKJy8hBiBQXsULYILDo039iIUcGX9gkoRv3lTaRN2whE0M+lYBskKQvYiYZgC3GglhJ+NR8iQAqVggo8cf62EdGMdFGWX40hgJt6GhsILIQWt455WN75IFiF+RD9pFjHEGWH8pK6g8y9EPrBsgHMowDx3q/Wf4ok4B8qF6A1/CeX2duxAqTd4V3YTMxH+JjAt5zKzsRKhVr9vSn7LIrLx206viDdsIfOirjw87DeBed3e2y937WiciEddsR29J9zL7rhRvsd15/pT31fP5m1bBPYsHu2ztif/pPj9hMxQltddLys2NWmDlpL7uqz158Rbd1Fcd9LP1Gk+zjeQC+rnycBwY323XX32mT0054nADy8XeuOm793VN29eUbbGy6w/7rY3tteHzUY5pwBjNu+fK4T4qvqQp1Y5YrL0zmqVodc5I8Zq944W63N2IP7Buyj9444vpjTmw8Fm8POfpucz65f14F8DisPOpEbMx2byvaK547aD2lCbvisp329CdvsfLIg3Zs6KjVZk64HGTNz+HKtPfdHwJmRqwvP2Rn9Z2w175ik/3GTz3FCd6IE6cxKFNYK6cuF193Ppr8a/lu+8Y9Q/aZLx/xNT3pDwijThzHrNtt/8Art9rGdRM+b9P2rCsutKdfssmmj95tx4/7nJVPety+xiuzTvqqVvA5zJUnrTt31LauO24/8Oqt9luvv8x2bRx2Yp38gYYkkPn1DvyMC6Tyg9c/aJ/4/EmfsRnv13G35+MzNWSv/4FL7IJtPn7mx6EvnKNcr7kG5+zkTMluuGmf6zhZ93mq+lhOjJywq58+YNvO6rH79x61T3/xoLdPe78mPI1nJn5NIZkrn++ar6mZUXvpVZvtsvN4zaNon/vyI7bngRmb9fVQKx/3eRjxvpNO1POTVq3ncerJjdp/e9m5trFv2tdk+FZiveePsZN4KfCulfP8jNblNpO/IDwbLAZdE1eKBdfTlM24LQtczyWzmGw7IV/p+8GZBmLTmLYS5+noC/HEKa5rhGZtzdCKXtp3zgmbj0MycCSVySFF5KQ0OQEiGCIegsqSkx1yIFsiJtSrjH2OITDksa78yG/sBz3qIXDIijhJRjlAFsiW4lS/qROBFSBy2IZAkZCVHUG6JMokZOgbueKXrCBb0lOfpQc0PkB1yDBOkGZydl55EIDcSUa2BcroKclXOgF2PIkJUh/PFb7oC2OCP8ZFxFr2aUeX43hMAG2kOK4s4IuEXJzor/5AgXwRHz5A3IcY3Nv406B9ub1WPP6ftnH2Y16ZzP0CNA/rjAQ/J8VH8c5WPP4umyz32kNHzQnGcTs27OM1VrOJyRkrFoo2ONBp2zZ22AXn9NmObR1OpvjJKSd5rsqrBQePTNmNd7rNYn94N5TfGuVvG1x2YXdCdnJOQlyY3cTkvUfGMGfT1T77/FeHbXiKXXx/KAsts7Z9oGbPvqzbRqcL9oXbDtpoeSB8FM6vCqBf9dhJ4VcGgqV5YIOzcMfAmD37KRudBJ20Rw6X7eZ7fK7zXS6Q+J5PC+fdz75kPdQtbR8s2bMug15OJa+SFHpsYqbXHjxatX37TvhYTdvoRNUmppw0lgq2YV3Rdp7VZ+efs942b5yxruoJKxX82uAjxY6h3gFOEEdO2e3nOsNvpd52Py9XsNdLH6tWqg3Zi5+x0dZ3Qj7L1PizQ7/77bR7D5vte+ikDY/O2rGRcZue4fWNvJ21adDO8nk7/9weO2uzWVfFiWge0qZPi3wsMtZ9pZq3r901aQ8fLYUvovGOaS5XcpJ+0l541TYb7PUHF+Pd4foYhm5wHuftwEiP3fKNUV8H3WEMfZZ8/sv21N1lu3BHnx06PmM3f2vayvwObKLYEPwkF9H5qgkPOM948gbbfZYv0krBbr2nbPsOs5Puaye8khDD7bpi2GANPuSHL3FV7QVP7/dxHHWrfs0PBPbUMXjcoD4Op/sd2KzraYzF2oGuz6cLrcS0UrTTB7Y0T63YXa3+rXStoL/UvoBmfhu15Q4fPlyDkEFG5DgNKUNcSJJNExERlvSxOkOiDhtxnXbfJAskCyAq0hOQU5IsOR81804rxEegniQyBPCHrnxQH/tWO0l6EEPKvE9LzJA36ilLLwbHkC10SIwbiIkeUA5iG9QTHzYE7VSDWFY+2H0lR0ftGhsl9Uv25Z9yfMxrHtij34xHDGKAMMsvfYLE6mN++iq/QH6RBcSnfmjuJQvimGgnV79YD/jWQwpAXjZklzr1B8skCJrTFSscfZ9tqnzcKx8fBDYhLx64/+8z6//Rb691wsrHsuF3NWv6RIPdUcaOdeWJoQ66jAUfz3ueTwgq/zEcRX5XNpSc6LrtpIw880kZI1Az9JN2PtIn54s32IRAQlSxWfS68J/nvJ4AASeGhbOR6GM78JI58GpA2WsBGsgI84JBm355Hbwe2fDbq/zaQSC+Lotf4uVdXz7r5yGAn4mCHEMsa+zk8qsGvD897mvRz3nX5fULYuZXGBIEb0kRzIfhKPhY+jWOLyf5PNCZQm3Gj/FNHOQooK8RIIaix+26fJTOLyqUXSeQO0gr48V1h5ipq9sK8URxgDAGzJ/mEPl6/4OepwbEj3kLu8nhHEps0xfiD/KMo89zIpfymwX3g6tAYvFbg8Aznp1e7/EFF1l2FJtywKywZup9CFW018uPRzB2PjxnEoFt1iYg04pcu3C6fLXTD7Y0T4vZbdXvSud9qYjjb6fvRrZyd9xxRw2yQeKjfHIIbUxYUCYgEQmORUIVqEgo0ODGTiUnW6oTMSGHeMSkhjqADscx+RGZkT3ayYmdj7kBtqiL/QHFFfcHxLKqk2/sshOJvIg8fWa8IJXxQwDy0hdkW/0FIrKgWS49QJ85xoeSZCkjpz5A8JBXHYm4YzkS+oqJehJ1g4ODc7+ni47kAe3IqZ5jxUaZsWBnlgcKEX0gG9LHr46xRQIcUx+DOuRJ9E3zQMKWgBxJawnUwo94um8nc8nPaL3XNlU/4S1JXAuQUXVGIwwT5NTnOhBEnxevS8ibJyc9PtJBkB3JHOMC+XHCQH0gdXyZxqlA+BkrSFLOz+9AvCAmUB9sMn6YcTJFZfjpLvTIqUjWUPLj976GICSQEz/mS1a+6vyYj4xdLrQBfKINFUkBM7ST+3wGQVIgnaHRUa8LgWUBeV9jwbcX6XcggYwTvYJG0zf6UP/Uxkk4CN1IBtIrE3+821kIbBi71MyvuwVQeMQf4A8KLs/7vngNx3Oo2wOBECZFjafVunxefZ5CHBxjs2437L56pevwZarwByHmDSRIJs2TtzHuYfywLTu0e10YlxTm5gk/LlPjveg6sBN06jZCXM3gI+3zyJAmoIB+sq60XhfK1DE35+QC/UHH8wVr4nEM7yJdfqwQWLXFMlnX9nZjNeyfjpg1T4v5ata+0rleLlbTb2xb64c898ADD9S4+Ws3jZs+xAMCQmI3LSYWAEV0MKKBLGcQK5JkQRyE9BQMICcGyRML7bJDu3wA6kRgIDSyr34A2QbpcuwbcEzCf9zGGGATP3E9ctQzdpBRfDJmIrOKQXYBOsQvXdmTbNw3gXZSXAfQV5vGSkmgjC/mR4QWPdWhC2SfOtroA3/Ri9+TVZzNEMdHzjHjQlwQWB6OILMcM1byKx18kmRH/QGyR64yIC76RK73lrEhSJ4U7LlexQlMZ3mPFY//l22sQGAff2B0Fs5WMl4JaElJzB2qjhyCtxDzmmqJbJyChT7mj7KsgnS90MxHK+B8ErmJbSXHC2vTMqdicYk6apJS7ppOQOf1KRFZ/XyvpxjJMk80eAhIZCJ7geymiVvaSjNEthaFZE6J0tNSfK4Uy+3r4wS+rlgLIrDjxZf7skruV82wWPti0DU3C43a4mvxakH3BeWqWwqy5Jdrq11YzG+rca103peC1fSVtq3j3IMPPuhjkUw+5IWfuoIQ8M1zyJS+YAWhgdhCBEjoSE85iUWLPrY4ljzlGOiArHrqyLFDwiZ1xEFM0o3LyPBRNySTOpLIIOBYvmQfKAfI04ZPgWP6ze4rZfzItuxpPLQriD5tEDYRW+3Wqi8CsrSjRxt2FbfK2CbFeiCOB4h8yp/kyaVPwhcJgok8MdBOrgRp51UJCCygXXE1guKIgQ4+WT/aGeeXFfSQRJtkBMVCbIA2+qSxiGUBdfRdrxWQqEOfhDzHxbyPS8n9Tt9t+WPve9wS2DWcAXCi4Ss3KQf4ucEOagq+Ov3fhJYuXNWOOXE//+sEdg3f5vB1tVoElmtkGtLTdTdLJq6jnCWzWmgWVzMsJr8cm+1CK35bja2VeV8NrMRveuwb2aI+7MBKGNIDaYGsQQZFbkQEICHIiMhCQEjoYwwZEAzXg5A+OTokEJMWycqOoHIchyBCgwxJ37yH5ALkRQohNyI/5NTF/kiUhbgNP9jkvVrK0sWOZJFjbPAjXfxrdxBZbIjEkpMUUxyDkvwA5JQEyQnoK1efaecYPfwByrRLTnEirzL1xEus/PJAbFugHPsHale9YmTceDBKf/EKH4wbPxOGL+piG4qVuABtJOp1LB+SJdEX5l79AmEeyGtF66rcF77EtSn8Ja41rGEVUGMdz58vXuGHC88X4Geo/5vIxdLz5BVk667h2xC+rtpJYLl2rgRp/fh4pbbTiO3p2r8StDu+dqGVuJrJLLYWTgdWEkMz3XTb3A4sN36+gAOpgLSIeAkoiuBADiBEyLJDy24dRETy2IodYV/HsT7ERkkTIjly7IB0m0gK8UB8yKkjHmKQnOKhXbuz+EcnJqPII0uZpPjJ1S/0AfUkydEPyrIH5BcQJ/XqN20aO3T03nHaP8f4IXb1D3lkqQdxHIorhuo1VpSxGyf5pIw8u5j8Fi79JTZiph4Z+ZMvyjGoEyjLP+DBCAILqFOfyLHDeEBk9Ru9aSCj+Ig1Xj/Ug3RM9Jtx19yFPyVb9YeN2XuTL3HxDmwU8xrW0DY40fDFlZQDfF1mktCUXJYICK8KrOHbHr6uVmMHNn0tbwXNdGhr1SZy6Wu3kI67VZuLoV12VguLxdesvZW1IH3Jpu0tZqPdSMfRyH+6PuzAUoAIQDK42bPbGBpdGIOxkhyIgEBwaIdQQPYgHyTqIFvIx0HJHjk2BOpEqtQuWZBlQ8SFGLBFH0BM8mRPviA16EOEgPSQEYkjUaaN3WbGQzay4lNKA7sirUDjxfhQPn78eCjrQYCccZS87MdlYohjxIf6LSCbBeqlq5jVH+W0ESPET/FTJxIc20j7QV85iXaS1gUEVr7xR5tk5YOcByIRWZF7gXj4gxOsU2Ti1zQUD/aUU4dN9GZ9zqfLPi+Td1n+6HttE68Q1GXXcCaDeZ2fp3jVLX320KhbiOe+vnZORb0+EFIHJJSqU9aN9H3NeeKXCuZBm6eYwM6Jy47nwQepGVmd95MN2mlTvkKsEeczC75GHk8EVjK6VqcRx92KvcXQDhurjaWOW6toJou9pdhaCRab06w40nUckwq/8Au/cC1GIBkQAb2nGANBEQ9AGVJB0q4nNvSTS8ohPAByIYdAZeplB0BgSPHkpPXiHDl0FZvIDscieopNQI5+IivSSF2aGAJyEmROx/ItuxyrLl3GFpCc9CFd+CMGwFgpiVhLJyanso0d+oAM46Vxpj2d0vXoyiZljbdiVYzU4UPkk7KS9NHhGCheIH3JaZ7pn+wD+SWnXraJSX8RDR2OFTuyPFAwJyTkGDPGAF35Ugzyhe2uzi5v6wh/yGBm6DbrtfofMqjLrOFMhK+ROmlLvqXuazaX/Kaqryw/8jXmzUj5Cg9ypyBU+zkNqeTnsfi5sPBXpFifPPj4eqmXg3BYO1xTkOc85me0MFL/BQNIXfh2Psd+zXD9Wvh1BZeplWym1mnTnmYqtLOmvZo/RFBAzqvq5Db89m2Iy+3hM/zig+ehlWtD0X37uRF+3sxrXd7PeA8fP/xFOjruxvmLY76uc+HPX/kTGj+BRp/4E71uH7v8HBd/yYs/VJH8hbI4MRY89Ce2wlhxTvj5s4B0r+EMgM+L/68/ZDCbvzCsGF3nQFwWsupiLNa+GuD6fDpwuvw8Gmh13s6k+W/mK93GcVwXH4cyrxBwwG4WJID3X2OSEYM6FkNMDGKShp4ICLaURBYhQySOY33IBfqyRRs7ZgJ2ZRukFyQkBxvYVRwA3xwTD5AdEvUkfMXHkCL9XBb6tLEjCGgXNBZAueyob3EfKcse74OyixgDGRJkTH3XzqxIZByrbMcx0E9sIMN4IMOxxo1jyYO4TbpK1JM0NyDOiZFYpac26mMfgP4yR9rJBsgQpxDHRr2OsS0fxMJv0zI/WX4ZL+aKXXNy4o9jyTkZqEJgy/fZ0J1/aYOzH3VnHs/CcNdwxoEJ8uSkbKY6aP/4oQdsZGad1/nclUfthVfttMsvmLF8LXlV5BTwk2CF9fb5W4/Zrff2OeH060K9CbAixdP4E7jFYs62bt1sVz5xi+3aMmmFyiEr1KZ9Tfq54LaCLMTPNdn9ciXnrZvsoWM9dvNtx+ybew7b8Ig/VJWr1r+uZLvP2WDPuuoiu3j7mHVWhz1OHoh97QYCG7zb/Qc67IOfe8QqxS1ur+J2/dzPj9krX7DDdm8+EoLk570g1mUbsPdc95AdHu12OWLiXJm0K5+wyV7wdLdc6LL3fuw+e/h4v83yG7L1n+zCk3cilGMkNW6DHjkhztXG7Yon9NnVT3XyHf7o7RrOGNR8nhbZgU1f50Hc3ghpnaUi1ufa3Awr9bUYVtv+aqHdcbcy76sB+U33ZynxxLIqp/Vze/furXGjZ1eQ3/yEwEEglGKSgDJlcpVjcEwSAQHoU4aEsVtGu4gGOb6RJweySZ3sYQPCgh3FpTKkEPKCfWTlNwZysgFiH/IrPXK1Q7ggaRzHPkmKS3pp37Ih0Eas+INgMdbUKQnYBMQqIksd5A1dHjQg6opD+rF/dDlWjOjRplyxxTFSjz1ijHeB0SHJl+o1BsiTWDc6xj9+RWb5PVl29tM7sEDxCYpPcmonJ/ELBryjzdqRP3IljtHVGiPpgYm/KFXNdVjH7L027AR2w8x1OKx7XsMZi7BMfZ5zPfa1+zrsdb/5VRsvd/uxz2d53J73tD7781+/3Nblj/p8pm+cPr9OOq20xX7vL2+xv73O11rYZVwIrYKckwNIbGepw/p7K/acSwfsR77zIrt0t1mhetwfgHx9EQ8KPPxU83bk5KD9+8f22nVfOGAPHy04aex0esqupvvhDxbkJm3zppI95yn99rrverJduM1JsR3nRAp2oLGf+ZrZz/7OXTZV7HX7EOwO6+sYtb/83RfZcy/e50J+XuDW/5nJ77TvecNn7a6D7EQnD2kduSn78e+5yH71xwbMOgfth3/h4/alPSWbrvq1osYOMr7Uyyx4G+ee28vNjtlP//dz7Zd+YL3b5S90reGMQc3n6AwksNIlb2ZnJT6aYbXsnm60ux+tzPtqQH7j/iw1FsnHemkbeSrY3RMR4VhCEAYBUiDEZQWIjkiH9AF1fDkMH5AKEkSG9z/5qa5jx47N/a19iI/0Y7sQGO1EYg85CBMfMUO2RICQVQw6li1y+YfQAOzgF1uUAX2Wb8gPu4fs+uldS0gZOowViP0BdOPY0zHIhvSoj8dZ8sjRZ2KA8CLPziPjdeTIkbCDS/9FHGWfHFn0SfQXaMzivqZBHOgynuhqtxxIVzICPvHBHOuvcGmulaND0jwpXpKgfquOHB3VyQ9xAcZQZJUYqVfs5MTKWB04cCD8FNjkRPIXyoJ9b3dz7nS+H2s4kxEmy7liv33ks/7wUdlileJ2my1stUrnbvvqPTO2/0Sv39hZX/NrKoHPcfi439dxrtf1tlq142xPOxakWj1V3W7N26dqZ9n+sR32wRur9qY//pLtObTBiSZfLvRYwhasP6CVc3ZsasDe/JfftP/zvqP2wNAum8zvtnJxm/vZ7PlGK3ecZdOFnfbIiY32nk/N2C/+7ufsm3s7PSwnmnVqmKxCJ+QeZqVjp9WKZ7ue2+jos7KT9qRLvmbdZyDyEOMOf6jzOCsd261S8ridoFcL7Eo7eH2g6Odd6NPZVgvtOxf0N50qnmr49lQtDfo4bPDTg3N//tq2hscWuGbGOYivuauB2H7aV7t9Y09pDauPeB21iqw1KMR16XJ8zPym64Q8jdzYtVsWC5KLEOiYpAWTPgYcC5RFoiBbHGMLosMXxiA4kBQILETj8OHDgZyxWyeyJFAWwcamSAvHaSJKHSkGx8SpPopgaUcT6CNxEv4kD5BBlt1EErrUEVNMCBmvtG9Av6lHh7EAHEteSXLkaqNMvJBpYqBMX3kIOHjwoA0NDYVdSXaMmUfZli3GiXhF8ugT+sjGYyzQLl1AWWQWeY1z3G8gOeaXnVLFq1cH0CfFtsnxh91GsQjIIqM+UKYP6jPjpYccIMLLeB86fMgeeujhQGrLvlYCIttrOIMBYfS5P3ikajfcctL5WY9TOdaeX7P8v7GZot34zRFfgNFfiRIWTDF7nf7w6CQwFxI7k+XwETt/5pWU1Ps6rPkDV61is/l1ds/RjfbGt3/OjkytC7tf/FUs/Fbzm+13/+xW+/itnTae32b8cVh2XHO1WaeYZU9+zbOpxGatw0llv919dLu9+S9utYMnNyXrL6Q8mi6XxMhf10rimQl2EgIO/PzL8edl/dx2vWLNH97xh0zoKFaInUMe1mbcVmJHif6TqFc5Rz1/XjdHO3L49+vknN81nMnguhin0wmuw/E1Og21N5NphFgntqMkNOrzozUmjzVkjY/qsvI4ZdWpHjBPWe2kNJrVN0KeGz47e5A3yiRu+pABnIukxAsGxEZVlgw5SYQTgkEZpEkHhIZdO4gOsrxmADGDyLJzxjfXIaciN8jEBAgQMwSNeuRERPHJseIRKMseOX0VuSIBSJrIaSwP8C2f7MxClJARsaOMDCn2I2JFrj4oLvI4qS7uJ2BuSIwZviGKxAHp186sxkx9wI78k+gvCTu0i8wip3EDilExcIxOTEKRZbw1p/iJfRHn5s2bQyJWYmauGT/sEAd2JB+Xdawx4VjjGYM6fBO71hV+iRXgA38Ass/DUujjwqFdwxkBJmVh8hXlWcFuu3PIDh7j61Zcm7yNnUZfF5Vcn11385CdrKxzSe0aOvlihz2QX9aMr6Hwr68XzgfeJfVUdbJZyk2Fj+CLuQkrOJFjrZkTTrfsuV9Dcp12xwNjdvteCCof8UMi++3zt520z9/u1618t3UG0ufnkduz2qR1F09ab+eo5d1mPvytTye1Nb+WevEbe6v2F++9x2bcRhIrMZK8GMB1Al/kVDIGfh7QFECJ/hS8HqrpCH1knHydV/w65nF3509YqTBuXfkp68xPeiw8uEFoAes/Ibclb+8pnLS+4oSncevNjVlXbcKKgXzPe13DowzWvK8TZiRckz2Rh3IGwjqOctBIFjSzlYXY7mqAWPCxmJ9G7dJV+1L6thQsFt/phOZQqRU0il/6rdoRYnnK8TzESe3N7IsDNELhzW9+87X66FcEAeOUufFTD6jnpk+9nJPLOLmcKaHPx98ilNTJtuRjyB+EjHZIGMRM76JigziQo0wdJIVjgD2RFoAvkSrKyGFXUDwkHWODBCnlWDKyIznAsWQhSMQOKUOe2GSXmOI4NY5AtgB12FSdfJPH8nGSf0COPjuO7GrzYIIv2ZQNco0FZRFSxhQyKxl8SwfEfnWMHSXkNUcaG/otOcrMLWOlY3La5U925QNQjz0RXmKUbBrIAa23OR+QgErZiiV/6CiNW3F6j3VV7g2yaziTwLzPp7AGIXfdW+3/vuubyUf5xd76/OvcKNqxo8ftBVdssE3rZ61YYNfSm/knrCNfE4V1dsNXDtlX7+PaAgGlfdYGe0btf/74k+3Vzyzai6/ii0v+QFg9YQcP+0N9reQU0dd/8FG17Zu67blP9euCk7up2gb7k7+7xe4+OOi2/AHWZXyVWrE6ZN959YD96o+fb//tpTttQ/ek7dmz12ZqA85H/RrifckVSnbkwEP2yudfZP1d4x5m1R48VLTrbjhks4VB9+jXK+97Z37UXvXC3bZrcDh0J4TspUpuwN73sQft6Nj6hMB6A8T7aRdv8PidwFdO2uaNHfasp26277hqwK65csD7tsH6+7ps70PjNlvx8XM9HgU2uP9f+cln2auuqtqLrui1F13ZZy965qBd8aQe2zzAwyCRrOHMgM+E/89aqPg6SX6F4CI/P1iiC6/NaTSqXy4aXX8b1T8eEfe1XeO7EjvtnOPFbKk9Sy5dF8vGqRkaycX1pPAObLhJOIGAbPKxL4mdMsiGlCAPtEOSIAWqFyAO2NGkkiOLXZEKtck5iXaSiIxscEwMvH+KX+rYnWVXlndn2WmEVELQRFZEgsiJUYSJ2AHEB1Ick1qB49g/UFzYEenCX7xjmU7IsMO4cePGud1R6iG0JBFE6vApvySATx0rUSegB6iXP2ICyDHmeh+VMmSWXUdez2DseCAgDsWPjmzST5FExacxFhSTytIF6OGTHLvoyRcJII8eZF+vGpD04CL9WFb9V1xKQLEAynFMmquwPvwqXyp1OrnhNYrkS2H8YYM1nNlI5jdn+w512O33+jlU67RyhXMoqQ/zWCv4Ouuyz9w8HMidVZl/5tbXgv87v0KBH4Ul4/TNbXcXJuyaZ6+zVz+vZK+5umSvfXGfvfkXrrbtm/nyksuyBoN4yYZOQBeTn/A6dLxsX7/HrynmD6wuwEf7NY/ryif022+8/il21UUTdvnOIfv5H7zI/sd3nWtduQm34evY12EtX7KjI2Z7j7hixhfKVgRf07XZE05e19t3Pq/PvvvqHs877bs8XXFRp+Wr/mDtveCLaOSdnWV73pWbve9dLtdtr3luj73meQP2pHPZ9U0I7Boe24ivkacTuh4/HhHff9rZR9ldDPIbp1Yh2bR+nJaLWLdRuRm415PiONJ5jEBgpRBPCkQGUgGJhGhA4JCDiNAOqYRwQHpEwqRPLpuQBxJ1qldZSTokdAA2SQAfxMJ7sySIjPzxugHEjHdA9fNK8h0DHfokUk0/RK7wI3IkyL/qsIcM4yAbtIkkkcc65ABZCC1EnD4A2RQxxhYgdgF/6T4IcT36kHLFIv/YxB/kkDEjDuLkHVAeAHjdgFcNeCjQnBKP+ok8SeOCrshgHKdiF9CnjoQ9kmyghy/KJIAcfrTOSHp4In501SdsUcZHPAbxcVwPOEZH8QN8IhZ+T3MNZyDmz0OfJT95u+yzNx+wg0M+l/mOZEdWbT6R/LRUodBjn7912Mq1jV5ffxfWCWNsKQYEjtnP5/hVgTF3edLJ3UnLlYesp2vGzyvO30QoLFX/p6vD1zqvLVjRjp+o2AnnpPnwcOzruerrvjJpr3rhE21zaa8VqqNOD09ad+1h+96XX2S9hRHjJ6/yNQzmPc4u23uAd+EXnj8rBkPi1DNXHfe+HDObPeqk9rDlZg9ZoXLSzz+/VvBbtuEdWb9O1TgfRy1XOeLxH/N03PKuV2As1sjrGtqA9DW5VegecSZC9xzdy9oV63LHaikg1uX6Ub9jqC6uT8u0gmY6jdry3NQhQOzUUYYESZicmz83fAhFvLOoNnKIBe2QDemJmEBY4ro4V4qhhSA5JeqJDUBEITmQaO2uQmAhZSJnfIQOQY3tAU2eiKgIErL0XwSLesUQQ/r4FSEmKUb0RSiRi/0yThA0CCVjyTE+8U87dqRDkg21U8aP2jQ2qlMSkCExbtjGJ75Fmhkzdmb3798fcv2FK2zgk4Sc5ldjjU3iFiEVFBd5OiZ0saPxlq7WG/LIEJsenCjjl0QZWc2P/AH1UymuE1SO9ReCuqz6NZxWzM1NMh/QyOOTefvIZ++y2fwG4wtM/OEAvnzER+3stNZy/kCVr9hDh2ftvgedjFqvJ8hm9u4mqwZqm8tVbapSs4MnuuzhY3328PEe23d8wN5//V57+AjvwOaMvw3Aq6j52qQ98QK+5e/r3Uno6KifJ15fdX0sYrO7o2Y7zurz0nT9tQJSxXo7Z22gl3dgfZ17//jZo2KxZKPjvBPrmvV1vFL4ivd4K56wR9+5dqnMHzUoeJuPqY8XO8Zo+Gh6YjQ6Pa6kz0HeyXb4TdhwvIbHGuJr72qgkd1m9XFaw+mHxr1d49/KXLYiIyxFTikPsYEcQB4gFhATkRMSN/vYMGVICOQRMkSOPnIQFMoiYrIhIIMPARmRiRCMkxiQ9ikZAf/4IE7iJgZINaQHG+zEsisLkYWY6We68I3d2C/AHnZicoU8hAm5OC4Q66tdNoiLMkRJ44hNEvWxDYiZ4hZBi8cMeZLGQrrYosx4A/zHSX0EyCle6Yso4htCjR36qy/NaUebPuALSJd4kMcGvgDxIkuKfQPFo7L6JH3spscK4IPxgXTrYUUxyJ58xf7ifoK0DvaxHevMY15vDY8ekllgHfjDnROyvQcLdu/DPq/5dZar+sOYk8gt62btWU/qta7aCa/zB6NqzUane+z9n73XJm2D6yZrszG4FhVtZGqbvf53brcf+I29nvbZ9//anfaWv99vI5MDgdoFslmbtZ2bavbcp7jN2WFX5VMXzqtgxUkq//rDXrFsXT2sKz8PnSSGXweouBW3EX6RKnilAAHP+0MzPa2vw6zluERgohC++OV2tUsd1jkE1sez7sNprv/LNcb74OdHQmK9H4zZXBxtCGgNa0ghfX2O0aj+TEUcb/b9ZHloZou25fiSznLjbNVvllyzeYUDxBwBxGtkMZ9zrxBAKiBfIrQAYsHOLF+iEqlKA3kIhsgQpAOgy8fTEBV21EQa8AVREwlLB6hjdSDuDJANQExxO32A6PAOL7Hgmzh4zQAiy7fP+QiduIghDeyiQ8IWdtmZhRBDsNJxKKlexxpH9Zt2YoUkyo70GAeSCCU73MSOf2SJX3GRo0eOrmIElPFFG2XFwnEM6oDmAOCbhF/Gjnp2Y9mZZUebB4A4biDb+FR/8Uu8jFl6bqQnGyTFjC45MaGPL8WGD60hEu20Ua8kWflqhHzeYy4kY5gty1gtXI9rOJ1gTiBTnlNkp7VWsC9+ddjGZko+Ncl8z1TKdun5FfuR773MijbqBBKq6BQsX7JPfOEh23/U5zAQOX4WKj2jSQ2UE1vlSocdGy7akaEuOzTUbcdHu22q2uO2Cr5WErK5Y8OovfVNL7ZtG3iP1a8bEFZC9MSOKn/ulfVU8LVVKCbnpsCyD9eT+DSsJetvZjb7mrp8xD0NA5gU60iO/NwLOSXIq6eFYqF/JEht2sYa1rAa0DlDrnSmIh1ffD9pR+xZ+rpnLget6LVqOysO1cUpRvo4C1k6pMXGMhBYIAUSRAJCARmFEFIGEBNImEhEDBxxQ+BiDaHVl8E4Rha72CGJjGmylWQnjoWELGSHnGP0iUGyIJanHhl9FE0cIpOQcf1+KmQWchr3R7FgB38QOwgWZUgZ5IpEGZ04BpXJ1T+ORfDU75iogVgfuxwTL783KyJOGwmf2KAvyGGLeoE62uPxEqFVHynLloCs4sQ2O5/MP/bZkX3kkUcCodUDAGsh1geyQbyKjX6SNF7IkATFQo6e9KlDh6Q+kktetoF0iBsgQzoV8pWUEzB2Gr/mJ8saTgMCmyIxPyWbnO6zT950xGrF/rBHGFpqZbv6sn674sK8nb/drJjzNQK5dZY4NNFjX79n2Pjpq/jnsxaC9eEtvhbYnayGVw14b5YHd/SoY/PU14sXzj93l23dPOAVUyi5DDjVLmsuz3sFGch63zpYoJ71OrceVxu+/uulpEwv6imMfTJmC+XW8O2E7Gvn6iK+Zqscpyy0ItMOJNeJJFc5RlzXjljiPrXDXhqN7LXiR2OArPhFnIRGdcrTPCBGrBfrg/RxsKAJkCKEByhQiAEJQqPdWcgXu7MkkS4IimwgD7FARzu06KrTEA5IGjIiWCDdKQ2YbANsi8yoDhkNisibdJHHN/4ghCT8QmYhZ+zM6r1Z+qIYZRt7JGKWbfxD5knoSA5IT1DsxCGiJZsieHowUD+Qp4wMsUIoiZvxxB8EUr8ogD3Jx1Ac5NiRHAkfpBiSx47k0GHc8Es9v2ig94wZO8gs48h4aE5km75qzBgDrRly+RCplT/p41fxIkM/0aVO9gTGTb5FZgXq5sF6oA5/9aoFYPwWjuEaTjd8/MM65gGG3349Yffs5b3OrkCtcrWKre92Anv5Wba5+4g99eL+8CWshCD6edaxyb741Ues3LHZhRvNZrIOQqnq53vYVZ32NcEvD0x7HT/u77a8nV+s+OIt99lb/uQDNjLZ73L1a+PcP/NgTfP7sjG0fsMubX3NeSnkC9dmc2RLxrWt2EqPBsee5h4a0u1rWMPpRaNzgvp0Ol3AV/re+mhjsXFYrD0Li/Uxy1Yr/sUHVG6ksxiy9PLc+GPEZAKIaOiYdpFBSI2IDQQDIgG54oKNvAZENtnN5b1ZvTtLfSwDOQHUkYgNWzomQV6wJR8xqJOO2rGJHuAYfQgOcRMHu7PEAiBj2m2EoMXkXIk4RQYZA5El+o4846AxlQ4gBvWFOvSxBeFS4lhkVsRYOtLDH3FrdxY7InAgHlN0geKIk+qVo0O/8Ckb1FNWrj7rIUbvGvN6BjvaEGrGgFikJ13ijsml+qn5ApInAfQ0XzwE0V+9E6uHEOJEDhvYZPzpg+ZI/QDspoXXCFxeY+RePCXtazhz4GeL1Tr77DM37XPit95rfN3U/PzNzdjTnrzVtm/rtEr5iF3+lO2Wrw47iXXSyblSzdntdx6zg8O9Vqmycz+/zufn2dcE8+7LrrtUtd07SnbBrqqnsp2/s2ob10+4N37I388/J3czpS322dum7aM3+YOX8b6/W+KfsISwmdhlDVbKgWaHY+WsNV+aQTyQVz+mJXl8lOypIO7wBxso19NCqMbz8MpE/EAaayS5n1lzNQncfr00j1hvDWc+kntDjPga+mhgJb7pS7o/q40sf6sRw2rOieZcaTlopKd6xoR7J2k1kRVHo9gCgeWmLzKRJhRp0AnayWknidCKULDDliYn6jTHJI4hjhARCAmEUmRFOfYoI4sf6UFURO6U8IVvJSGrD8grfuzhh/j5qSsIEm0QMXYatTurP6YQ61KWDREmysSGPnEiIyiu2IaSbGgsKSPDWKqv0gfo4A95dreJGx3k8BvbjvWA4gaxHProCrFM7J9jjRsxkBgbXi+A/ENmGTu9asDcxHok6WETnyTNoUCZJP+sCdYMfSXXutGaQY4caO3N1eO34MSVz4YFivgLOcn7GzWv4TQjjL2fLz4NuVyXTUytty9/aybsrvrKDl9FmvF57d680b58T85uurPXpmrbregN/GGCcr5sUy6793jOrr95v1WsK5nTQOz8GlL/D1n+mlahVrUtPcftXf/7MvvAH+y2D7/1Anv/W8+3f7j2CXbJ9mNOlitWJBaWSMegfezGYzZb3eBhFnzdJdczfmmgmuOVGY+wXLCpcdZr4o9v8vNLCPxqAn+ni18H4AtdvjDddt66OiHlyUN76LefJqXw6YDbCG/1ArVDNut98T7lfR2HX0igNsToNxfawiAqce3xVB8D1woDlWcX2RP9qLl9fkeXOP3x2G3xgJl4XsMZBhaiT3aeCa9D10tdK+O0EnDNbIZG9tFTiqHjrDZBNhu1L4bl6oF43OK+pY+boVW5diCOayX9FlrpZzv8LBeNYgt/ShYiQoIoiXzGH/NmKcd1lCUrkiESBpGAzOljZupEXiAYIkLEITKLPnLYRI527Ir4EJ/8AvzSpnI80DF5Uo4s9pULlGmHIEEK2Z0lHmLXz02x48hOo+zGkG2Rb2KNx5QyfZZsnMegXxonETTqIIPY0twodmxiB1nGjrgZT9qJMx4n+Rdokz7+YpIu0Ea/FCvtSsiR0CVO/EJGeR2DXzSAzPLageY/totN9EiUsccYxWSWeiDf8kVfWS/sRjNXzBNrjhiQjeWVuKcXnO2EuGMiG4D8qXOxhtMNSJ/PQ6HXvvKtQ/bQcJ/zOn7eKVlr/rhsn7j+m/Yzb/6Svf7aW+3N7/iiTU6vt1LVz91AwvycyA/ahz/+DZsoD7q9+fOb+eW/PKTSXbAC8rWyddZGrCN31MnqYestHrFLdubsmZcOers/0LtPfxTyVLBHDk7Y5IwTViek69f3uiVHwaPL+/mT94femaodG5oIfpJv+ft1ytfh2Hjexqd5BYKf5XKaWeR924pt3NDpJxPkkfe4/VrkXZ+t1h9WnWxOTxds5GT9Z9/ou2d+xti0P2OOzqCWENawvimHNa/zm3KI8BSodv4MyJKbb13DGpaL+Dq8GOLr9pmAVmJeKtTHOAkqZ9UBycd1rSCto37F9YvZTNtYDSzHR57OSFFEVmQRIiEymyZfpEYTTD0JGxANSA02ISWQWWxClBQsObKyh7xIJKRE5IZ2PrYmF9mM4yBHTnECdCUn2TgREzLYky5ysS6EUL8OwDhAyNhphNRC0ugPtmJgjzr6LYKOLfRJMVFM6wLFIGAPG5A32cEGOSDWuK/IM3aMI3pqJx5s0B4TR8YBPWKRHaA8jjOui+XQow67EErGDPCTXBBZEr9uwM4sa0vzhC7xxLFhBxnWXkx88SGgr37iTzvRJK1hZEIiVj8uzybjz7uK/AD+Gs4ghLWUEM6pcpe9/+O321Rtvdf7w26Yf1+bOeZ10CZq22w8v9smc9stVxq0HOvXZXzG3USnPXSoYvce6PY5hywmazQBJBiC6NcK91fLd1iZP02b67VKfr3N5DzVem3USSeEEzk8V1gvziD9EYsj2zzgaxz+WZ62WnnW43Jpt/Oxz99lwzM7XafH4+hx22fb9TcfsLHpbq/zdYxPt5WzCdu2mR1Yvhg2axvWF5KeE2p9d3S21m2f+NweG5nd5Xr8Bq3bs812w1eP2+GTPX7xxk7Vfft54S07znIfVT5B8YjDeAVjntbw7Yb4upxOpxuPlt/VxlL61Ew2Hp84zyrHyKprhrS87qlC3C6fcYqRPl5NNPJNHn6FABIg6JgEmYh3AEU+IRVAZCJ2EJfRgTwghy2InOxhH1sis8iiS4oHFj0RFHS1swmwIVsiKvJJni6TQFwmNnxiB1kQtwOVIYKQWF41YOcPXZEzXjVgd5YxgnAJ6Mqu4iXRB+rpP4RKPjQGiju2Rb1siBRzDNFjDEWKSbKDHxJjp51xjjV3HGOPduLAHn4VT1xOA/sx1E/kKYt44oN4qYPAQvx5LQPyz85s3H9yxY0e8dCOHGOl8cCWZEn0Bx+QV+YIMkt/408D0Cn5mCGX6CU7WGs4k+Br3oni3sNlu/UOP3QSGGYovOPp683/r7J9yh8U4KN2fuoqXwzN1PLHCSCJ49U+u+n2act3dFnVzw9fLFgJ4I8L1MIfP8g5Qe6zG++csS/dWbKb7uzxcq/9+yeO2advGXaV5DrDbj22+/t9jRXL4VcPzhrI2ZPP483chEBCJKv5Lrvx9mH703c9bHcd2mx3H95m7/zwQfs/777Dpp0UJ7+5yvVtxvp7q7ZrG/bZsXXyubXbnuD2ink/F8K6dDgh/vSX9tvfv/+o3fHIoN17ZJP95+dO2h//3ddsvLIp9BUgXayO2JMv8Gj4pYS5NU3UdVsLQP0aHq/QdVn5owX55zqt6/tSkVynF6Z2I7bbin3JxH2KbTSD5FqRbYbl6sd6WTbaEdtS0cyn6tPtc/V79+6tiRjqxi5o4VGnJGIi0gExUAJp/Ri0pSddPrAb24xJFqANAgMhAehSR4K4qS5NHgXaYnscx4DkYF86ao9tECP1JMpAdrVbqJ1F7CnF4xPbo4w+ucgeib5Tj47kOc5C3C4byolLtihTJ3mONZfErZ1tSDHQXCAjPSXVCZTVD8WJHRJ2NVZqxzf2NVeS5SGFNiXZAowrDwjUQVCR1xrBbhyPdKmjb3pI4kfleV9xc89hm3jwH2yw/HEPqq4UI3uo17Dq8MmozljFids/Xzdpv//OgzZe2MmH5j6XPilO/HK1yST3+c2Fvw7g57SrMY21XJ/PnR/T5jKX7irau3/3LOvrGnUivNHe8te32998fJ3V+Kze26Gf/EnZnuK4k1L364SV90Fny74+831uw4+dKLOvW8yN22tfudXe8j8GPMYjVi132cdunbVfecdDNlkb9DXHviznjZ9DTnAHesfCb8lOzHTa5GwpvLYQYgOVY/adz+u333vDTuu0Q05avcrj+/CNo/brf/aQU9otVvO1Wqv5A6UH2Fmbst5urjvl8ArDZLnHKpwj4c/A5q1QnbCrn5qzd/zKudZfGsKBR8y41H0G8l+1933O7Nf/4gGbLZ3NqRA+hdix/qC9+x2vsd09X3NZfms3jGSQT3JOhrUT4syBz4X/P1E833ou/ik/P66xQpizhYivnWnE10pdJ7PQqB40axN03c+C9BVnOqZGWGlMrWAxO0uJOa5Py6T90N6uPgDZa+a3kUwM7qdAMu2IMbbVyHdWfbqu8FM/9VPXcnPX7qqIBeQAkONERAEDlNm1EykTEUKXdiV1XB1WvSAZJXzJJrZIAH2SiCCy6FLW7iE59YpRkA+RLuWxHDnkHZJEOdZHDn0Qt6lMki1sEAeJ8cAeid1Dxli6sqe+Uk+ZHF1iTH90Tpv0BPklKU6Sxonxwz9tsgOQkTxjjk9sQArRi+1qvOQjthOXBclB3LHPuqJObcrjWOknYwTZ1S4rCTnpYJN3j2nnFQTsEhsJG7IH0FGstNEv+sgXZ2a4c88csdrot6yneh/CnlCK0hoeRVQtX9xhf/6vd9jdR9b7/FWsUKsEMviU83P2qz92nr36mWV72TMH7Jqruu1lV/XaS6/stYu3Tts39oz5/HUG8uaPwDY0Om2XXtxvu87y9ebr4ItfPWS33cd5xju1fu45sWMJz1Y7rFzt9tRp5VrypSxQcMJYYz34uuotHrdf+4mLbfu64x6iXyfyFdt1zlm258677f6jvW7DvfpaKvAqgetNz/TajBPXasUfIDGBQSca07Vpu2jbiL35p59iZ/ce9jq+3uXnYmXWzjlnh915512273BneEcXebhJzm2Pl7uduHY56XQy7GNU9MD9kdV9FmzXZrf3hqfbOU5G+YMJtIRlPLeWveB27tpXs0/dOuxjOeD98nPHCe66zkn73pc9wTZ0HHAxCG9dJZBXEAJJims4M+CLopLbZMWNT7dq4cLkEub/xKlVLEV2Kci6N6SR5Xu14lkKmsUQt1FWEuLjdH0akk3LNUpLRTO9uC3OuYfGbfE9FbQyr2lINwuN2lqtL7zxjW+8VoQLcgCREPGCdEGC6AREIe4cxwBd6gNB8JsE9fFOJLIxKdIApANRPbaQjxNxYE86sgdURw4ZE4lEhjrFrFyyyqlHh1hFmIFkFDcgV1n9B9QhF8tCmiDW7BYyppAvkbSYmCou6QNi17iSkBehBfKhHBnpKqdN5BR7yNA/4sZOHD862Id0Is94kNDHDvoaT0Aex8sx9oHsslMuAi156SOjY+kqVtogp/oFA2xIn/UJkOOYsUSWxDEJyK7K1BN/V1en9fSus1Jt2Mojt1t39V4EgtwazgAwVz4dd+7fYH/9nnt5SzT5OJ3fgJ0+aT/88m32Q9f02RPPydslu/rsknO7PO+2C3eU7MKd/faRzx+00ZkuqxT8esZN3olXd27cXnjVVisWcvb5rxy2W+/vdje8e+rXkEAr3SHELaGR9TrynJWLvi6dLK7PHbBf+JEn2Yufxi8hjHlL8p5pMTdrT3vqLrv9rvtsaHjCSWeXt9AH/Lum2yWFd1pZZ5UZO7v7gP3vX3ymPemcUevIT3u7r9X6fx25ij3tybvtjrv3uj3avN+BbJes7AS+gj0GCGnslWdssOth++2fvcquuGDGSsXJEBdnAVLJv6SiZ1W7Yy8EdsTHZwAxt513Ajtm3/+yi21Dcb/LrBHYMx5hcmu+HgatuOlKzyGwmqulQ9fJLDRrWymwrRRjMZ+N9MBiustFM59pSCaWbUV3KTKLyYFmMlltjeym63W8lJRGszawlPrCz/3cz10bCuEGn/yUlUgOxADSQIJMAJEo5GLiJOJCPWRE5Id6SIyICEAvDgYbHKsufYw8diAu1BEDCTnaZC/Wpw4SqY+aiQtQljx12EGG+AD1tAPFEYO6LKhe8rIPiB1Chx/qGFeRWsrEgLz6F/uUHfUBP8SqeQDYV8zKZSOOV32P+4cd9V3xKgbkNYa0SVdysS3NP8AurwOwbhRbenziuKjjWEl9JTbGR7Y5pp1jdBQL6wsyq4cvEMc5B+w7OenKn7TZE7dZZ8UJ7BrOILCn2Gn/9F9325e/MWV8s79WHXXuNWU9tSF7ww9dbLsGj/v9e9Tn0q9H1XHXmbBCfsrXW5d9/e5J27f/mFWq01arjFu+4g9AY0ft1S/abaWOqt30tX12272Tlq+RJjy5DPrk9VTwequOWWdhytfJcbv4rHH72R96on3PizZbT+6orx/WHqGyfivW22121RUXWnXypB07esimZ5zIVmfd7oyT3RnLu62ijVh/16hdfWnefvsNz7QrLqo5WT0R1mN4tUDwdd3fk7dnPPU8j33Mjh07YDPTY26Dd3jLnk9ZwcejI3fS1neP2gueir1n2zMu8TWdG7Yav4bgERJZ/So0VwJ3PDhln/3ScS/5A2Rl1OObsnUdJ+37XnGRDXSwG+yxzInr/FxoYw1nAvyemhu0DiewleKF4Xi50PW43WjFbixDuR2xtLs/jexlxZt1rDruR+ljENctB9JPp6VC8QgrsZUF2VnMXqP2hvX333//HJNACIKgXHUQEYgBu3KQXOoo02l27QCkQ5A+7eQx2dJH6ZALESr5jCEbJBEsfAK1icjJvnYNdYyckoAOfSEhxzGxQB4B5EjxyA91yIhIKS5BZflRO18kwj4kjDYRKtkiBnY+GRPGgdiJg11bkTiND/KUsaMYyRUT9RpPIY4nzlUvaDyA4pAvgWP5Zdy0JhSD4pCdTZs2hZ/Son/oohf7j+NWO3Ucx36ph/wzFpBUtcmG1obmHf+0Ic846n3ZKmuCGPK+hsv32siev7X+6Y+65vw8ruHRRs5myp32p/98ux062WeztZLxhSt+amrbwKT99A9dZYNdx5zU8h6sn685n3tvDysi32tf+GrBPvDpe7xpnc8q54GvgcKEve57d9m5O9fbB6+/066/jZZT51x1fLGvWq3Y5k2DdsWTdtpVl22w/s4hK1R4t9TXvzvzq4KXucb4MXu0flgo7bI791XtEzfeb9+874idGIEkF6ynlLMLzt1kz3/uE+2KCwtWsiNWzPMbWOhWnJB6nOHLWFj1cy7v1wjWdOc2e/BIh33ihvvsW3cfs6PDM1au1GxgfYedt3uDPf/qJ9nlu2esVBkO7++GWPw84t1eX+Wh99ikZ34YcPMd0/Yfn9jvchuMP9DAXxlbVxqxN/zos2xL18PGLzwkxJxETOTYSM65NZwBCFPiD/aFC637kv/Xpksv98sam0NJcyvQdRhwrYyP02jU1kwnBnKtyi4VK41tuYjvTwB/cV26HXCPawbF3GrsaZ+NgAxJ91vAcayftpM+Pl1o5LdZPIHAIpDuIKCTEAGOKZMgCciSMykQLu3QQW5BvJOIDvLI6hiIPArok+KJlk9IEDYhKaqPY1RZH7PLN/Lk2I37J1AH4YFAYkfy8isdysrVLqhv5LQB6UNg2RWUPO3Slyw5fYMQEjs5dcSln8DS+6QaQyAfHJPwz7H6L3lBcjE4Rgdf5PRfNmRbPhlDwDFtgJw5JGcMSdgiFvoO4RQ5l3xaXzGpDsRxUs9uLjn2NCfxWpGuxoCkMrYYP8ayx9dnsdRrpfIeG7nnb6x/6iM4C7prOAMQ5iIfdmETCsaNmV9h5b1WvrjFe5vMq6+BKl82hMDyE1asbT93K+jyOhC2/OHGzXU6wSywW4tsocumKl1WyPkDpde4UPgX+BlULyW1vLlQqVTDH0molZM/phD+AIK3sdr0RwQApLfIpczXI69YT+dKNjPrMVWL1uX67OZabtxj9vPN4wT8JBfxFWzW46POLfsxUeT5B9MktzXtMVecXJadM3cUvIcdvDJzwjXQ8XFwufDj9oHUT4W4/KgOIqaN93m7rFzr9CPOET6hgLazATAVSLVfzV1WjhUEluatreFRRpiSakJgn/AzNt3xcq+Yv4+2Al0vAdfH+DiNRm3NdARkGsllXfeXipXEtlRonOJ7E0jXZZWR0X10sdhkjzwurwSxDcVEzj1S91BB7Y8mFG8cayPk7rvvvtCzrEGSESXV0XGOIToQCQgCu4wimOQQL3ZEaY9toEN7TDZUDxmijI70kIMUiSTHOuQCx4A6dLCnCZJNtceTJlskdPSxN/XyJzkRPfkClGMZ2cIHhB7SFUPxqKychD6JccCXCDnAFkRXeTw+QH4Vi2IFsq8xEKSPLGXNH2VAm1Ica9oXiGPn1QhsxmMO1BfFnAVk5V+ADGNPDwPxWCku1hq+Fa8gn7QVi3lbv2GzDZb22+Tef7IN09e5DcYxiDiIk4P5fq3hdIJx93mdI0yaB9ZRszlJ5i2ZuYVrB/hKrZfUnr3+sjQbIR1N4h0QP62SmG9J20skiCiup5ysbZ0HScxIS46aefsLoXphXodyYgswBpST4+TftG7scw1nBJgSf8KZcgLbdfHP2FTxZeELhSsBa60RGrU10xGWY3cpyLLRLrvpe5DQqB7Mna8pfd2jmkE6cfzL7Us6xrTddDvIqmsX5D8dhxC3p7FYXIsSWCAj5JADOYOg6KePjh/n3aqEOEEaIBR89EuOLMQLOZEkgC3aZB9gm4QdHeMHOyIuMdK6MZCHuJCzEyhfHKtdZemSI0Ns9AM9bAARb5GiGNIjJ176i552VAH1tMsnoE56SpIXFAcETq9sYIOPx2MyG9sRVEcsjCl6yJMo04Zt7MgGkA3VIY8NYqGNcUBHMtRhLx4b+WUMyCUHMdfcS0656pQDCCwxYkcy0kkjXl/IKN6gw/5cV58VJu+y4vH/si3VT3rM9AFf2COpvIZHB1ljP78W2oNW53c5fmU7JohKK1lXse5y4oqBLZLiAiuNbw2nBWHa5l8hOJMJbDNw/V8psmJYaVyNEN+PYjSqB2ojV5n4KC8WJ+2tyqYR+2sE2V1MrlXEcca24zqhmV/VZ+llIRBYCachkpF2LkAW+FF/fRkJOUiMFic58sjFCTIKIEDIo5cOmBzykSayIE22YqT7ItvkxKOYSJRF6MhJqkdexyTIE/FAxOgDJIwc0C6Chg76kMuYuJEkq+M4AcUjn9QrB/iHzPF7qBoXdCC1EGaSYoptqiy71MV2sYUuUF0MYkqDWLBDApJR/LJDLn+MBUnzKv04JukLlPmjEawvSCzHcX9URk82qOOYJP+gWi3bxi3bbGboa5Y78l7bxO/AGuSf2PFJwt7CNbSGNSwNWj86l5SvZF21w4YQ24hjXFv3ZzyYohW+A5tGfL1No1FbM53lQjaVc+1ezE+6fTXiArrPCOljsJiM+qP6VvsmvbR8IzvUqy0LsV4zuaUAO+l4l2o71mtVv/DzP//z4VcIhFiRMiQAKAcqQ0T5aJ+PySElQLoQKYghxAg7EBa9E4msEoSG9phEAuzQBrCBH9ogIyJBIiZxbABdJfVBceEnTtTHcUgPkKNLPaRZKSau0qGOJH3GRiRT9gDl2I/aYpm4nbJALPgnVr0bCyDTPETwpSnGl3bpo6PxkQ+OFStlkUn1hzrpk1QfxyLdeN6wE8shE7drTZBrLGM/JOkjLzD/WjdA9gA6lIk/bUNJPkFnV4/ly8csN35n+B3YHN+8XoD5eVjDGpYOnSPxOmrHmmrnusSW0hoec+D96fzG5FcInMj6o7lfx5Km0wWus+1GfP3W8aMFxaIY4ljScXHMPUjySjF0HNfHcml5kG7XuAhqz0qNELc1k2sFWf5asU8/0rqN8sWQe+CBB9ze/M0+hhwJlCEKmix2GSEV/GangI7aY3scQyKoQycmoJA9yJhkRHQgRNgS0UkDfezIDzLIi6w0g/omHcUje+ontsg5pp4yQE9yItQxCaZP8Uflqhcox8fYRQbEsvLBscigiCLHgDb5J2e3kpzYIX+MLWNITIpfPqRDO6CsOJCN/caxAOXUxcBGbEdjiHysQztJ8vRL8dAuX6wz/mSvdIBscazYSKpTDmhHN7yX3dVrXZX7rHLwPTY4/RFag0wC5Ikv0VvDGlpHsq4hE/PrSHUrxdqaXEMdXNNyFZsoXGw9T3iDTXdc45VL+xJXGrpOZmG5be2CfCzmq9VYGsnF940Y6WOQlm0mo3KraNYP2mKblLm3LQbJLiWOVtGKTfkHule3C+FPyVIQaYgDUqeVx4FAhgYHB8PftEc3JhFCbEu6kCHKGnhIHrtrgDYRWexDfERekY/tKSaBYwgQdcQT68WDJj2SymqL60SgREoVt0ij4k/rEgN9IkEeiUVtKguyAeL6OAbpkrCnuNQmeUFtgBhEdkl6J1m72fQFGfK4X9glViXJKpe92H98LMR2aJcPIDtA8QLGm5iVsEHMPCRJXpA/cvknlxzHkuHb610Q+VKPFacfNjvyIRuYfLfl/WYQJBR6zQvhp4TWsIblgvWjBbWGNbQLvq5YVvmaTXU8w7ou/DnPr/JHcD7pW3jNSl8rm6GZ7HLb2g18ZflbagxZ8rpHpJFVH99TshC34auZbDM06ldcTznmEI2w1BjSfVgMafscSy9ta6mxLIZAYEVaIBKQDYHjuAPxYPGzRJDEoSF+HzEJVME16jTtIjFxR5DHNv4gLZAYjvmCGGWIF23oQmbISYpVuoL8oysCRiJeciAZ8jhu2tUGVMa+4lIs6Mleuj8g7g91HCOPbOwj1gVqR55cx4yH3jWO9QXVkccJn3ofF8KKvh4ORGpJHCMj+/FYoEeZNhJtjIHqlAPiFiSvOnL5kA3pkcf2GDu+uIY8DzmS0zjGZXK1ows4li1Sn6/ZYle32dSQlUZvsq4Tf2sd5aNoIB10ap457Q7lNaxhDWt49JBck5LrUx1eVeEn5DZ9jxV2/bhN5XZYwZL7S4z0cTMsJtusfSl+VgL8ZPlaqn/kdZ9ohHR7fNxIt5nNVnw2QrP+pe2mfTTzu5R4msWQhuySS28pvpaK3PHjx2uQE0gCZE+OIRaQAu2exZ2gDTKld1rjoFWOCUVWO6CMnPxxTBkipd1Lft1AetSzQ4usPpamjmOgOCWvMj7oH8cAeXTTcsqzoHaSYlYfKYuMCdSrDTlAfxQHOTqKAxnJAeplXzl9h9DRJmALyBcg11yqnoQd/ALIIccQWMitdmY1vopLUDzygX3AMXK0x3FlQfHIjsaCY3wyl4Bj+abMOmMHVn4EdJVi6Fj+gkyVH4HvN37Yszo7Y52zD1rtyLusf+YGl+SH5dFx2Zz3J3wMvIY1rGENjyZ0/U2ucbomTuXPt67dP2k2cI1N89u9Nb9ehpZ5pK+JzbCY7FJsNcJKbaDfzEajNo2Z0Iqc7hkqp20IjerbjTjmOK4YzWKhLa3HcawTyzTDYjLYie2uNnKjo6M1SAIgOIgJpJQkUkJAIl8AsgPR0XuJMRR8esBAukxCjiRflKnnm+eQLHYcqcMPRFvECeKFHEQXMgv0+oEIkOzH4Bgb2AboigyDWB79GGl7KuNPdskhY7FNQXEBxlIkMrYjEix72KAecolu+oEBIBuXQWyXXEn1JGzzKxL8qgF2qQPsrjOu+KQfxEQbPkiSo4w94iSpPYsAZ0F2yGVHOiKzjBPkNf6DELKNH3J0SYLkBI6pGuzf4NTUiXPFH5L4m/ajX7Geo39rndUD3hknsfgO7hfqr2ENa1jD6QcXI65Fuh75vaC2zmpnfbcVzv5+m62d6yLeluOqthDpa2AzLCa7FFvNsFI7sb7Ki9lM34Oy5GMZyqRYLt1OW1y3mkjHkXW8WCytxCqZ2H4WFmvHTpa/ZvZpW8xuI+ScHMwRWBlSDsFSimUgj9TxzXfVQSrQUR4HRDtQnY7lRzqqgzRBYLEPaVU9MiJHEBvIrcgMiS/7cCzSBQmK7ZOQkz36RB15I/KZ1uG4GWjHFjZJ6GBTZEs2NJ6yR86YZtmnHkJJG/3GhmxnyatOPhSPoHZiYsxOnDgRjmU/9oMMvplzxlPEEqg/AB18kCjjkzEkqe9pKI44l67qiIMdYgg2ttPzohhVRgZ96tSHYKuWswEn67mqj3PZ13OtbN2FGesZep9Vj3/cOvOH3aqPv/+bS78D6zbcSFIOAhTUn5TstwMYD6AxWRTInyqrOcwCppOmui7z6HPXQDygmb2GaMFugiXaXSpkPnNM642ZMlFccYhBJG0LgSz7oFlbG7HU+VkMmeP1WEODsY+rcnmr1LotN/B8y5//Opup7XI6y1+oc1JbJ7DVZY6FrrVZaNbWTsTn7mI+aU/LxPrNsJic7i8gS65VPwKy6Viz6poh9hnrtRqH5Jr5zbKfhWbt2GgUU6N6YTG/jZA7efJk+FOypCwjqocMQKQgE5KD6KlNxEXykoltIwOxEKhjwUgPkLPzB1HiZ6EEtQPJo0tOXCTiICbIFr7IRaCwh6z0FE9cpo1cSURYoD2GjtFvBMiUyBxAB7vUAfmnXva00wxpQ1YElv6R0Inl0VcC1BO/ytiiTXXk1LOTjl120mUTSBY9fFOmnbFgl5v5QZdj6qWLnnIS+rIjGXTI5UuQz7iNY9Yb46F2zTMyjE0a1OND/hULid1mbMy4De4ZLmUdlRErD99kHRM3Wmf5m9aVP2H5ms8Nf64UoRAK//j8uY25e433J4C6BeA4KM1lp0A6GgNyj2tRSH7Opx9TRb3qQoz1Y8mD9HGMrHrkZTPdTt+z4pW80Mh/XY45mZOIZAOhzPtxLE9Z9tPlGGlZIBnltElOxwvAMQk7zDNydVn6XvMyTaE2rdsYvrqDfHg+Cr897GPofQ2Wgnlf457nF5ikITQ6fB2jH4oSqq9D+oJh1SdCoZjAKzhUv+tqiSBt0ot1wJxgc5wyhotgqfKNoDk8ncBns/jjmLLksuricac92PD1wVqzHpsu7LTOjS8y2/GDVs4NOJlduCnAubQY2iXTDqzET6yrsnLGhLLGJi5nIW5L6zbTO91Q/4R0bFn9TPenGSST9pNGs3bZyPLXSgwxFotDyA0NDdVElCAlMZEBGIqNiZQgJ6JFEtHTjik6IiQCdRzLHmWS5EjY4cf62X3Vx+UkyQP08a8cqA1bJHZngfrFO7sCpC3eSURescWQLUgTbdghj8dIfWmE2C5lkVDsEgPxyR51kgWyjbx2mxlr9GijLMiPdJRLh4R9IFnIKO28Y8qx9JUkD2jDBrHE48HrBhBajSn1QPrk+KCsGORL/SYhJ+iYHB3lIq8kHQPpyhZtxBSDdQmBpQ39nPtOSGrVugozlpvaZ4Wpe606dZ/lZo95tb60lugD/gY/8ReLydqpOdFNfDNe83GEPlKoK88TkkQuAeMj+x63EzaIW9Li9YkFmpKMfpU5z3hggHojExqCLHbCDgzJD/JOkIiHX18IcYUm14EYJm6SekeoS4G5QS7YDXF6fHOK3u5x4KvifRWIH5tzdlEOeRBNjsP/ia0g6zr0KfljEgliX0HH5bS7VPC+M+/4V7+xKHtxXQLqMZH0PdiuxwmS9Uip3obf0EaiQXH5Os6VrS/3iBV43cR87gMlTey0AkaKqINKvuh9KtpkdYf54ynW6WxwjVdFnwAvrl2f04XtlJgf/5cUwvGCEyK05nlR0jf+89Xh8yth9IMF16ec9CnR89KcfnuQ2Guf0bA+WoDmux1YzGfcnuU3qy5R8XGf0/Xz3ddHZ/eglfrOteKmp/qN6yKbzfEaVHKvTcfRrI+t9r+d47QU4Ff9WUqsrcg2m690W5ZsVlxpuTj+5aLVfreCRrHE9Vn9WSyGxdrDfaMBljM+8odulu+5Vwho5OauMoGQ4l0u6mkHcaAiBcqB5KST6bweFIkyCVIFKTp27NhcW3pQYlsaFOnH8vjlZkdcgDZIFsSLfuELwizyHdtKA1uyA/CBXDq2ZlB8sqVxoZ5ETKR0PcfK0dM4cxzLgzhXSh+rH/odX3Y5AT5iORK2BY1THAcygDgYV4gj4yqyr3ZBdcQft2FbY0k9cgL+OI51IfTUQ0w5juWBZMlll/6yHuI+BeR8DeTL4b3Ykp10wjlmtYoT2CokZX5MKxX85EP/Jib44x3zu/Uai7z7YwzWrV9nxZKT6JgoEKIXax6vvgCJjvoH0EeOOtqUvPeBxCEHEZ+i/3VySht9LIc5SdYFBLa3r9eTP7gV/Bz2Ohe2apjvSU/JH7wIsvW17BeChFrg0zOtR+QhzQTvTUGHTzf6+9d7wAWruh3mYcb7Q+zIgNAjulMnXvijf/QD+W5/6OFhlbg5TsYwWdNxf9HD6MzsjMv3B7mqzw3Gk/l1mdkkBnQLnso+z+EhxWPGFm2syQJf4vP4eQjpZI0io4AdSYl/VUe7j1HRx2d2yCr3/18r1vwBhy/+LZBbHEgSCwWn7VYrbrT8BW/wys2eSgyUD24QSiDT4dgPIPnEqvo5eMXcQ0isnBJENzS7HYmFwtyBF10mGo8geyaDMWsFC/q0QizmM27P8ptVF+/Azun7g3Kx16fAz7Nqrz8ydXrytgb+Ocey0Kg+RisypwtxLOG61KRf6TbJkwPKrdyjJZ+FuC22LWTVLRfp/iwFi8XQqD0df7MYGrXF+mk/HK/WGIUvcakinmhuEtw4yAE3ZQJARsFwIwA6jutFMCRDPfbCTazuJ61HYqeUdt7LJMe/iBNygvRIiklJ7YBj9JVDPng1AdKmnUNubEDElkTcigldlTUe1FFWG7YVp3SykFWPvMYav8RBn5QUi8aOMqCeGzP1QLFQD1HjWGMD1KY0MDAw9zNVyBC/bAHpyS4g51gptskx4wsxE4lN73YjQ0wqk9BVvMTA+EtGQCaG4qD/kEH5lx1sxKBfxCK7Se5z6rI1v/nXIAd+DHXiSxFeM+cjQd5m3RfocyJ83B+w2DAthd1w3lOmLZmjmZlpK3r9+nXrwxg7Ow56kBf3Fmzin3OERB+IW2CXETkAqYTgoYM+MQ1uHAx67MgCdjCR1roN9phH16HPmzZvDjIQ7mJ9jpkjvhzHeYBNdOO5pEyM1CNHWXNDO/qcq5vdtsadmMilz4opOHn2YtipDWNJ8ooKMXicvOtOjOhAyulH8O3zoZ1h2tAlVvzzIIJ/6gseF/L0l35Rx3nNuEGcy07oAcf4ZU2GsfQyJJw8xOUIMXuaR1IPWS4U/XyfOmg99/+qFSt7Pb5kLUimdWDf17wT2GrxbMtd+Ic2ldvlA9VNkCGWWlibCeA1aCiu0E5eDzPhPcnaYFc6dAUZb9AaAlhM+sm8sr507ca2j2E48P997cfA8mJAYt5Tc4QHtDZi4Xw1hua4LWCd1IuZCO3JqGT5zapLd2P+kLnx/8JE844+95hs7636ykJbx2eVkRXr3DWnxfXQTI42fLRqazWw2HwsJTbJLrVPWTGk69L2suxTtxrjGWxCYLk5NQoWpywObg4kSBY3CN3QFBxQWXoqS5cbK/XoYlNJ8oA/jgDB5Gaoj8pBoxzEMZDLFlA9Pkns+GCfMn3hRog8fSHRN3J8K8X2QexD9dgiAdqkp4ScZOkzUD2xUBZoF5kl0c6NW32QHekjQxkdxljjTD8AY8+x7AHa2OnWL0mQqCOX/WaQDDm25Q9Swx+3kE3GgTGF0NIHjS/y6MoOsoBjyhpL5BW7wBgA6QKIE/3Uz4xxjB5ljSWEhbEBCbFK7Hg0gSzxEWq40YebP+PrR3UX+MIONrFz+PDhcAzZ7OjgXWkndk5AWE8AfySI2ICTtIGB/tB/9Y+P5SGVxDkzPRPIGbFBVmlnNeQZJ2y5XXzRXXcfzhH80N+51xD8H3Ye2WENFfV4Ia30DaK4rm+d23Mj9T5NTk3a+Nh4yKnTemHnEzvYg/CN13/CjN1K4qcfKEx73L0+FoHEUuNxTk7yhbtkRz9xVV/f9MT/p2+A2DWm/eudxHbz54JZu8muNPL4D12pf+SfjO+ME9i+MN7sDKNPPIwDtnnIUNw8VMQPA7Oz5bDryhH9w2dnycmuHwcJQgyDOQ/65KvPk4//7GEr3f9r1lF50I/1ayD0Z6HO4vBYfdVVOs624oV/bFP53U5au7za5877SaeJJ7HKv6zLEOHcv0k+7zlcF8Jg+YHbCBIRGYX/MKrs4s7HHUT9ODkPgkyKwCYG5WXlSI/vmYaw9lqMsRU57C0HienEvjbXmT/sKcY4z0IrvluROdOw1JjjedKYxWhlHh9NKOa4341illzcntZdCpajJ9+NYmwnCr/xG79xbb08BwUdB8IFkhsFhIR2bhzJjVgXwnmdcMOKgueYm6PIi4AMx7EuNx7IK3bRA+l4AGXqJQMkByQb62CbY+3eoEtMquemim/IBDIQCvK0XVIcE3bUR/UPYqIxEhQrOXpAOfbSNmWPeuwQn9pBLA+QZY7oDzn10ol9YkvtIly0p/1Lnjyd0r4BftFj/IhFa4Ux1e4c8ZAYG4A+OpoPErrkyKCHPMfEnOUX0IaedlllT/bRY66ZU7UnrwS4rhPQRN4P+D8H6fE+eiO7s+EeHv5JdOgnRJk69NHl7k8ZMosvdxGOqR+fGPM0HogkccKSE27sck5i+ViblOw4+rnlRIadQz+7wn8Q2XzBaZSTKXQgXoxNperrq17HyuKVB3bxPICw4+jRe2xOFL08iX8/7ujkY3P34//LJ/HiE1/Uk6ivel2psyN8dB/qceI5/YXkU55ysjo9y467E7DQL18fnoiNuIIcQK9unz7TvxCHg3LJ4yp2+AOUx89857y/6Id5xq8DfeySOl0+jE4Ye28kuVwg+x53iIE15nXYwQe7wNhlLMtuo1TqCGOQ/PavP1Dgx8eCMinZ3qTMf57XnMgPfcYKtRGv9/Oqrpcg6UvL4MthhT6rbXyxW+p3ddacj5kTyDBOc6k+t6xFcua7HhdJXU+QrHPocZLm5ZLEv/PluJ5xDv7Df4nfJC3er6DrfhdD+pxtB5Zis5UYW8FiPtWezoWsOJId1lTi+uUl/pFKrKsy9mMf7ernUpHu52oh7m+67yDdHiN9DLLqzmQQL3Mcx01Zx+n+pI9XE+mYVhu58fHxGhd6nMWDolx16Zwbh2RE1rjxiKTGZINcSTbUhh2RKOxAerATbpKRXqyTBdoUDxBJifXYHUQmIR8JOBbRIe5w03OoP8RGTPSHvkGQkI3JuHyLKFFWPTaAxhg7abkY6TrFDtCDgKlfQLFxLJuxDpA8xFJxqJ9pAisbHAPVpRHLCuxMAv0sF2CMJEtiPPBN3HpdRB/lQgwFjiGvtB86dCjYQZ7xR5d6ZOibQFlzAmjny4D0m7UlHcUdyKSDY6C5gcAmvfJ//f+kPRlDfGgHVnrYAoqF+KhTX4lJZdYNrxWw+61YBPSZD8XLXKODjGJFB33ktBaC/8gO8qGubp/dRnZi8Q15RD8ea+zodQLZQ4+xYLwZQ81j3EZOIlZ22Ddu3BjqsUGd7EmeBMjpF4my1qD08SfgV3rSYSyJn9iInWNkSPjCL+OFb+qwIV3iZxwoM0/MJTr+z5wfISGNPh41Px+8VJs9aIX73milarIDCxKNZP4Xg2YoSDuBrZS2mV34RzadO9cNdXuDj5U3sQPOR+2JHDlxJD48Cv9H84v/pD7An4pCX5wM8R9kvoAcTahhh2YeMkJ1Mn/JDiwp0eO/+ZGI7LcBIe7TDK3ZVpCMx+Ixtiojv4v5T/zWDxyJ/fmKOC7ZSh/HaLWuXWgWy5kOxS5w3O5+pH3EWIqvRrFl2W9XP5Yan9Csz+1C4Zd+6Zeu1YUbh0rxMR1QHUBebZS5WZC4IQDk45uXdGM/cRld5JDnZkMCMVGJfQKVZSdtG1skHZNzsyIubnhAOooxlicm4oh39LhZQqq44ZJkBx2SyjHQlT2AHW7uik9ABl1i0TGQbdnVWJMkgz1uyNhTX2RLZfrCTZ+bN7lu/Opj7JeyjuVXdpTSdQA72CQe9QdIhjrFjX3mgvEkdsZTfZCO+sM7rrTx4EHcGj8Q+4mh+NVf/GIDffqsPhKv9KlXrH4P9zyxEQ4casMehC8N2VFs2GMNx7HiU8QcEBfgmKS5RVd16GOb+DnWOKtefQ3lpDDXvxCDxwtxZeeWMSR2fNAP7AHkFAt2ZZt6fEkOm7FPQBuxIUdsil1y5EA6tGNfx/jVGoYIo5vuWwzqkGVs0aUMkEdX7ZQVB1Abx6pDP5SVIiQE1uXDf47qmOWHP2GF2rATPHy67YhktIIgnUyS1QrrnLVfY5XcgJtKrp3BnvvVf8B7AY8NynOxh1jrUvVy0AvlOjimPiSQlPVFwWRo0WFuSUl9IpX8225oPk5nAln1WWkpsq0k2VOelebb4rFJzrcYC2WTctb5EWOx9nZB8TzWkBX3SvqiuUmndkL2suyny/Hx6UCjWNoNXccLv/Vbv3UtNw9u7CQa4ou+cuoE6pRAfDOiDlmIg25U3NiwTVk3jNgPuW443MC4Ccb2qceWkvzpJifEOkBldLjZERM3cMUaA1n8CMjEfSJubGAL0B+ICInxEwGL7ShWoHrsiFABdBgfkmTIQew/C/8/e/8BcNmS1XX/p28PQxTGYcg5JwkKiICAEkXJSbIOoig5hyFdlGwWIxkUUMAEKjkoCigKvigggmSGzAx/lZcwM/d/Pqfvt2dNsU94nu6+946vv5l1q2rVSrWq9q46++znNH45idgTC91pK+A3Dw70YkmvDwzFRvaY7y2YN/lozKeQn3w7zDpYySW/8oEP+sq9eMgZIz7ZOdZktGccxmm8YiwHZJWoePTtR37rfw/Wb9GtdU6OjZ4yr/nRRmTFj6xpvtjTZyxKT5bButSun4/WSOMoZvY6eMajE6orkf5Aj7612yG2OUfFBeTolpNsKWuDEhWPOTHe+mf8IX0lyr85BX+kVR/d+iG7+soFnjqZ8ty4p556fcaqPsf8Ow4NB/4+1gePcw6wN5/8Tbv7nvor+0Mg+w/yL8QzynaAffNbB9gb+wMsgb1PmTpUiSnxHkyf+jP+76ByCwe5W4KeslrDurBufRbbt+jfVriFW81bvFt9t/SAvVX+kYZL4isvDxWKafotl8dimePYGtOxcR7jP5R4JMRwCcQ5aUW8Ve4Yrdji3U1k/5Rv5Z3GMa/7q9iasncawzHM6+jmE57whPvd9NswdXSgVR4LYg3U5hCPvaDObhsNm6hNjZ66A0sbMyjppY/iIxtPmxC7+VbisamePZsqfk/OtnRsgsoJ7XhKsjMm9sUtFn8c1uGKLeMkSyZfkD38xqiOL+/FUexTd9YDXnz22pTLK1vq7PE1/Wsjh7K5BvCUjZFOftTx44G6g4fxZz8ksyJbIGY2xSl/vebBd3kMxSRPDkxkW1PFOG0HOvjWQoesxkaXvaAPsqE9c2Kc+QvqkyDb5sFrA2Csct0hvJyZgwl+yM0YkjNe8ZIJya0ohsYP6p5ss8OeNjQPdNg3ZnWU/wl2k/GKhza72SwXU7+cI7qtUfXmkb62ujjoppdd+RMrmjLTvnrjKN58kUf0lQ88oE3K0e/pa2DPvXWge9r/3N33q9+0u/m0X9v37ec+/rWwj/Hmc+12j33T3dPue+zugRv7eRzGbn31f4jiVmwH7i0c4vb+8J75DP4fjPeAQ3Wfc1XynrAeSvZu9d8eX4xDw39u6UEydwurPXMRZt/kT6z6dzu+S7Dlc/JOxaQvmmhNz74pU30rL6vesdzdK8w4H4lY8zOx9m3JnMLUv6puOKd7zP5sn9K/DtizjiovxVYcdzu2icMBtiC7+bu528iU+DYVcPMvmDkw9RnklKmMss0Pe2wjtmwk+KC96rdZ0Z/x2uQhm21S6SGba19Xk8MDcgiSjZed+tcSyLdZsw0OJfPpbH6nz+mrcciNsaiDjZ1e8qBv+l8x5diTr+aRvXKdDXJTB5Xj6YsMnpxANtIFTzgdXvD0TdvKqHaonn/x4vnFCON3qBcTXvkAbUTHuHrFwMEGvxiKIwod2FEyMMeFrx2vujldgR/yRb+ciY2M9aJPG/AcYo2h6y7/Sk9om8dp03xqJ8vOrE9op69eTHIlDrngG9hvzSA5n3kP0zd76uIUl3XgQ0LjCWwUQ+1KfpHcskMXn+30kq3OFzl68lfskF7tGWu+kie3t7z/H51bh9PdA/t1ceM597xbT0dvPPV/7m4+6Zt2j3rak/e2yFwDD9ByfTvA7g/pj3nT3Y1HPW73FD+rtec+an+QvXFjn2u/0eYgKYzDvwb2jBDpg/8/0EHwUO6tPPgHQc8Q3553693XPfcge9C61T6UD9KDvHN0HdC7lefr45Tvc313i66LVfeqNrdyh3csp3ea60twakynxnWu/1Jc4ucU1v67EdN10VhWOoX6leb7nPxVkM3rYI3jbsW3xnPjyU9+8gNu4FvB4rnB46MOE20MNo42fwRtZJA9bZRem4Y2cvDAI2MT0mfTjkdmAi87Sv0dErXTqS1GhyuHBPHrj/Rnk3zY6o8aa339QH4HlLlhGhu76vKlFAsZhwYkVvzsNa78NBabNX6HgjWOU8g+mnOI32EB4k2b+RGDp8yzHw+Jx7h+6Zd+6bY8HrlklY0t3gS74gKlP+rpaSz5DityBuWDHhQXHSimnrgW14r06fnwYS7xkNw0P8qIDF/NrTqC7G3x6XoSawzGZQxIrK0f/1CBD1ytF7xsitFPnxWjPjFWZz9/SmTc4nRwLnbyzV025JtfSM41Iyfk4jev6pC/5oY/uuDnu8ohnrHO2BtX8WRL6QMMXXkxbjL5Vs8eHlmx4ouDjH661gB9tgBfPD3ltTZu+X1wrvYHyKf81i/vHvPb37971AP/e9/ed923H+tv/crut574tbtHP+D1Eb9CsB/Dvraf1f1/z+Mg+8DBmNr+tLr3+7veYJ+459sv1mfdn233HxBvPs/uN5/nDfcij9nn0Tonv4/rjIvDE9kTKM+hdrm8Dm7l7HLws+rM9iVxnJO57lgeSSgnW2M5lvNTeb1XuCTXW3FMvUvjPOeLnS27W3qXxH1dXGdsdwP8rjkIdxrHdfSP5fi6ud+K4TDeJz7xiQ+0AbqZV18PGjlW4tkAbDhtIOmAMvmDkwd1VuCz4/Bp42uDIcsuypYyP8o2VCAfgU2r2MCGxb62jYyt7PJffChfoK0f+AT9CLLjQNLXwJM/Zdnhv0OK+MTU0zWbqTI9Zf6rQ7rFPSm5KR9q6xMDNCb2UHrFAdNePLJsyGt1JRkkluIGbf0w7U6klw143OMet3vSk5500J321FsL6ejDTw6/NaS/Q6w8y3nIRnWgY00aX3HR0QY8TxhDYydXCbVnH1gvYuyv+1HrArHHnw9GDpT602Wn+Bws8VvT5aQ86CsfbBo/ODjPGPWxaT0efi927xfoGXO+yJBNNx9A1rrpgxAZY8Jnz3joz3WDihkae20QDxsdovVN/3jsyRN99XKqbZ6MSx3FN6auued8zlu6h6eUe7v+eO9pT3ny7jd/4st2z/rr/2F/YH3Snsfj/pq973/t7vOE9IE9OZLuO/ZXh86zcCfZr8z9QNG+sdf9rQeec1/fr+sbN3e/8cB+rL/7DXY3XvTddzce9di9QK+HdHq9Ne4tzJxtYe2vbdzndFcccnUN8LPqzvZVx7CFq47lkYZz+TiW+1N5vZe4V/le4z/nh/yUWdvhOvFeqlPMaxwPBfjc8g93GsN19I/l7Kq5PIeb7/u+73u/TcBm4OaP1DmycaA2qpzXbzOwASBI30ZFnm46ylnXB/mehwp9bNp4ego1Nz62+SZXPdtAhz36QMcm3+ElXTr0G1txaQf1ZPORHDR+G2LIBrlyBY3JQUJdnug5UBhbTxrzz870Pfn065ebNnJjSya/oI4H/CaHry5nbDYfcw6nrcZFRy6NxZjo0GVHm0w+xaeevcaxIpl0PTlzcGG72PXzrcSH5Is1GE+EL74OxPHzOYFnbMbCR/35ZMvBqLrxKusvHu3KGZd1COY++3wlT1bO9JtT8vqnTT7Frw3my7i05YdM8oFdPDbrh2zTtwbBvGarPPEBYm6cjYusurhAH12+uvby13oN+NkqRkRGSZf96ZftfAMf1ov+9PSLGZVfwCeXjf61MDq3sLd/37PtD97PsXvKk//r7jl2P7N7lhu/snvUjd/Y9zwYN1E6D1Yvx35st4o99jHc95u7mzfkfB/vc73c7jle7O12T32WF9+3ux+K+byXp8f+jMDf6pu8Y7pbmOvpqjjn51g//qUxXmUsjzRcJ7d3Mh93gqvMyXWQ/Uv9rDJbOqfs5GeLHsmYMc763VwX183Blt6Mb/ZfN96bH/VRH3W/m7mDgk3A5tImYTNro9HO4azbADi/tRE8/d1ZsHnRR8msdsjg2yQnGlB67HZQAHptqMmyoT8Z9vFsgDbkNrFkEF6+9Rk7Pt3swBaPfBu9vAVyCL+SXm3QNh76Hd6NyaGlr23NR7nLd/qQzXIj7+Kfh5l0igM1xmwEfWygDi1kWxP6YcYA2vx7stjBj40+LGjnP2hPWkHPvHWonzLZEbu4IhB38RczuZ56GovcsquORz77Srz0yi2YD5QvsuS6RsiRBzLTJjmkblz6WzNdI/qKBfFvLj2ppSuf+JAsf40VZjzZUOKrk+V32oHkQH7IGA8+P+VUPGzBlo3WcqBHB7Ue2C0Xk0BJxnjYM0/GSNe48JViSR7h5QOyD8aTPJvssZMP//jE4bd/b4nvofLo3VNuvvDuuR7zuN3//p8/u7v51F/a9+/n8MH3S4mQuq1yAbw+cPhptgNh9Gx17+s5ft/uWV/yvXb/+1lfey/z9G9ADv+4xoLGPGnFMX6Yfafk7gVaPyuOxbHyLx3XMxOO5eQ6uJu2QE5XeiSj+Gasx2KeMncD2bvbdi/B9Pdw+F9xif9kTsme6rv5wR/8wYc/4nKDR+o2Axu1w5Wbv43B4coNv5Kcm2wXSxvGpDY+lE26ZJE6ng2FrafftG+V80JkD9jSX7xsiG9ubmSLJxt0tOm06Wtnt7Yynemf/uSXA5uxnPAL02bQprPFrxSTg42yDV7b+44dZpE4ioVetrOTLTLgIFJ+Al7jDemiclVdPMAPW8YO+vMdio8OH/lpHUDlqgv5NAZyPRHEn6i98lurbLPDBplyqg9Pnw8LHdZgKyeNVZ/5kEcfMLTZaQzK1l6+Irzk+HXIYrc49SeD5vzF88QX4fMdtBEd6BoIZPGQeLU7wLILlezgAxn5MRZ6kB+25DkUPzI29rKvpG+sdLKHX77yD8WA1Iu39UQHiSGZ/PBR7mYO+NMuNu3GQP7p+b5lZz+iWwfTG0/d/fajXmD3qEc/9+43/ucv7J7lab94+A3V/YzovfV7qhcfYff3jMMfftF9UG9fvfG0B3a//qiX3z37S7zb7jee7Q/sD8hi3K85y27fz9etmJ6Otb2FS2RWpDN159zcDZyztxX3qbHom/T/ddzt+YJnprxuxXoq/rs5toc7T/fC/91YT/cqL4d7+Yd8yIc8wz8l2wbi3TMHWE9/eiLYJqTfBmBjUabXZrICv42izZctBzKbSRtaA81mwM9uZfJ02bQ5abNrs5qbdD5rZyPf4lIWP/liVk+vuLST6f3X+KE6GXWUffVKqMRLxobtvb4OCsbDj0OMgwV+mzTZLZtsibNxNmcw44JKYGctk5cTJV7roTUB5WtSeRSD0kFQPaQbtI2JTwfY+rVDPGXxQePEax1o44tTXanfmsG3Dq1zeaUjRgTkKsny59oQX3aT1aafDX3iopsd+h2k+J3jaCz06bEx+/HFKX7XZmPWR1ae8cSRPXU89Wzym96MDbJFVu7kpPmrv3GxDVtjy6+YySN+8X3VTxZpk4HiDPmyzhA9beMPdKBY9IlBu7joFAdedvHUje3mTb7Z2udpH4InpYcnrg/s1+KzPe/uWZ/9sbvf+P/99O5Zb/zqnr/39WCc+wweSrXT2I93/9/9SuVhX+Fkt/uNGy+6e46Xevzugd/1ervfvvE8B0mHVn0Hi8qRE1jbE/qO9dd3qn+WDwe2fJ+K5+GM9ZGEeQ3fLcjtM2t+Z9yXjOH/rqN7izvJ7yndmx/6oR96eAKbUDd+f9Vrw7Fx2KxtYvq055MrPGQzoKffhpDNabuLTJvM3FTU6bKVDMxNLVu1V+CLs40cilnJDxk+9WtnP36bdbHC7Efq+vPVIWvaSm9i8qdc0M5vMdqQxWNTRuXN3JgDB9rmaaLxQX7YhHLcnMFWPDB51ZXsi6U42WEPgXb5gHTKrzWFjCm5ZNlwyGXDGPVD/UE/XuOBeEpIhx92yfI/fbFvHPrKZwf9xpgf82EM7HXILv7q+RHDzBE+XmPjpziguj7z2RjYUNfPFr+uQT7Ug36xkQE6xcE/O9DYwowhP4gOW+YAjBnY0Ud29ZGM+lqKzZjlUNxsF+vE9M/uGoO+xpBsYJse++Kqjx35D2LJZmty2lHba+wPs/uD7gP763x/iL1x37PvnvrrP7W772m/vudbc3vfB2l4eu0oHjy0Km/c2PvfPe/u0S/6zrsbz/1Gu9+88Xx7NnsPvjJ0S2MTM84V1+2D+s/JbUHME6uNw5gusLslc0rvOrH+n4I15/cCzwz5PbZmoktwzMb/xb3DncxNuP0ElpCNwkWh9PTP19fzIiHjRt/Grc+GZNO3oWjbNGwiHW7JIWA3PWRDYcsG0iYC9OdmAw0iW9qTirM2Of7YZFs/u2LqgKEfGjcUbzHZMIt7HU+bdRshv6E4Qu38KNlRxkte2yGHXbEWp351OStvxuQw4+msUt7b3NmnU8muvqnf2B2Y+FIvjspTyL48R62BNV+V0366xiueZORWTIhcBLMOYo6gvnjG6Omd/FivwA9/ZIt35oOcnOKLL59y1BhB3HKZHTaADbII8Ok1XrLNE6QfygO0BvjCb234gzR6nsYq+VSyLybAYzfb4lAnN30AXnb4Q9nx5JdeMehLH3+OE4pFGcijeRgFPLJsKEEZX8mu+aAjprm+kmmsSnGqJ6OkI27Ak3+y7DXHE36a6ub+AHvfjf0Hyaft18ZzvNjuvgf219f/euLu5gNPP8Teogvhqe7e3m/feN7dzce9ye6+F3in3W888Lj9YXn/IWn/3/0qOMQxacUWL1y3D+o/J7cFOpfan0hv6q9ya3viVN//iZjX073GM0tur7JeJshF9wp30765v5exPhy4ZDxbMnKBbh9gYxD2tbjNZL5/WD/YDMAm0MaqtOnbnDootIGot+EAe214bRzTJh578en2RAoPrdjiFzNit0MEOTx2xcE2NJ76s5duh9lkbID09eGRA33innaqx48aNxQnfu8fJwezni+br/yTF4ex+EBh7lCHBX7EqJ9cPGhM8Y0pEhPk9xzIiU1cSvrlSb7rbyyTzA0qDnqNM5BbY6oNs19Z3ZruqSVe42Mf8Rtf2ZzKl8ObPE5ZyDaf5M1D/ulW57P1j09OG+mfdiqj5kiJ+LYO44vLfPNf3sRItwMiWT7o4jcP2QDtWaajLWZz0TVdbtjLV/L46embNso3PfbodO8AsnON4Gebrro1ba3nZ8aJgCyIk738kiWTPxCHtVqu4Om20D4Oh9jdo3ZPvW/v97leenfzqb+2e+qv/8yec+vVob3w/j9PX4O39CDerX4trx/81u65drvneZ3ds7zQe+9+474X2z3VH20dRMyHyp4y8SCK6VZcz4hTfROX9p+TO4Xi2LIx7Z+TmdjiwTH+/8nYGrP1fwnonspZ/efkHkmYcVa/NPZnljEG8TbX9zr2S9fURPfhiS3epZjjDbUrD3/EdajtQcHN3Q+p964d3hqAjWAtC7SNR9uGZ3Nto1bagMjYOIAswqPPljoobXaRPjbalKCBFGNtmH1zDOyiNmJ97BVnMeAXS/rFa9OjLy599JT6AH+NLb/a8aB68tl34IL6Z5k/yK54kA2efvkyBz2hNU4y6W2hMSJ+2GiO8ztpC+QaKzvyod386U8uO9Xza604QJbLLV/ZyUY+xaus32+RWtONuf7Gpc4P3/FBm442fWu6wznKfmBDfuOTYYO+urGTmb7xA36YdTB3dDr0ZROe/GT/OtStd4ennoMZf+Vcn5zSVUf4cxzruOYYjB9aX2yjdWxQbNMPKMmxhZ8t45uxkOE3fnGJn47+Oa58KNnuUFpc+rJFBo8tPvrwgfipbiSHXx54cIqect9z7h71HC+we8pv/+/dA7/xM7ubO78H7AONmPe01yG8z+7uxgP7e9S+qWcf2Z72cjcevXvguV9/9+gXfY/d//ssL7/veVBFf/nan2Zv+3+QjuFU34opO+3OepCjqyD5LR/TvnLajj8xZbf6z+ESH/+n4KrzdAoPZ56OjePSmJK7yhieWdbFVm7Ejn+3xjBtXXVNXWXurhtv4119PcMrBDrdyN3YHXjw2oT0aUeQzizj07OBtNnbKNj0xMjhVV8bsoNVfmwm2WEzAn0OB8nQtTmxg5JhKx0gO2OrTp8ceWTc4mUzYpd8dotz1ROXklzj0qarj1z+0teG7GSz8clZsQYyCD+afIgvx82BGIxH27+WZR60i3HagurKNefGR1essMYTTT40Tj6hPBkn6EsPHLzrx0s3fSin+UguG0Deod4BFGZfYAexY6zlJZRH14e4/Itk6nyVm+LAI0unNtnGKZ9kzYE68A3TZ8g2sMWukg7fxc2ea0n/zBFZr1CYs55CT3/6Q2PIn7oY8wVsGIsx8kN/5mvqg/61D0/ZawHpJ9eYspO80jjUPVVvLNrFB/HEPu8N89qsjayP4iyGA0Z137tv7+8HN3/XXv6xu//31//n7sZvPXF388ZT9vx9Pg9/BIb2OTw8TX2wzaafFXjgWXe//qyvuXu2F3un3W8++lV2T9nt742HPiIPOpq+z+AZ4rwAx+RXfjm/Di6JiUy0YvIusXUMd8vOIxl3Mk9BbqJHKi6J7TrxP5LHHJpj5Yx3bV9nLKuNq2Jdf9exl3y2tGf9HA4H2Kng3VcblE1iGlfPePITU3aWbUQ2B5uJzcpmoXQIaDMk42BrM8k3aoOsDbVtQDbR+HzSRflF5CG5sPZXsivWfLPliY4SQbqBHKJjbEi/mCr1s52f+qoD+3SVxpEsZAcqYfLIZJMNvGJziELZlW8HiJ50ks2GfrFC9icfsaMvP8nkfwvZUGZHnb65zx7b4ppIBvIx4wT8KFvWCHLwTA9mHZJHkG0l4lv+6LHlQIzXYWjaY4tOhzx97Koj/XKOlxzke4Ju9pDrh25rMntgTsWmLdaJrpV8kEF47G6hsc1vTMjy3zpyrVSS06edHzrFl6/8kunQTb+xwswFndnHR36BbDIIyMhB66o4kg36HfDxJv8ZsHe7z9bh6ejTbuzjvPncu2d7zsftfv1//+ruUU/5+f1BtF9G4HtPhxj263KvdyucfT6e7dV2j36xd9k99dlfY394fe5nPLheEdfRO6ZzVVvN3RauO54w9e+GrTu18UhD6/9OkI1y88yQo3MxXmcM92rc6/Vxp3O2pX8s9kvGdN145rhWG7VX/8f4V8Ux/du/QuDGbWN0w3eoafOYQSu1502+/imz1Z7on8fsK0S+HFY6zGrbHCunvnr+48drs41P1+aEkpnxllxlfKivNpsdMPDZE5uSzxnPtIFvY6aPtMXUxk83u/nEx3MQmHEhPmdbnd30K1de6KDDjnlGHbTNhT/aM/cdQvDFw5569qrjs4m06SA+Ahn+pu6EdrkobvmxHrTFJ89sZrcxKOlnoziTS8Y49bG55X8ts5Hf0Hyxi/g0XjlT9qEHsgN4jZGeXLcOtJMjw8Y6Xpg+jUedfnLNo36lsZrHDoaQrjGkx1d9CIpHv7zRzxcYB5m+TSkvwF+xkqGTXZg+yGSbHfcf/lD+yBVPJRQ3f2zOnOWDDSAj5/jJgjqb5MTfuPKT/wP2xeFXAm7sD6L7NOw/Fu1uPOoxu2d59uffPeV//tjuxlN/bXffTTHvx70/rO4zd9DZZ2Avf9/uN3bPvz+8vudu95g/uPvNB55nzye17336kC7GzMNVMPWM7TpY9dZYrhtbmPrnbN1p/zMbWt93C/LzzJSjU7FeZxz3auzs3uk8XUd/azzx2LsbccHqh83u92ErlnCq7xiO6dz8oA/6oMMTWOQphEAcJLu5RyVgRf1zw5py2U4O8eMpkU0f2iSRfptN1GGKfXWbj3qbVL5mqY/NDg5Az0alXGWrh/iTl02lONX1T7shvTnu9G2mNks2jAORA/Gq6+vpYzaUa51N+pAP0AfJBocXcWYHqhdTMfDvCbnDmfWQLJkJvGykry4uvsydttiUZE+BjDw5zLAVlXvIJuQ/IofMSTw5Z8M4ikEZQXU+ihWMofWmZHv6B/Yc5noiK5fk8CFZNsSizUZ+mkMlnXI4fUA8NoCveMU2dcVkHvML7JOrTa9cpYcgnvGUh/hsAF7ro7GJgTxkC2Ze2YDyJR+ouKB8TBuz7n6gbV2TKz48vpB7CPvZav6gMRSL+9LE9AWHV2EfZO1X0e6pT9t/WHn0C+8e/ahn3/3W//7J3X0P/NpeYD8nt46me9rHs7fxWzdeYPdsL/wOuwee950Of8B1+AcQ9rYeyNgVsMZ0FVxXt/ycw53EFqaNY/bwt/riH+t/pOKS/F46B5dg5ufhytN1x3Ms3uuM4+Ea+ymUl+vk526Mh192ZnkMs+868YY7ifvmx37sx97vBu9mbyNww+9mD5WctEHADFgf/eoFRGb2gc3NQcfBCF//OngyxWSDE5ON2IYshjbTuanODTW/QR+bSnwyNjFl+sU5ddXXtroSyLOrRGyJiW0lHtDJRvXGaMNWh+KhL0eNCfJbDPkL2UUr6JB3KLTp05vy+qZdcVkLYiNLR/596HBYceDJ7noIgOwYQ3F2yM83vjKs+ojt5k5MSjbLDVv0pm65T1bJF7KOsp3vtT5Rm311pTjkA9jPdz46yALfaOor6c2njfgdIivx2QNtFMwNdBDLtnwAXTz6cmHu9Il92q3dnEx90CZLTlz1F4+x1ZZbmIdY0Ddtq0N88anLSfee/tlffeWDbBTI0JEPeohOffSKW1zy1fjJNU6lNr9Ab+K2T8W+/rQH+/0zrw/seQ886wvv7nuW59z99v/6ud2jn/ZLu6fueftVf5B5yu4Fd4963rfYPeX532332/c95972Xn7P32fw9rjOIZlLZM/hbtg4hTu1f8lYj/Xd67HdbazrbGKujeROyV8VbKNL1+Cd4m7HvuLSMST3UIz5uriTXF13XNPnMRtrXOfiZOcSu+GU32N9Nz/u4z7ufhsychMnaMOi5IavLIg2BSWQRauD6snXjzzl0LbRz36YejYdfHWbG1K3YXVIUNqgwCYdyLKVfci20oaFbLL8sNFGF8gdo/pD9WzKHx57ctjBSf/UFxsZceoTt41WaS7Q7FfiTdTPVrZBPR/xHZqKBeglh7TRRLmf/h1kPZ01B9ZN85RMPqfd+mDmu/4tpF9dHHJrHLURWzMv+sQAfPDd4WX2rX7rBzKNIzl1vtkybrb579CWL3rWo/xoWxNs5FuJmuvayDjIKLX1q9dmx4FN3bi1+Q3V86et7lox9/LHJvBTm5y2Mp3AH18zdnUgZ3zaPYllE78YxK6eXTyYdsjIhzjxOqRDY58EbJkLds0LmJfpm63GDdr62FRH3Qc6OOPB6jN7++LBs+yed6jd3D3rc7zQ7uaNR+1+63/9/O5ZHnjSvnN/eH7gMbsbz/umu5sv8o6737jxwjSYfQawcQ7JXCJ7DnfDxincLfun7Bzru9djuxu4tX6evu5PIblLZK+KcnWvc3YvYocZd3m6ZCxknlnHfCmuM77r6JwbZ3OSnLJ6/pTRMZzqu/nJn/zJ99s43MSBsM0K8OrDd5OfAaC5UcQLtSfPP8Npk7KBwNaA+Jk60OZnsxVPm7BYbZw2LpuZtroyHbaUUD376uw5aIB46JUDchHoL+Zswiqjnt1sGzNiH9Y4gC5547PptvHSSU9/MdCvrsxOdkG9OOSo+KJkUDHN2GrPmIzNWPDY9P6sg0Jxki9O+sWIT78+NjoMAtkoTF58+tamsnjEoj+fweEmP/hi2MKqF4odOsyxx46SDt+oceTDYV9etFsP017jKC4y+iP2sg14He4az4Q2HWVxVcenI+bmAPjkm0x+jREfxNdBUV9QpwPZcm3jZb9+4KP8TP6EeNmgq15cjSmf+Ah8WOCPvP45/siY+/ABeOSMEeH3h1xs5Deo5/vwvwf7Dv+978but5/67LtHPfp37572wP7++etP3O1X9u6B5/6Du2d5kbfd/eajXnYvaI4f1B90CW77ulD+HO6WnRV30+60pT5p4hj/kQjr5xTO9V8Xa47uda7u1Tgm1jFcOqZ7PXZ4KHwcw1V8dz87NV/H+q4zx3wV31qumPZPyRyewBJwE7cB2KxskKibeRuXPjLQAS/o76Y/HeLXps9PX7EG/eSqV6YbL+SrzT+/HYTEZhO0Kdm4kHq2ssdOtoA9dTFmk602fbJt1PqLL1SfPpTZpJsP8bCr1J721Cfo2HyN1UZtjM0Ju1ApzqlfHLO/+FA+ZxvUga3qs8QXl39y2DiQnHsy2wcU1HjpRPnAR3NNNX9TD/IJ6eHRjejgyZGSf9Dmc+Y6fSWohzUHQdt14UAqRrpkGyuep3jkjEMpJn7lRX8HO0Q3X80t4NGtv3o5IavNXvJArrL1UQxKug5pv/zLv3zQtaYav/Uhh3TQXGPlb9qshEpy7LEtH421PEF2sgHq0yaSY+MUE/3pW1sZxO5DbO+wFnu2xKLdNQBs4CuLT9m8TB8zzolD+8CTs5u7p973XLtneY7n2/3Wb+/Hf9+z7579xd9595uPfqX9UfY5djf9C1y31O4Iawz3Ao33TnDdOOlN3YdivPcSrdlzOJbzuz0X9zqfdyPeS3BsHOfGd6/Hfycod9eJkc7dHNucR/Xasx7Wtjjw1ni6p07+sZiTO9YfDgdYlRwqc+RmbhOyabeJuenX1wYT8OeNH7QBjx0biQPOJRsErLbIzljnxiamxz72sYeNqgOspzMdqMjhocaR/eIMtY2PPbb5sjnTZwtmfLO+gr3GrGSvQxe7bDoEsrvKTV9iMRdyX1z6O8xok1MC2+zQYR+0oXiVKD+QDEz5dEDdnMqxuvEgdhxAvOesz+FizhNsxdABQy48uTQmcvqSY6M41z76EX/KfJpvdtX1IXV5VG75CXjaZBz6yuOUrxSz3JeL8o8nJ712gWdOVuDxAWT4bW6V/JBRGs9EMUD1xpo/JT3zIsd44gR98hHo8d84ykG54aO6sv7WhHjZW3VAe+qTgfjguuXbPCYbaUeN0bjkjl9tmHp4xtvBNT1zU4xiL5bspx8vPL2+L/2Fl/Lm8+xu/K5X2j3b87zy7jef7eV2v717Tr9HcKBbv2LwdP3r4E71HypcN85V75llvBPWyqVxn5Jtzd0JnhnzdwmOjevceB+KfFx33optLc/humM6prfGf2w8l4xz+tjyd0ns/Kxy+b75UR/1UYcDbAefuZEEdXw3fzf4Nv0OgaDPRtMmuwX/GpJNM9vTRzpTV53Mak87qi0+JD4HJ7wOEvgODw5SSIzs2vDa7PJDNtso+6iNTkm+Q1G6ERk8qG+WIVn25C77DjjFiPCzDdkia3zmw8bNhpiAvnaxsDHnC7IxeaAdTdTOPx98O6wE9hqL2Mgaj3l3IOnDBN3GSwayj++VhH4nmDyasVZOffX8WgfqwOc8qKjDXK8o/ewpkb50OsBq46+xa+tD6l0r2uwj14p8GJt6cU5b8Y0l5LO8ak/+FoXk8fJj7OaumJSglBvy8i4OdXooG9M+xJN7YBuve0N6qNhBO5DRJ4b8l0PXWjz9eMnXT1Z+5nVJVt09QCxAhxye8SF186uPvHVjrlvPbM1Yq+fnaYd/vGCPG8+ye+p9j9lX9h80NPf09NFeD+yjZ2aci/+S8T1SczDXxXVwp/qnUM5WH3eay9Z99TvBpbHhn4r73JjO9d8NFONKK7Z44W6sh3P2Z3/t6Vd9bZ8DG9Puqfpsb+GcP/03n/CEJ9zvZu9GjWFzYLgNArYcu6nbLGxWbvp4NkSEZ3PIBpu+3sOzceNPkOG7Mt4sjyE9JCYbVIfk7CEbkD4kHocHT8PE24ZIrg1dnT3IPtKH2FMaEz47NsA22fr1hWKCyQ/Z5rc6HTbF2EY9SX9I19fY5gbo2Yj9U6Nt7mLNP5uwxhbVXktEh70+MBTLjAlfLsSlNBY5RuVryolXaX5Af4ffDhbGSX6i9izFZr6tT2X5YZ8da14u1MkjfWSV2uuYrOOuFWiOYPrOpvhbd2AM4mH/V3/1Vw9jA/3NexB/88hevsiyI3Y6/Mw4VhQXsCem5FHXC1ugT3xk8c1Jtmd8rZ3GG9jJVrb7QJF+usriaxzKiG+gX8x0lFM2yIn8hmTJqKdjDuWxsYmt9fArv/Irh3tD3yCY88azhen/FsTkQ8m+vMW4Y/xOH89cuCT+q4zxkZYP8USXwroLV9W9Co7ZvVf+7gbuJOZTMg/nmPmeFLZiWmUuRXrndGf/XIcBb/Jrr3pbfvI/++NVP4Xp9xwOrxC4OXcQc5N3U7fJKbvhVzYQ0C4Y+jYZxN48mGjbIPDYRyuyzU+Y9qF6/BIU8a102Jn8lcRjc25TtXHRQY2b7Q43xTtt4NMFJZuNM10HtDlWehNre0KfXLCnjNhjW8lPspPii6f56ACljx1y+NnVVobsTB+V8cmLzyGlfph6oC+9cqRtHA6qDglK+ZJ7sfbhYsp36O3gm818gHb1IE42zTl7SL2x8ymflcWvz7pWNo8+HFgvIV+zLKbsNF/TN1+tM2O39oxTP0w7YhcHiCUZdtno2gU66jOeSXzzRy470AcE/eLQn695TZQHfdkEZTw20hcbf/SNAw/YiU6B/zU3bBdLPrWVcoLnENv9hm5Y89X4QEkfAZvAlusov5B+flds8e4m7rb9xnWvcJV4z8nei9yu83ovsZXre5n/xqSc9EjGsfjOxX2n/Q81xDPnXvs6MaZziW7+lFvy61qsvSW78ma7unLWz+ESmXB4AqtCyY2/jQJpu5nPDawNKORsDhJ5aoFsWmzYhJT6+rmadNOB7MebfdDmOuWr98/gtinGn/LqiEx8G1pjLtb+GCl5OejJG5+oenaibLVhyx1dJRgDufRWZAembbbYpV8e2DWWOWakH8jwqy3vPf1L33iNn366CJR8hvjpZcPBMv6qD9MGmeToG496HyLY1Q/invklr02GT0Rv2i8moFMMoG6sUf3NU3lkP7/a6ul0ADwFNumsvo0H8ce2g3iy1pfXJrSNAalngwzf0FPb8tLcl8s5/lDdGOSsMdKhT0f+5VR8+aJHBspH9kO28023tc4W8AnlGowZlavsADvx9Mu5tSv+YuCjfsDXxhczfrL46sat3pjYM248sSQ3/RuPexlefKh/C8f4dwvXtT/jfyhxiU8y5+QeythP+ZLHS1C+L5U/h+zM2C6Z060Yzumcwt0Yz4x7xnIqrnMx34nuw4U7jSv9S+1M+eZxzuexOqw+LmnHW/uOYfW5YvYfDrBbhgnZAOYhA/X0y01eH8zNFrVxBDybgAOUDUzbptEmo20jSb8A25jwINkpN+VtMg6exT7tZANWG8mBOMSIjMs4bJ42Pk9hOtTKgRK/cWRHSS+efuMvX23cNlr9a3wTxUkGyCfLXnHi8TntJifGZCB7xtpBpZiBfgcF0DehjeTDwaTDCdQXATsrD9SLW46QOeTbIU3MUbEoxY5X21e9zVEHlPK1Ip9g7MbAX/MuBv3NEfuIHtvq2VefyO4EPTbp0iHDjxzXr168HczZpte8IbLFTEc/4Ad20OSlqzRO13DjEldj5kubf7zssydm5RxzcRU7qIuPLT7J80muD5d9iCoGfWHapI/EYbzWGdv1r7EEY6AnV2TKNZAzr8ajT2z61emAerbJ8+/eNXlboF/fMZm7hevaT6+xwr2ONZzzc6f9dxsPhb85D7N+HVw13jsZ353mZh0re9ExnPN5J7qPJKzXZnQM1xkbH1Nva+2dW4/H/E6+eu1j8ls4pZNN8d1+ArsiociGgeYmb6OISsgs24RsmHRsWh0UbAjqQCa0+dHNL0x7E2QQe/pskumAvkuQnVAbFbPYHKw8Kespls2vQ6MNro27GLKJp14OkJzgs0U/GVBqVw+zP6jzx3ZzIxZ224zrgxkfqIvHhp8MnTZ+uoHt4nQQkQ95ADphjV07HmSneu3WhDUz11YHqPLLlzY9PG06Dl/i7qladud4V5QbpE5nymuzr7QG5DXfSvbRCjwykD1tYzEusfJnzNnQr5TXDlpkQJmMOIpBbPpag5C/7Ab22IV8KREb2ZE/tqwJPP3iVLKtL4oHdMulPnw+Wu990NBmNz2yM85Qv5Ie+8bAZ/7rxwvmiFxxIP18qlfyScbaSS/ZfOv3B6gwY5z+QDu617ibPh6KeOGcn0viuBexbq07OObrmPxVwc7dsgVXzc11cileesVdu/ol2PJ7SSznZE71X2L/mRXHxrbytbfmCC/+MZmrYPpVX9uX4lgs8dyfb378x3/85gF2IqcU5829DaJDhw3GBmWTyYk6ItOGAPq1kcOnjZI99m2ebVQ2Gj7I5R+yVZsNGzMSX0Sn+FcUY+OZ7bUUixhtdA5uYjJeBw1jFjOwgU+u8dGPwhzHPDjaQNuoyacPxRemvRXy1qGBHnttztnEr4Riak4dkvCKp37y6h3oixXxC3PcYfLyDbMut+zxOeMSOz4bntLyoz8CPES+w2xPM/Orv3pIn2395U05ZZUOMmzS0bYulHzQh0rQp50PbfPdWqWXLp/8g7p11QcEOmSyld3mCLTV53jIJY/YZw9lC5T5TtaaFkPXIcgJ6Ad62QB8MnTyO/nslD9j0i4OsZOLoP7WmHWgbZ3QaV3qw4fiMcbWU/rslaPqXdfZrw/YVHd/AX3FNsvoocIxX439kYhL83O35cLdyM1VfJ7yp+9uztVVcwF3OpaHI/4tObxj+qf6HilY83huLPXP+lUw/bn/QbbWWGb7Kr6Sze7EpXaOyc2YDj+jlZMIjimv/Izhu9HbUJXaNmgbB5l4NgTlrIM6snE7oNhU9KUPbLTJI3wTYLOk4w9/8KbdyjDb6pMmL6izZ1w2OZtiG6YY8JG4bPg2554yid2G2Ia52p0l8NMmj+jTTR/wJ6b+BD4SB4ixgwh74gJ2y5m+GRe+eUAOAvrxGpd849ENbMOMq9gh2eILtfliv7gBv9hm7GwZkxJNPx0+9YNXS9gFcvlbkS365hSpQ+XMnTjFlr/yA9NHdSQmeo2RTjHxl5w4gD9rqtj4C9mjx0Y6zUNt0C+//Ioxn/kH7XINrmHrml5jnDGkly0Qi5j4IEdePDMm15I2u9rFMXMX9M/45EMsiDwqLuVqSyzGAWSgeJXibT7oiCs7QKf1H+qDWX+oUOzPbLgkV1fJ572SPYY7tdGcHZu7yb/XY7tU51is9O80H1e1sSW78rJ5FbsPB+7k+r3K2Pghv+XvXAzXzeUpvVO2ivUY1ngPv0LQE88650YAq0HtdVOZMrURGTd+9m0QPXXKR/IT6digbBzIAYwN+uzob/OzQWkbB91pTz8Uz6xHjQPiBXU2+LJxtrlNP8riEQsCT8/6KrjYofjZnXkI2dOnRPyx0cZPRv8a+wqy2UhHXYw2bjaRsWVr+p/2O5iYDx8YOjRBBwo6UFlMypXSJasNbItFjiAZ5bRpXMUN4tKfTHrixPOeLJI/evkrlgjo1pYH41LyRZ+v5gCJlQ4ZOSGvHRVTJX1rYeY8WXYbB9vNn5h9YKBnnfETyOW3mIC9xpoMEi8+4K8x4BUDKPnFnz7EpRQjFHv5qp08Yj/brlcwnmyJq3gC2XyQ0y8e9wTQt8aeDXLWQHWQA35Qc0Wv+WCveCO+ut/A7Hs48HD5vVNcEvdVx3apfGvibuJSm1fx3XqES8d2r3K24tg4rmsP7mSMl/IeabgXa3ELq5/Z7p4a7mZM5iDawhb/lP9jfYdXCDrMMOqm7kbuZj8H2KbD0LGgIEdk1Nlz47dRtIHahDpIdFAh3+YA+Zg+6dqMehoiRrH2Nb5x8EV20jp4PMBfN6TqsyTD9jxw4KWD8Ge+8MSCxC1WMXpCW9x05AGyF2bM6vrKXzmRu9VnUEdk5KoDwgQbja1+vOaFbW19+UwPmVPjMyfK/BQnysYaW7y1bm7lSQyTjyBe+VLy0Xrl03gcOPDEVb47fKk7PKUD2Qc+8gPKdNlXlo/kqmePfMAjn05raa79KBtKvtgRJ9CnU36KaVJzUJutKBsztyv0TzSP+K4zevxq50+JPzFjC9kmq86uPJDJh3qxwhxP/UBGLuSy9hwjH6gcWwfGTYY9feVQyX/3JERm+tPuIPxIQHE9lJAzfivD2j6FS+QejrHdS8hPmPVzKA/3ImfXzfHdnptz9vRHK07pnrP7UKN5vzSuY2M+h2Pra16jWzKn9OCqsUz5Ld3Jm7GdwlaMhz/iclN3s3aTbsNSx7fBuKHPgeSMDpl4Mwh1G6+SraBNLx/q7Nto+JrQB9lVRvQdUmwqSu3QGOiXnDY3PvGQ/uzBrKdXrKjDJmQbyFWH7GQD8dth1ngdoBwIjFmfsoMKpBemL8Q/sgHLXXOknHL6yAS8GRfUZk8sqD4xzfmf8z1RLA4UHV7YiadOZuqpr+OSo3mAnUimev3Z1RZfB1N+8dmSB7x0lB1iW3d45So/MG2Lz3prPLNMjj+EZ77zm002uq4Af+ZGieghMbGlTq415IkyvnGyn24xJT/908NrPFMPVdeHoPUvZnOjXw6UfOUPsokH2dRfHcjhIdcV+80XzLgmtBtLemiOp1iKg1z3CGOo35pgR37pyg2d5i6QEds8wJILa4wPN+4knjkuyNbKX3FVn+fkHyk5NW6xnBv/imPy67hWuS29S2xdNV+XyF8S23XB/6Uxr3LHdCd/q/8quHSsl/g5Z0v/aueYTvwtv1t2YNrqng7nfKxge/o45i9MOTgluyLbxXsspsMT2OkItbm4ibu5IzJu/mgeBsikr6wOZNt8j4Efm0MbEX0bCN022zac7PNdvYHaoHrVgD8xetqpz4EBrw2SfokJ+LPMLj0bl02wDS8KZGcZshHqNx5jbdzie9KTnnQ4kDhUGTu/fDZW7WkLygsb+hEenQ6e6vXBGvsxlHfz17xkc7WbvUq89Fo7jTlbybI19eXEIYn9xn4OUx/kuRzkTykGsekDdbJisFbkHfQ3d3SUxZOOcYm1cSmb38ry1PpDfMz1lCwf6oit0LWmnx2wxtV7RUX/ep2xQUZfsamvseLNGNZSf7EXV09iO8Tis0sWkstu7UBn+jBGNtlrvUD5g3gT+uh2HcXjt1yo01W6P8h7PHHR51eJx+dck+ypi6tfIliR7DMTysEE3goyW/wV18nBKZ1HQk4vGfcWLtVrbV+C8pFt7XjXydV183tdPSjmq9hYZbd0463lQ4l8XnXNXEV+S3aOdWvc141Hudrb8rXlE7KzpXMOdPO/ZSfou/kRH/ER97uRz81vFdZGNgmbBdmMu/G74UPO9OM5QJBPH8Fs04nqm4cDF3mH2TanVb964N/m7S+H22Tp54NdNDfz7IRs6u9r7ekfsqcdP1ox+cpsidWBBq85MF4bus1WHckldNMrN1Ac9PGVxta8sM1G8hMzpi3McbFZzoB985/daWv6Ek/zicwvO9lUlgvz1l+pA3n92Q6zPev8zrb5l0cfDNiSaz6hNZV97f4IL/9QDMWYfWVjIaMvPWU6coT0N0bx4IVs6of0A1ltfuhDa5otY9QnHiUUXzbJ61NaT/rFXszaKN9zDtlpDUI5FQv7c/z0sov0FZMy+yHb8m6daBdHY6SXTiUf8kLGPAPf5ENxdC+C5gLIFzuQK9fZybd/KAXyH9b2/0m4dGxXzcE5+Ycyp3O9PFx+j0E8k+aaDHcS81V0k72Ov+vGOPW26mv5cOI6MdCJTuGStTJBfrWJd8zOyk932pn21Ff7E6ss5GPVW/vDbG/pqt983/d93/vdtB1wMA7M/c3cjV2pTXkaw+um3+ZNvo1Uvc25fmCDbvUV9Sej5MPGg9ht81UmUywTM2Yboo22QxT9+ujpL8702FXi2xx7mjtjW9uzhFVmta3Mt80bxCBWPtXlke+eEIpdHsoFGWQc2vnLF5S/+OWQjfSPgc4KvOYeqYuzvGaXnFIbpo54tNH0QT878atPOVh5/NTOvw8fc810kJd3fWTKG754oJw3FqU4xA7kI+jQld/s0Av0+SIrX9rx0wvqjRvWGNhnK13jEy9euS12dT6heY/0owk+81/bwV/uksdzrbPXWuVHbOU5OyGb8eloFzNbyLxkr/tI8tkI2nwZHxtsISAP6bDt2mKTbSArD1OXHJ1J5B1gi2Fibf9/EVfNwVXkn5nz23qfaP0e48PaV1u59sEW71KkO/2fwyl/a991Yztn57p2t3CVsV+KLZvFrG/Gf8r/dWJbc8PGtHPOZv3TzrH6imk7uWNlOBffMX833//93/9+G4DNyCHKIVS7DZZiN+25IaD6wQ3eJmCDINcmMTeUZLcwbU05mwvoZ7fNWx3PZsOX+OkVa/LVQZuuDdcm2UYPxgz5QPTIsJH96BjyN+XWduBLvvQbBxSrnOm3Mc8DrTjNUXOVbnrTh7yUL/1KFI8sGdT4418CNhH5OS8gfjYbh76QfWNrfPrNNXn9EV71MNuVxTH7wDy3pifkrAMcmcbdejMeMO/++r/554dOfrIRn54xqSenhNr6xZO97CgntKPa5Zgf8yZ3xawUp/GSs3ah2Na1XB+9OT+h65aMHGk3P/wr5ZE9Y8qGPjr5DeTj5x+0xUBPXtg0ruzoa4zZw6/Eo9fBd8pP4HXNkycrDnlUz7Y22WKszzVonPgz/ll/JKDcPJS4bg7uNHcPd+7lWgwz51v5J2NN6Vv7j8lXti7DOua1/VBgK+YJMUXXxSXjvBP7xkD/3Fiuirtp705sHdPFv8TuzG115SU5T27Lzzn9VedUrDc//MM//H4bhYvExuHmbUOKbIY2LUZyvAaw8l2odNzwbRb47KJsAZ/ZVVdOW1vtdNXZFnvxs50fcm1C5OoP+vFsSDY1sbZhksuvfvZg+oduSJA8xNvqg9nuyVa29EXiC/pBPKjxmCNP3pqv5pB+pfGzXTyBDWMuj+yVw1AsK1ZbkCy72RY3eygd/iaSNw8O5l6fAOMkO2NYcxQPsYGXDDjUsBmPTDDW8sWPV06ym018OmTY8p5y8qu9gF9e2Zh1+fAkz5zxbYz6QR97+S2GiWw74Ill2i92dl237JVDcvq0jSNbzXd28okCOdcHWTbrYxfod2hmn/w6F9lUn0iObSUbxd5hkx4fQA6mHTbwXUfinPIwZcnJnf78JcsfW71XrI9MMdLL/oS+Ld7DgTWOhwrXHe+d5ulSfXm523NSrqfdU/nf8r8lP+XUz8W9+j8nfye4xL7+O41jS/dS3lVA/05thFNzP5HcOb/H7F2S23SV084xmxOr/dXXJfnakpm84pq0Ao/OKX83P/iDP/j+DLRhVLqxd0ByCOiARLbNFoUc9XQDkVXa2NpMgR3UxkWmYIundrzZjgfq7KI2cxA/+8VMDvRXD/zjt0kh8XYYYCf7+GuMteVlohys/tJxaJJbIBtWecgXFId4O5AYrx/sF29ff8+YyIfs6K+c+dNv7GyiOT9QrJPXOGfJFr9IHJPIZEd+8TrM48cjx451mV1QR7DGQwZPbuQD8IotPcAzxubZ3Msrn9rN/fM8z/McroGeyOYDTZuVdPg3djbIyy95c25s/AIZ/GJs3BP5KKfmhxx5kB/Qj9cHG3x+Az/lEqZPfWzH10by0RjoKaF4yp82fTw+tekB+4CHgG0ohuyJO79K9ld9pC89MuUGj98pA81lMYM+9XJSXtUDmXmtTUy5sMX7PxnXGe/dyNGlNla51sN1QPeYX/ytPjqrz60YVt1j9iZm/znZO8Ul9pO5k1i2dE/ZuxNfW7iT9REusSFucmv853STX+Wyt4X4p2zXN+NZY7sK2NuyFX/L31Z8q43o5gd90Acd/ilZjRS7ebvxt/npc5PvCZnN0WHDRtPGAnRsZA4BbMSbaJNRkrGpsK1ki6/61JXZguJc+ZB8PjqQsR1NObG1wU1b2WbDU9I2LvpTl21UTJBudlfEE5v8dsCCrThmWS7JydXMl1jF2eEr2x1k0gn5mj6mH/EhdfNDd85R8lMPn3xxwhoj2WJxWCinSJx8pZ8sXm02UDZAfcagXn57UrmF1Q/whaYv8FfofTgDdZQevniUxdLYzQk72n24CGTlQClH2aeXrRk/O8Ymd0BGP6KvL774Wl/4xQVy09jSby7YiYesq8YywR4/2XZ/0Ga7sRR/pJ3eKb7Y2UXxYMrHr5QT9x6+y+kKc2vc2Zm2+aLHt/HS19ea9PQ8m/hb9uEY/5GCxnsszvrDufFcZ7x3I0f3Ks+n5vYcZu7WPIbsT5o41z6GS+XuJbbGc1Vs6Z+yeam/Y/NxN3AvbcN17V9Hb+bzTuby3JxFUJyTF2Z71g9PYB+sH8DIFKjt5u3mbmNC+DZiZNNqo+zGbwOByjWJ2mzqZ9eGkqwNpINNvpXFla3Jj/ShlbduhGIUaxs2TJ1pW7/YjLsDIluQjcaQHl5oIwS2krHRaju00VdPbqL4oLoSiSteBww2xOrAhYf4cJBDcts8gVjFhEL2EX7zxDaiw06+41cPx/rZi7QdEMTGV36am+JSbzzIGFs3+iYBvrliN/8IqrOjTK9+mP6b3+YbD8mBa6Bc8ImfrQjwWyOAr80eCmyUA6hkE+gUSzyoTp6N6mz70KmUM/6zSQ5vQk7YIld+rFVzVJzpz7JxuR/Q70NslK3sgzbUh/R1PbiniK98iAE/PZj1bPOtHpERnz7t8sCePvaNTR31QSqbCDyFn/5mfeIY/5EEMcrHFspxFLZyP9tXwXX1Ji61cWycW0h2tX0VG+GYzjnbs1/93DgvkblbOJWH68ZQ/KfGccr27LtknsicsndVHPN5al4njsUT/5j9Favcqfasr77bI07RiktjDKut9NcY21fC9P07DrBbgeWEsWnQJtFhzs3ehmpjVbdharfJ0rFZZguyV71+NtikY1NB7LShlNzK7AE79QXt/BQH6iCgr4153aD15Sdkn25PZ8nZ5MRYDHITsgPZ0k+eT/1ApnpIL9CfFCbP+Og5TKjzZb4QyGcfPmzW5Rllgz5Sh8aFx6Y5UjbuVX/q1F5Rn1y2lqDDj5JNPoqFTZRfKB4y06eDijGmB/VBNtGsJ8sHEgP7+sQ6efTUW/MgnmwFdbLNBztBXzaV/JMD9Sj/KF/5SIZ+cvyBknzrQV7S00dWm39gA5FFxjltgxIPio1svvCKQZ8yGxP64mUP2MIXs2usXDfnAS8+W8bQGPHYRHjAJr7+8i1O10FjVe9Dif7ieu7nfu7b62DGukL/MyPmmOYY5njXsV13rI/0HF0a36l1AJfYITNpYou34lz/dXEVu3cSwyW6d3OMbK1rfZ1H7UvkVpzrn7gbY5pxVo9/CuSicIy3hS1+vHwfk4k/y0lh5U9yz7/9CgFgHsMMaE2MNmM2ZU8oOhTZJHoq67CkbFOYgYRsR9o2lDYVPDbZaeNJB8SwZa965SpDr02JTbbF2Wa+2s0vVNK3IXZI5LeNT/xy0wZaTOQaC7Clb/rSTh7qS27Kpg/8gXlIJnlxFKs2/+SaI3Nm/Olls7Z8hOxFZM0Rm8krq6+IT4++PIq9A1a5133u35QAAP/0SURBVJZPmPkHuvlrbOpsaRtPY6iE7JAB9camHgWHF4dUueHDoUe9uLTVW/98sTft5x+fvLFWb6zQdQJ8gTbSNjY+indCDOTkRD/CEwf7rTk+2SFbDGSU5jBb+hpDthsLCsVOXoz65EIdj6/0QR1WW9rki6lrUR0BXUS2Mv/a5OeHH7bZyw+eeOiQcUCWF8A3fvmdttFjHvOY23rFu0LfpdiSzdelmHE01nO0BT7laPonW3vyVxzjT1xi55kNx3LZPJzDzEO5DutcnMIlMsVziewW1vEUW3S3cMzWpT5OjXMdQ23llJ9yl/hd7YZpP6z2juleCvro0vxs4VR8WyCzxn2MF7Z8rL60J8Wb46uEwxPYhFfnE7O/Cwumjs3YpuEgRMam16bRwQj1lSuyUZCbssWTj+r6bR5tiNltQ9bOL2gjwA/ZhWxPHzZJftjB69AsXiCz6gV1emKUiw4b0Hi186NdjDDjdBPcQv6mX5ix2JD5mxtw9Qlt8Yi1QzY9Bw+HNX+wRA9fDspJMc/Y1fUbl3FoN2bzQ2/mbmLaDOWwfJHRTpdN4BPE2YEF6LQuso2XfPEW6wr8Ce8/ygv7cqEUo1yDdmMrh9a7+PU1hgiUrZHizG8xsaU/Of1KMUC2Qvazp25uzQNd4/ilX/qlQ2xiLx/ZRSDmeV2hYspnfaH+5s21zoZ2uZ66yc969irJl2/xWl9sRtmbZdeVb0iUjWOuFW0x6mNTm59ytZVff3TZfG+BDZg69xL5C2t7C8dim/MYyJ4aS/38npKDc/3PTDg33kvmAVYbs32VfN0rWTgmf1U7l+JO/SV3HTvnfMz+c3PsHrOCPr10L10n18W0f8qXuKIVp/rOgc7q130GL3uzjI616bqHxz88gU0gTOOgXhDx137k5u6m78lFfA5tEjaIHAM5G2jySL0NiV52p+/aDcRmY2Ov38bT5hVv6sSb5cQ8aICyTZ2/NnU+lBNk6fKVfzp4xi9WBI2fDio/kH62YI0LqpOpXslP+Qzk8kEOGVd2UXHKaZu6sTrIilc5D8bFp84OFI92edMG8aCpp974JtKhz46YyGiLrdjFA9Mmew5NSv3k6OQvuVlO4M1+Plvf4mevuFH5AnzyiKy8OchlRznHmnxjAv3k9OWrdU2WnHHNGIP6bBdjOaBfXhyyyYqfbSDXvMUrrikTZn2ifPMjduuq2LJTWbz1h/qhJ87s4Dcu8sWQbSWf5ZScdrbT1YdnntTJVPI3/YPDv0PxRDah+uRdFad0G1v1FVu8Fcfs0z2mfyqm+i6ReaTikrxdBZfas27lhryy9lXzdan8Ve1COsUV3Uts2b/UZ7k/ZuNO53pL370k6D/mA3+NK9nJ3+JdinzMGGZ9RT6mL/VJYYsXVh/JTJ1JE7Ot7jqY18Jsgzo8wwF2liVhYksOMmyD99QuNCBlE2xzQG2k9GwUNtIOszYPm14bNDkopvzOhOGJI1ltm1Kb0EzAFkFy2qttlA0+qhuXAwpf2Uk2O+lHxu9wZSN0cKCL2lARfcBDjWsiezNupM5uuawvnRXZzxZkB9+BQUxBn5/rMl+ITIcDOtNG489WJZ/GTE8bkUsv3RCPXAfs8mQt4UHzQNd61DY/kG7+yYXsswfK7JAHh5fWd+NCxtAcejrXnEIy8tQrGtnETybwa1z6kxEr0EuXTDmcsWzZhGToiE8c2sUF5RD4mIfdbM9xsVm9srxVR+zwIU98TDm8xpVedahOHuRf/Eif2NKH9MqZe4g5SRYVVzJskXNNumbyJeb8B9fseoBtLMUAU+eqSHe1N9uwxgarzHXQeMKpsdR3TAb/lP7DibuRq2O41Ha5mXN5nXxdqnMV22SvE8tVMX2c8nnVWLbk79WcH7PbvG71H+OvuHTcq618XxWrziU2Vt9zbFN/y1a87jvK6sgepA3xAO/oO7DqJWCWGQoF2cbtCV28QDfb+to4gD0bHGpTtqnZqPoK1ibbIYQdOmsckJ9kDFxM2vyy0YYJ00Yy8ZR4WxDj6kNJv8OMDVEbPzvZr63Ub1O3ebIjB/Q7YOjvoDbjzn+28o+X/MxZqK7fOOjg8bnahNkma/Pmq1yaI9R4ET49NMFOtvSxo+TbYaEPLMkoi085gUe/tVOcctghS07ZLJfGqw109Wc3P9lpjoN+v+pgrEE//tRhX2kO+EiuttjoNDfiBTKTyBvXtB+0rRnjmusbQSWkN/WNe70Oyn8HfPJKJA4Hu3IH017+QanNJl1tpfEYcz5ao1BOshGyA2TUyRi3+w0b2nMdk0lOySd+6yJZ0C+e8kFOrHhk5lwHfn0wIpsd9VPlMyvKKZwayzGZh2v8zcvEVix3Gt96j5jYiiHQmQRzLcW7Co7pZA/N+Vwx401m6hzTg62+dFY6hi2Z2V7LFVtjOyZ7LzDzF7Z418W5say+ruJ75nbLzzHfU36VaT5m/yo7ee7FMHkQH+qbMrcPsBxGKyZv1jOidFN347fRTSdRclvtCQEjG47STYJNG5ENpUNTm5FNDKYd9eLMRzZtxsCOjZCNNkcE6ae7hZWffpu+erHzBdmEfMy6sdAVp8NSBzN2QL28AP60E8jgdXDLhjoK1WccK2/2qbNdzvDEqzROHzqQdcA3WuVWiC0f2QC8fG7pBfpsy5WDkXY22Zp2xALqyDjKOX3t+HQibTLWuLWXTeAL8CD5ZORLKSfZZccTbPHJEZnWJUzbDld8s5cMvrhdE/j1F0Mgly1lscqTA2t2xAZdY+w1z+koyx9bqDFWB2V+2Sg2EH/rYn54cH2UmwlttsglWxzkHSZBHa9YoZj4ZD9/jRWyRVYe1JVyoOwJ7IQx+WO+UL9yys6xrONKFs2+9PGMCabNqTf5Eyt/9T2RLJlj9uqbFKZt9ag22SlzDMdsXgfFeMpOfclOTL1pZ8pNveqTYLUD8bo+TslAMpO2cIx/CqvO6mMtYcpMKnaIdwzn+reQj+vohevob2GOdeIY/xKkeyq+U32r76vGku1jPq7iO0ydrfosu2+rn6MJ7Zsf8REfcfsA201zxVRcjdFzs+8vtG0Cc1BTd4U+squMtlhsfsgmZOMwUJu/jcVvezrw8GfjtUmRpRutiE9OzEgdbGzslINuMrDamjegkt84pizb84kW2x3qylv+08WfE6rf5isH+GwYt5JtfHbKeTpKY5qxRmHl11eZTcDj0zzwr69Y9fGpLhbjM0eexhsvPdS4yZFXz67S+nnSk550mAc+yBhD8SirT8TLf69maLcuHHbI5VOfupj4oDfnA5JVyjMbrZH4yUzgNV7+9Yspv2LDR/JjrNnjX33aFJc1kE1t8ZSbYsAPUx+yiawbftPXZptv9s0DvvGWJyWf6kAeL5BPLj55RDaQM17+O5yj/JAlM23jI3L1ix26vvDxioFMwMeTd+MD8vSy1ZywJz7y+DN2kGO/RBDo85k/9Yn6j8nEA/UpU105bczyHLIxsfJme+1rXibW/IJ2vNXeGveKLb1LMXWO6Z/zOSk0ZmMFfcfiX5EOZGfa37KRXEh+S3bFJTJwymZjq29LZsWW7JbepXmDLbnV/pqrkJxytXNK725gtX3OV/0z1jXmFY1hymUn/pZf/FOUzDGc6juHqTt9zXuI8hRNrPybH/iBH3i/mzKDlQnMJE/ULmltRD3xCrM+L2qYNtUn0SOffn5shv1rSMm1GSojbRtV9lbfbUr6QOxttm2GbNjQ1g0s5P8Y8g38s9vBo74OMcngzVhnOxs2WO9iKvUbp402m8kW95bdIP4okKWbLX2z3gZffoP6JOMsjp7sOdQ2XmV+leT0gzqynvDU81c8SvZnuzp5ubIuHcI6zCLxTzmoXh7NEyKHr9RmzzjIoDWneLOsf9ouL3KYDblgFw/w9CG+Q+tHLuQU9Bcn0EVTrzp75IyDfnw8tunJG/vFI3d4ybV+0522o9ps0qVHDmmjrlH1cgKNIzuAl206yYpRfIjt1ggio6SbP37E1HWXXHr62aGD8JMLbHWAJUOfTjLKKT/71KNjmH3T5sTaPoct+WMxbMnGmzqNY+WtJVr1ZzsC/Cl/KaZO9rTNz7QdBfXkJ6bM7MO3JiAfE/HSUW7JwZTbgv5o2t2yt7ZD8rPeeoVsVp8l6JPDyTvmC7IF0zZs6emfcurRxGyvfZCd+o7J3CmmjWP1S7DKz9ivinO+r2t34qo2Gk965+qT4ldu1Sdufuqnfur9kmCzarHaENpU9HWD156I56moDQLFD+ngTVoRr5Lf6tmw8arbfPXNOMEY9CmLB9mEbDw2L0geZiz45FAbt36Hj+wAPll9U7/2SqF2+mLXNla574lPcjNOMvlUZ8N4HMg83cuW8Tv4ZX/NY3Yr2YmS2YJ8iM2BsJ/WKlZQh/yhGSO7+sSG5JOOnFpf7DusygFZbfLGgO+JOzn900eEx596h9Tmi62onPR0EehU6stP8tPuPDjiIXayhQ/x6leCshiCHOGLtwM7X/EnicV1oE5OW5k99eSmfxT47xpqbJAcW/ybJ4dEuSInnsp01ntDNlE5LqaZG20x4LEXL3l2Jy85bTAGa6hYldpkigmJA9iUXx+AyaLGUpud/LIFdPTRB34f97jHHUpy5CE/gY7+7JeTxhRpZ5tcfKifr9pszPFtob5iWn0eI3KNXyxBHxRLY5mkD806KqfZqGys5F1n1eNXXoLkQSmfbLVe1EOxkENkQKz4SvrqCMjhs5Nd7eY2H3hbpC/byYGSfv1bNuJD8cBWvVhaT/RaO6CPzeqVs84GMrbmOp3sTvlAbsafrVV26rCvnQ7Uzxcem9mJYLZRcigkO/XvFqbtLZzyV98pmUtwzPfEndgPp2zMvjme6lv9k3+sDa2jSeuYb+wPIw8Q7MJ2w3bzjih0EVhUHQpaFBa6f7ygv0rHO4djwcDUn/0WqNcUbKgd0GDGXkwIT6yIrjjbiDvM4Gl3YcL0H2Yc7EZdYGxtjWVFtpOd8dbHrniU8ZRd7HTSnzpNtvHKkbjwHeZ/7ud+bvelX/qlt+NE6ZTHbFd/kzd5k91rvuZrHux853d+5+7f/Jt/c+CTZ/Pd3/3dd8/3fM93aJe/9B3++Hvyk598aMMLv/AL7/7En/gTh9jY+ef//J/vfvRHf/SgIy5z4/Cmrd+Hohd90RfdvfZrv/bhwNC6E7eYEBlziPft3/7tu+/93u/d/fzP//xBTmy/7/f9vt2bvumb3n5nkV2Hv7/21/7a7md+5mcONhvT4x//+ENfeRGTMfi9VDG9xmu8xu5t3uZtDod3/Xi/+qu/uvviL/7i2zlg62Vf9mV3b/u2b7v7l//yX+5+8Ad/8OB3gqzYybOB8NCf+TN/5lDK0Zd/+ZcfZIxvBX1PAV/xFV/xEJe45dz111y4RsRW3vD/8B/+w4c5lWuxf8mXfMnhugVyf+yP/bHdq7zKqxxikgelDw7/4B/8g9txG6O8yoUDqDmbefypn/qpw1r54R/+4UO/2Mzja73Wa+3+wB/4Awe55JXGah7NEX9gfen76Z/+6d0/+kf/6MCrL2i7Jh772Mce7LLPVodi9o3t8z//82/rGpOxA/va8qsO4n/DN3zD3eu8zuscxg3mG9j+D//hP+z+23/7b4c6m8///M9/WJ9v/MZvfLgHlnt9yAfLz/qszzrYKAYgJz6+jfuVXumVdq/7uq97+Gal3JCXb3P0Ez/xEwc9fNfCh37ohx5iOIZy+7mf+7m7X/mVX3mQ+4yY8YQXeIEX2L3/+7//7XwAWyDW7/iO79h90zd9023exDGeufyzf/bP7l7sxV7s4FOOkfX3jd/4jYdrVoz6yFifrlnrZkL/9FH8eOWTXdfAv/7X/3r3Xd/1XbsnPvGJh7Z5sq7/yB/5I4cxNj7z/zf/5t883KeybQ4+7MM+7FDno5itq8/5nM855D0/L/dyL7d7n/d5n923fMu37L71W7/1oHMJHOo/5EM+5LA+5PVv/a2/dbhvzfFB4/rdv/t3H+4r1qbrfq4RSK/SvdD4XYvitGasMXl98Rd/8dvjN44J9txHjMda/4Vf+IXb+XOfefM3f/PD9SZvUAzs/b2/9/d2v/zLv3w7hhd5kRfZvd/7vd9tWagPzM3f/tt/+/aeZJ2w/4f+0B86tI39b/yNv3H7OsRD+VyB9/Iv//K793qv97qdn3BMb8vOKUz56pfauKqvc7iqvZkPoL/yjmHNJWzZC/Upp9y63mD2Jx9v9oXuseHGfoEcPDcgVDCELWCLSykA1AbcBuCCdEOaNiaytw5g+gqrbqD7vM/7vIebXRfgPAjAtDdLcZJDZMTswqFvQ2sM+rKBqiuDOPKJxJJd9hCZVS9Mu1sy2pNHRvzdCMTKfjLTntINSEzGF/8//sf/uHu3d3u3Q2zpHAPb5voJT3jC7l3e5V0OhwQ3Gpth9th/13d9192Hf/iH354LfWJU8vdBH/RBtw/dYnZz+cIv/MLDDQnvkz/5kw832mLaAjk37z/+x//44cBkTOJrPo31v/yX/3Kw62BR7qEx2mQ+4iM+YvdGb/RGh7bDks3jH//jf3xo03HQ+Zqv+ZpDjB0MHDqMUcnXS7/0Sx8OUw5s+XCj/7iP+7jba8cm53Dxnu/5nrtP/dRP3X3d133dQW4LxUcP2bC/9mu/9pAzPt/5nd/55CEF5PUlX/Ildx/90R99OMCZCzHIj4O3+YN8OEi8x3u8x2HN22wevz+020iMDxweHO6BLTq/9mu/dojFmtAW99u93dvt/tJf+ksHHl1x8vvVX/3Vh0OzwzNZIJ+eQ4TDgTy3jvlBcujwAOI3tzZh66i1vwX+jcfh+wM/8AMP60Us4EOK2KF4ToEfa+O93/u9D+uUbWP5vu/7vsMa+9mf/dkDzzpsDRrXS73US+0+8RM/cfd6r/d6h7Zx6TMeh2F6pzBz8wZv8AYHXfGy44Piv//3//6wTvHkzmHJvBwbE74cvP3bv/3tw+8KPle88iu/8uGDl/v9atuY/+7f/bu7z/iMzzjEpT+ZbE2bXSPW8r/4F//i8KEnefGz8+M//uMHXrLNs8OSNS13W3GG8kSGjf/xP/7H7hM+4RN2/+k//aeDLWsM9Gv7UPuRH/mRu3d8x3e8rfPxH//xu3/4D//h7fzS+bZv+7bDoY8MwnOvclilg9hzjftQ7mDreiC7ojFPWK/sOYxa9w7W7l/HYJxicPi0Pt/yLd/ydryBzE/+5E/u7r///sN1I77Vt/G7nt7pnd7p9r20McIP/MAP7D7lUz5l95//838+6NfPjrqcyNdbv/VbH/zpU7oPvNVbvdXux37sxw5yYIzyar26pwV2tT/zMz/zcOg1DnBf/ZiP+ZjdB3/wBx/suif4wO3+dAnE4aGLD3zuHWIu9tA4YdYvxap/FRvX8XcMqy3tda4ntvrO6VyKbBSTdrxZh1mHub5WWdCedkE7Htw3lX9H596BC8zTBZ9cHSC1Ldieklgs6halxVhQaNpuYYctmRB/6qi3YarztdpQ3wJ5NwAXVZ/sbbo2AZ8ybebIpu+PiPhxoa0oxmJD8sFuhzW6LkYbiPrUiWrTr4zqD9piFzfSlnPx98Ei6BN3NzeUXfGxE5FZafrvBgVudnN+xeHpydxEp+xXfuVX3s4Jna1cAlv5JrsSW56OODzbIIyXLbGx7/D65//8nz/cuI1JLK2J7LupOrjZmNmUuz/4B//gQabxeBJi83O45dPBwyboQ1m58hRbLNa8GOi44ZNlg5ynaQ4gbJfnSXNs1o08lluk3pyd0o3IGfsHfMAHHA7TrRG29SnT1zaOmZvAL3JQ89QZ9IuFn+Yomrr6HRo9LfE0y4EP8gONSb4c0hxc9HctI3ObrnjFo6wdzfEnx44PIH/uz/25gzwe4Dc2uThG+tlrLQO+GK0DT1FtpI3f/Iu5eDzpet/3fd9DDNpz7DP2LSLP13//7/9996f/9J/eff3Xf/3BttjFk8/k9G2Bz/yW73Snr6ixTzqFGQtiHy8+++Ua5TN5cM364Ogpr6frybCFxCC2cmE96ofGN4lvkCvz5JsPOmyxk93idW/3gfMv/+W/fNB1L/Bhs+sQz/XdvYIPULqnsVHMrnVPNLvflgNUjltXMy9ojqn40p36UfI+CDmAf8VXfMXtsYG47WM+ePm2TDu9SuR+7cHBX/yLf/Ew5nTF8W//7b89HOwdXiEdlJ9f/MVfPHyw+LzP+7zb92G6a/zI9ezeLMdkEHnx+GDpGyb19OUFkgtk0JrDlRpnsR6D8c7yuqB/pzauA/kJ5fUctmTuVuwzhpmTrXo01+6s1z+xxZu4zwLrZsnQKhyvRWWTd5D1ac7mbSF3iLKA5g0xW3OAoaABfyZ56qkjfh0K177s1J6oPyKDLHbxOYS4kN20PHExDvlwo4tsql2EW8hvNzH2OrxBh9kOX0B+xnrM9kQyXex8KLtZiL0nT9lH6U0f6mIxbnp9EFGieQOBebOqLS9uQuU/f9/zPd9z2ERg+gT9s9SP2C4G8RQTP+yTd0D7r//1vx7Gbcw2QE9xjJ1svujiTR/kPVlwmOXjVV/1VW/HXb/DsPXgHUltmxiZcsHuN3/zNx/yj+fJ0v/z//w/t/2K1VflXpUgo10fqItrUutCTI0dxE4+fSV7ZNLVFkf0V//qXz3E65rshl5e0Jr7SmAL4ZlTT+3oosavL8IXC3/Ik9d/9s/+2aGvmOk1lzMG18PHfuzHHkoy9NuEXIM98TYHeNmMml9l4yMDP/IjP3L4oOPaNgdQnhojPR/+emocsckeGTbF5UOtw045yBYbdLLZOKxHXwXnO7BHRlkMzfv0ac7YcFhuTMA2fbIrptysT+Q/3/lfqTi20Dy0VsmX/2kfr3seOb5Av29m/sJf+Au35bNHlk7jKz6HWIc2csfGhm+teKLHFtnADtt4chh5kuzAS9e9wBN08egzhn/1r/7VQTef1orY+QGyL/MyL7N7wRd8wdv+klXqp986W8k4yZAtJnYiMcx5IedaKEYHQ69eJM+mD28OsfrJI34aPyjZ8U2SJ8DsITKeJqtbu4h+85A+Ppm/8lf+yu1vvLSLY5I+Mf7QD/3Q7XjIgg+6rnXIRnMPyaPAZnkR10rmno3pa+qDNjt3A43zTnBV/Sm/6p6zdbdiPWZn5nrNO8SbZQTW7XVwn4l283AgsZDnxFcGwbcIc+7prK8WvBvTu4YWmj4HAuTQ0YUF2ejCrZ5NWBPVhgyrnam3or5JbEdgw3Nhi98BVC48bUNeWbCRKX2ClaN5oUw7tcGFyaaxZ9+FxrZ8u+DIQ+W0dQr5ljM31Z4gqMtJN0o+mgtgu/n19Yx3lGwSysiTJDxfJ5Lrpj2RfwcXn6bF0c3l7/ydv3P7prc1HnpbPAdHX/d61QH5apxNJGbj894sX9aU9yzlMuD7lsDTSF/jv9ALvdDBLrBh7ny9DQ6axlcc5BxG2QDz47BsDmesDrVA3mbhyRvQw/MuprkWb7bKgbYnRL4SlmOvRSCvKSj7ut/aWvMDL/ESL3F4wuKJETs+0BlXcHByiMTvgxlkS0zVp94Kcl/wBV9wiHduUBPWVd9UuB68YgLlAXyd7utcX3n2V/vs6Hco+e7v/u7bH/LwrTP+HGDlH68cBrp/9I/+0cNrEPIg33Twyat7X9fTcvMw9Yvr9//+33/Q966cVyjYUff1sLmxLtiRP1/FGp98FY/7nafInuRZR/LDNhnf4Hif8VR+vRvoGwEHDvPuvlls9ORmfhiIroKpl67SO6a+onV9W4Mr+WoZimfCunz1V3/12/cJ72v/yT/5Jw95Ip/OK7zCKxy+pvaU1TjNv3coyXkNwz0V5NJ4yTuQ+eqbXHbE677rNRzXPuQnGWDHB0vX7+ynY6yf/dmffZjT1oI+8/tlX/Zlh/Vn/nxr0gFIn8Oq+1q584HOtzF0rVP3tzd7sze7vQ+QYwf44du1OnM1yVpzjdLdgn1I7uhaJ9aZa418a0texILnqan37bMnFva9UvNpn/Zph+ukGI3TmsZvvO5rnnrTJ8OH+7H76Kd/+qcf7sX62KCjvyeoKL8TZPV5WpuM3Jh/DyP4JYNOgQ4Sl1co5M/63aK3eIu3uD0PM6Z81HeJ33NoPNdF/ovlXDxb/WJonHO8WzjXv2L1Rz/eLFdeMeWvsn6IB1M2bPGO4cb+EPBAE2thtoDBBdJFggo44zYbBzSLcS4cE0uuT0suGv0t5Ozw00W02oZ4LkZPlmwQ+qeN5MKsh+QnZlu/mH0V6uBnXI0BxKhOrotWv03SjVn82ZhIp3LyjB3VpsvOauMc6Ad18Xd4Kb+eiLppAvvmwpMl7zKRmfmP4pH3VMuNCPCgcb3DO7zD4R1Tde/qeY+Jz2RAn03Ewah3YG1YvQOrLfe+vu4gY+14D9dBsjjk29dnDhF89qS3teXw7GkKeRuODbYPZfptBJ4+2CD++l//6wf5xmGNefLigOHg4pBjI5rrWq4c2n1gI+tpWWtBn5zaLIzBpkwG2Bf7V33VVx1id6CzOeOvwDOHDrZKtvFsmJ6SGI/rib4Nzvu7+vl3A/d0yTXnQOtDir7m3KHChwNjYdsm29O+SWyRtT58SBALnj72vG9qnh002fHVI/vmjZw/SPK1u5xqm0OxkhcLOe8ke2os1qDPtceHHNuYHTK1g/G92qu92qHOtnX5RV/0RYe2+RKvV078MYg/JPOhSNzNkfe2rVl+bdJ41isZY1B3/biv2RQ9qQP9eMb1e37P7zkctuTeu9n9AQ4fvp3yDqU2+6//+q//DIch43YdmEfy/pDRwVEc/Cu94uKwp+1w7VsNsmx6p9uBbb6+A9mPZ3zG6XUN69G4/LGZXLm2ukYn+ICZ78ButvWrG7811jUNxuLQKHZy5lodmRMfLtT5ch04iDnEk7NOfDhjK33rXszW2UQx0nPY80qTaxHfeL2q0B8kis9ad8iTX77NjXdxzbU/WHJdqJPny1NG69qa8qHE1+58iY3MN3zDNxw+EPBpTbpH1ucaZ5sPeTaWQAaJQSz2tfkOrD4fvvu2R9v68QHXPa3cuQZ8oAdPn32IJMsmPfc3dsWDvKvr9QJgQ46sU/c79zo5wAPr3IcoB0Y2+fXhzrde7j3s+wbWH8vpt9bcK+Y7sBP+kNIHWvY/6ZM+afMPM+X8oz7qow6H7mK2Xu35YFzWmveN+dyCuQD92QBlOmv9EpyS03eJnVXmmM7W2C6xfwmO5Q2u6mPKs4vMfXXQJhcvftjinQN70/fhCWywwFywNh4bLkE3WhtPGyeexdQNsAWrRBZ3cENwk3JT74V1ekjg5MmkC2wXoJKcmCzwBjsHMOuwlZBj8o0dj//iYyMe4CNjkwObpJu3p1DeC/J01sYrxm5Y9Isle9VBrtl0s1CnI8dsuCHIA8x4gX42YPqg4yJWF6u8sc9PYE+M0y55Y6Wjnk0ybLjJrvLayF8lywF4+jXXU0g3u4A3fYEY6IuPT385S67Y5F5utN3U6ZZrhwqHZOOnbxPAK494Nn1PTm2i/nrc2IBtc+mwgudg3ZwEPtjyqgEfNtvWBzk8Tyq6RlBojMqZ4/Qrk5tINnl2+fq9v/f3/o4nm9ah/MBqKxk0Ywt4ERmHbQedYoP05EF+kAOSdnb5t/Hokwt5d+hy4PVkzhMlBw6HXP1BDtmRH6W5yi4K6sny5w9+2JETUDrck2EL0jcWdTJ06bk2apOnJ2bXs/eLyzn41YeehoGDSockdpX0xJ7OBB7b9SkdIFyjE2zMMR/D9EG+GGYbpr85HmVk7JO/YvZFKyavccqVurVkH4Hmzx9pObyCufA01jVLHsTk0ATZrmx89Bz+upbxfBPj1YAO6g6SDsL8BofaPliYQ68D1M+WbwisDfE7qFnPbIvJh1TfiNAtnkCGndZaOpOmzmqjdZ0ddWvOOgF8PGsEjM81OK9TOfUHTdmm49sQH7iRDxierNrn6fsmiQwojc1cAH33UvbEk38HSxRvBZlKHyiN2wcI7xLj1b+F2V+9NjvGaj5ct6i8nkM2YNa3MH2eg3hm/rewlaMt5DP/l8ZwCaa9aT9eiGduW4NhlTeuxr81xvizL50t+WMonukb7ouxGrMgXMhurr6WtGBcXA5vHWi78R+zAfrwybLlMOsCc/Hw4QJykzCgvv7EF2z6fDvY5Sefa+Kmf/Xa6cHKq93Nyg0xu6BMVlwO3JE+OjYsm2YXda8byFM3Y36yq94YELv8G78clRc57iYsH/ihuKG6+clHMa/A1+/TuL8S9VWQg2fk4MLvKUzbvhLyTpOnrw6AjWn1X4zKSfHKrRwo5ZBNsXZTtxE52PZhKujzVFW+8VuvbsStIyg/Sk/Q2AIy1rq/lmbb0xP6K8yRp76eTHi3iy2x07dpio/t4p3A87Tpn/7Tf3p4AqHOn6e0PbErHxPssM+XtWGcyCsUNh79+TKmuUYm6BujcZHRXmOEeA75/bHLCjx2xCPnbKHWqPeA5YI/5Jr2F/F/6k/9qcMrHr6unk9Gs8k3fTquKx8S2SymxmAelJ7a+2kn64UMWfPPt/uUe86Mn4ynup5c+drUWjcX5sQvQHjSxLbrzXz5UEOn2Bxy1F2T+vkzViXo6x5SzOlXZx+JUdyeEruGZpyePrOR3WNoHhH9SeUVisWc+urcIcI3CcjYlX14M64trPZRUC+GfEFj1+f+3TWbnJ+GMgZ1pfXUKxXZ66CmPssgXvNRrtjywW6On4wnhsko8cq766knv8i8eCJpLj1dd80XJ18Ow9rHYP38k3/yTw5rS26ts0ibnbCOR9xsu2aQWPzxo1ckWnONB9hynVQ3hw679NhmS+nXAFxzyNNcr6/IU3sMv2yzUa7UXeeTB0rkejmGxqX0SoZ1/vf//t8/xM7eMejbIvBtkf3Kt3BKa1lOld///d9/iKkcrbqVMOt3E3PM50BmpXCv4guX2E+muI7pFHvXa2WUzL3C4VcIYA1Quz4LwoXgorDpOyAEi9+NycXeYQ0aQDZmaZBu4jYgF4YbtjY/bJDhy8WDOsCJSQnVVx5a61sQA6rOjzGsevmI1+amLSduGPJR/PJh87T5OYQ52LpR4ulrfBE7lfnKLpt9SBBbT2fXzU0/sAPZPAbj9RWbT+W+yvcHTpGfA3IIX20G7UlidZjylRud9GYdyJZvsa83Mgd+Xy+JSQzev/LuGVl6Su/gmaetm6CnYcm5KSvLHd9AT/7FbNPy01jZoesm6Omrr3XJQbqVbsYOAm7edPD58huGNhz2tEN6eL7m81WjP2TxFMQB0VeTvcowKRSfw7wDoCeYDoDe7zMeICMvnpJYZ9P/hHy4rsSd3dVfbbL/7t/9u8PhWn2C/TkHjRmx3Ycw+fSVvb+c9vWgp7DeH/WXzF6HyEY+EX264gz1se/XDrLna00fAvQVg4OhzboPOfomfDjx9MnrC/LviZSvYPFskK47tuiHxiku8RU3f3JTfHiotROKoZyYR6/0KD2VZpMtcmz7SbTaK+KtfZM/Kah7UundXddZ171rTd0HKXEkO6FdXygn088xOWMyF1PH+KwTZcB3DVXP7tRbwXbzAWTm/hSsJ76Kj7x5UuL3uoB+PN/UONR7+uq+DcXktZDuI+t4wdNdrxB5BQr56Skk115BKdZjsGd45cHrI9a4tZJv4FsM7VczPrkwjsaWXrrinTwyU46+Nd28FGvzMvNHfmv8QT+w6Xr1WgT5YrhEN7i/+SNNeW2vsm6tZXn1Xi2setrx1r5L0PiPYdpUn2Nb/Z3zf65/guw5ui6OjflcLgLfze0ax3VjO+b74KVOZcZn2WRUB6UDlpuFC8bF7KKxgc6vwdebyyzxkQvGwbjXDRwuXECe7rDlIGgB25zc9ELxzmQV6yWYcRhDmxZ+fdku1skXo/Ep8d0kxadkD98TBDckBx4H2erGRReym21t0JZX+WFTvjvAuWkheRYLneyF7G0h2+zRnwRiN5+rzWKbfJuTr+PShXKyjqWY9KPAhgOTn3NR9ooAsGEteIqXj+xCtoO2fHW4mGi84vfblDMGc+PTPd60T1YbeSLjSYKnHvHMtacyzXs+Jsjh6ROXeNEqtyIfrgHv5vpq0yFaPoxNH5u+8nPAd7i2zszdBFnkGprzEGZbTLV7X23NSdjiGx/IlY3FBxwfDByGUT80P/WKb1L5IYfwPEFlz5NXr3PMgxF4suSpKJ6DBKQP7DV+eWseUDCH0+aMR2nMiK05f/pmCezMtjVmI3eQlgdtKEZPzxym5hwcQzrHaEXxzjGbq9bkJRATOuZjC+nIWRBH10H2YI2jXJOBbIXimDy219iMEZKPwPXtVwU8/cXjz7rypN66Za84fJ3v25bkwvRfbsvrJPfwc7APWRvWuXth3wQE69uT1MkD7eYXxJSMur4V8cgl23hDducYAX/lhdlHt28a8sN+99VjqC951DiUrZ3GANlPJ94sHyrMWC/BpfFdau86EEP2j/mJ39gi7ZU3Ufsq89C8H8Nh5tcFcA4u7hYPKF2cNvC+9mDT4crF2EHrWCB8Igs6W24mLlTv36i7GWRHv4OzwyL+TMy5+PUnD9rs4bXpq0872pOgsTRh5MUfAbsO4w7nHW4cPBxgfcK3ebk5OfTLU3rTz0Sxuwl2mOWfPtIvLnbU5xhCPHaSNe5Im0220ZYN43L460ZJppjVzZn3HtnCYw/1YWc9XKZbffUpDu9N+spRzPxuraVsQLGvtsiUP3+RHhqDg1WbDJ538vpXhJLxRwlz3h06vNNpXOa6uVlRrl0/letcsXsOc5zq3uf1RIINfq0F62rKBbkzD6g5iMwpW+IC9qxTH7amrerFXAnq1rdxBXOF9G3ZUR6jaXuFfvkyJjH74yd/paxuLrbWCF7rfBJ+dXlZ54GvkNylSHcdCx/mS/z6+PWE3oeMmavpO8y+qDVZH1RXNkb56V6KuvaT24J4oqtitanNjli25mhi6qpv2dpCdme8W/Vsyr13W+VBnznxVNqHRX148tbvxmpHoViSneusHONfB8XpPX9fn3vQA6v/xt36rb+yGMlVD/mYNreQ3mp7wj3TPWb2Tfu+JVmvsZD9CTpR+ZTL1vAKcsfsP5zYGlsoP+dgbMcw83QMU2al0Dwdw7zXTILKFafsXRf3uZF10U50c0FzcNp02qDxCzg5g9NvI+/rRPZshPPpbDbnwKc9JWLDV8QuWq8duIGIWSxs8+PgrOS7OKByov76xJq92Tep2BDM+kSyybNrrB3axIjA01lP1qKe0spRN8D8bPkydrEbu4Nh8yW/DsRKdtJViouMP0jxQ9y+dvbXwUp/fIPnxgNk501AG4zHX2izE68Yxewvem3Ck0/OPPYUXRt/lQnJ+1UBXxnbONpI0BqX8U57YsNTQra1+5bAU0t/eAX60dxgyPorc38Q0lzgWf/FAfrpis9c+NCSPzLZ9kcrDrp+tsdXgJGDtP5spjthfh2O540DrCu/q+rDnnmTM2tCnFOuWJVskFshdl/1NXfT12qL/Xwoi1tdfh188XrlSPzWK6ybeLHB9FN98ibw2PTNja9Zfb0470sr8HwIKu/mwqEF+Wc6fVAWv3E3ntBGid/YrYk5llOxTuSj/MqReBxM/Gtox/Kx4hh/1Qc8909/yY1c713/fhlBXlzXK+hNmjgWW/zZb57megK5K9fZtnZCsnTLOSKrFG+2JszLiuYuqLsP01d3TfurfW0x8ekJPtLmzx7kFzjau6JiQuA+4Bov15E8+5C1FXO8bIiNneJTanvtxT0ruYli6GEGiH0imexGyeHLX/GE8odCNqpPm55oe80JVhn3Hq+I8TPjS3dSUHd92qPm2lV6fatfn2E/TDvo4cCW7xnjw4HmIVpRvPUdi19p/qaNLXsryFwid2rOyut9HQps9jZ1TwgtLBcwmsIu1BadvvjJhC5oUPJho+3wQt/NK38dCEpGpI2gAbPlhm8xIzeVDqBs8q2frw60wL4+dtQjbZtrMeQ7ijexJXMM9YtRfNkTl1yIs/gdXh1ke81A2yFXbG0udGfJXmQc5Vod6JlboIPwPKny16F+AsY/6Rd5T9OHhGxOTH1/uesr/bmBWxO+XvM1rpjn3GXLmB3wxIcP+vC8G9q7Td5N9G6omNyozF0bRzf3oM87tBN8y2MxAB02+JVvpcNj6wKKU2l9OeQ44LMzx6E0XnZ6aqmf3Lx2gpi9q2UD8kdv3rn07qV34ozZ4bFYxbPC4fcrv/IrD/HIbfG6frwfmw4b1lMHuXOYYzIGG4F/FtK4tuIIdPRba7WzJcfIKw3etfavS9nA8yM35iIbs0TlcYU+P7Pjn7v1DiuyPvzxoQ9UHUjSXedAn5/78b52uVd6H9fvYjrEAT9sWavioseW60hewPiMva9FA99de1tw3YjZOhCH3yb2L3j5JzA9XQtb418x/Qaxgr7Zr24+vvRLv/RwXflpKD9J5J1idT+51bWRjZCtae8qoMfmHJO6112gfv4dGKf/crnGpI3Mi3mY/X37kD/XArvzmtBPjz45pQ8ynhxmOzTnPvTPw+PMSWNQ2n+sTfdS+UXqvrnxzvu5ufXHgn6my7vuzYlr07XulZ5V3we4xqav15uga7gxknPt1Vai7ofIvZSM/ngd5Buneq/6BfzgHuWa9Ie0Qb/xeL/XWmRj6pwCv346zFq1Z1nDSvdSefWgofgm1vZDDeO7dIzhmM5V7VyCS/I1/aqTKcaVLsUl8zJl1CeF/ZzfehfJzbqDgUXmU5wLxoXTBUxW3cKeyOixAVjkbVBAvw2iTccnPBeJTUJdDFBiZtDZitww/CGYJwwOtHhd+Oy7UZHpRqffWCI3SePEn9Amfw5sTNBD4qSv35jlLp48d9PR7jCrBHlwI3KQ7dcNbJY9PTS+4kPq3XDUgX1jk4NkQTzNa3nSH0FlOkE78gch/iIfyLPrEGoMfE/dcmT8racJcTqk+YTt90w9EbNZ0Ms2m0q5c/MM/HjBX77YJu8GOn/qigwfDorGjC/HfobJeitWZWN3oLCu3Dj7GZvWPjm+6DrA9oQC2NafLWPmU9yI3ryGrHvz0eYy+4K4xeI3G8mwCXT8Fa5Nhw/8LX1x8CMv0Hgnyq/fjPR0ms6W3ITNExov8nM5nrq63pD14A+k2C4+7xIqxQz4dPksj1twiPCBwlMXH2y84iE35Rlm/oP++Or85tu41fUjdXH7AFObjnHJHz/mUJ9/grh84zfuY/BHq9a3p31KH6D8eoT1AzPuGT9oF3NYc1V78rNTfsKUkYPmAMqF9hrHdeDeNu+//Pnr/vKI5x7nXcnpz5qHddyBnfkX8nTdMztwIfPjVQA+EJ57oled3APiu6d4orfly/XpQxh5+jBzU5mt/LhWxai/aw/ES2YL9KwJ77m6ZyUnfz7s+GAez9jkSMzF4GcNvX8O/JBxoPaePjJGpV8xkQdzw2fjca3KX+seefc8n2Rd0/3h7BaMmy1/dEpPHOzx5Xelu46at3NIzjwgtvCKia/u/ck2nocbWzFcEtcxvTsZU/lSVg9r+1IU0yWxbfkN9Z2SWe0ffkYrYQvdwnPRdCOmYEE4zHZAaHFCQVvIkTab9SG218WK7+LukNlXjfgWuIPaPMyyAfpDFxAZ/TYzTxCRG1JjYIusg2x8vhG+2KZdmG31aKsN6uVz9ssXNA4lkssuQvX65cANQqxyQ8bBtcOsg6ynDJ7OuqFmB6bfY9AnH2x44stm7+Mi9ttQJ4qVvlh9YPAD9X6T1CHOp2AHC/NQHkL1yZtg0zjcOI1VvRxYF42JvjgcbpXmzhy6YfuJGsD38ypu5GKhh+drdrKQLb9EYM1MsGl8vu4TjxgcmrIFdNW962sjLI6Q/er6lOZQXH1ArDSXxnwsP+LX73UFXzcHPL8D2b8SRl/sxQnZdOM318akjj/90bH2zGtf/007W7B5mh/xsWWt+1H5fh+WH7+44PBHhj18B8+5TmYcK2YfG3LGBshr1xdMW3xVV9J1X5Fv1401XrvrQT7B2vOUqDlH/pUs64pvOfQPEvjgZO7za42t62miOBA7SjiXZ8iH8bsXWzMriYvN1Z62uSDjw85K7MkD++ewJVNsYdbFY558aGne9PvXnzyhNxfI0zT3o3IuXuvEPMlxoKsfz/3Rj+STBb7Y8K2GMbHrDzN9C6CPrjn3tL1v78oVP65z/eTmGPS5H4i/vvpnrtXF332sElljzRu/c0xbkC/fhoiHXfFbo9YdfWDDOrVuG58x+waLTzz/pKsn/A6sftnFhy73e+MXq9cdjK8xef3HNcsOG1/6pV96+GO2uV59uO++fAp+nsxB3KsxyK8xuF9eFcZpjOKUUzksl63f8vRIQeujcmKLd6c4ZhM/OoWZu1OyU079nN0VW7HEm3QJbuwn/gFBFMgsuyBcLBaPm4RSWx8ZFwDqggoFke142UdbF/Ds72LhsxtfvpSQPCinL/bZIKtsDGy5OOu34bi54E17kM3Jg/xUboEO3zZDND85b+nni45SfPWLU7/Yu5CnDPvGQdchpPzQ83MwntyV7+Td/NXZJYfouRH4qSM/4eKg71918Qk+0HFD85RALNkoFnbctPx+YTwHL08P3HDwfBXsH0EoTgchf92vnU42zbc2avy+NvcTTW6i2qDf4YueTSzQtzn7yRVPH8SXPXWvU7ixawc2fWVvE6HvAOZnbeSN/WS8RuFfBZPLPvipi83mDMZgXOaHreIN+uXZk1SwaXhKoSwmT0x81W2derLcAbOx+NpR/hzm8Izf7z3WL2bjxHMNiNGa6MkoGQdjX2n7AGMN8GfO2KTfuD099DpEhwabpZ+zaj2Bug+KZGy64pADNvjzYcPT+9axedVHRh3Pxmuccwy+OnSo0bYBK+WEHyS/7JM1p9Yw5FuejYfMXDfa9H3t6et0c+m68ceD6nQjH47J+zACxQe+1nQgwBOfVz58YClXDkj+la3uNSvYrxSzd7/9Jil/kafexT7lwSHL6wnsG4ccBLqegJHd8u3DmK+ouzdCdiE9ZHwOEp6CK+t33Tv8NK942fCOr5+VmteQMfbKknUH9blmXUM+HEN8ZfGL04cya9K9Jb415MmsdehVBTpiJq90L2htFCew4VugaYu8f1TFhxc8NuqzltZ/icuY5DlM++A+YFye8MuFJ/EO82SQb3vcG61l146HAnLDr3Hh+8DqPVM8v9hCxhrLD5/uqdaufcf13NiV3hn3s3baPoS5j3UNZsO9VHzyx17XJR2v37iXmGfkoOpf4mqsrgH3M9cmeXwoBvcd7wR3v7Lm/K2DfUGbDU+8xR6MZa6dFa419wfrxhwUC8r/pTjmYwvH7Gdjy9Yl9o/JXNXXMZyTnX6q01E3j0ieQR30XRoD2Wn3mN4pe8/wO7AJKlt0LTiBKltEyM1BvwvHAkQWObmJaRuyewpk+HSx8uOit/nQc8F04OyiRXSi7Bc/HlvidshwcSqNx0GBPvvafPHJP/1pc14YSqi9Er6Nhl9lMU1M3VmHSqCb/w4HngyyXRw21MiYmo9pD8mH/p7kKn2CtRGpu3l3Y8oG8BOxwZZ45Ayp5yOsbZhrhC3jIpPd+vHkrXlW58M8uVn5d/FnXsk7uHWwCGw5OHgtIb+BPe++8ZkddU81bKxyIFc2d20xNh66DpZumG60csh3a7KxAZv1KyfhdQhInu4Ee/l1gLOhGnvx2GS8NwfJTZ1K60X+6Iopmaj82oBtcN5ha14CueIE/+xs7wZGrk8HN2PTLk6lg4N3bW1efOGzz2b6UyfEA/blDK/1R7+1Qy79KD3r21Mb8xrhKc13cVgD1kx5AjZdI8ZVLEo+HaIc6MivmPmCaS/Cmza7nupj19pyYHPdop6gil1cxpeN6QPo97QqvUn4xoHoToLswDpX8WDyJznwOJSUz8Yll2Jfda2TfilEe6sE792TzW7kmvTU3HhAad371sWTzSkbua/O98zxlGK3d6zQN/MC/JTPyPqKtMvVql8cYDweEjjgqoPrV93hsGvHh1eHv2xlw/gdFK3p+vj1CwA+GJJhy9PU+c9Fg9K8lL/uF8h73A7MxUmWTD5CcVjHSOzx8pX8qhvi0zEna15R+5a1Ty476uLK571AtvmZvs75bVzFuuKY3ilcRyec061/xouH8Oo/Z2eC7MzbdXBfi8CFZZEyZpFbcBMFqY+MtrpFafNwMam7wbYhuHDmQkXHsJWAfAYx2fQ6QHcx8+cQYQEbw5qM7OS/kj1xO8z6NGzTzqYx8uGQ6ECbjZIdaZMH+UBkK9krL2ts2YAZ21qPxJuP7Mu9JzJuvA624pEPX6k7QNjk5CYbU3+FfrF2s0EdDPKHYI4DatNNLnto+sumfmX9xuFDhTlmz1iAnBy7gTXX2r6O8rTEAZcOO/zPPMm7n4fyRDm7KzwJsA6Kmb7XIcRpzvCsg36NQBvk3EGsMYjLjbTNOHuh9kr0lcUuzpBMeQQy/oq3Pm2lP3BwkM1eOUjOeNgm3xyos4uvHfBsjN5hk19rqxjoQHY96fG0tgO/HEfQXMqPJ3SeThcHYls85GYM6vzNuKGxuMe45rNDhvy8RuvLLt0txKfLttKaMC6HUrEDO4jNxk/WGvLHhz3pmn5mu7LcbGHKqPNV7leqr3EGepOKufi3yDyAevmbYGdC29jTn/1bsvxbo/6hBnlqnkA9st48EfQ+vfYEO1FwTTqQeXrXPVZOiityz/A+u38ly1oN6zi9A15+rQX7QofIxpmO+vTRPEya/aj41UOy+a3f/cuvuvCXX6XfqO3bEzxPVN0T5E7Opp9I/K5pf1RmT8uvPn/P4Gl/B/fimPG71ryu4Zse92n2yEI+yE3UL8Y5l8llO7kV9U8qV1H3BvaLA5qjsLbvBI1Hmd3qta+Lc/rTT3RVrHrH8h9m/zHZ68QxUUwrncLN93u/97tfxcIwIRYwJReOUrD6arvJ4WV4HZjFREZJxg2FrsWunhybK6atFdNf1GJuc1XnI18ouWxP/S50ULLBlou7TSxbXST5gmIK2Zq21R2EbYDk0YyBDNna6c8yTN1sITGV43Ivfn0OFA413/M933PYkJF4jLEPAupuSEi/0lOI3lP09bl/OpVcNP/AAM2YxeEH630yJismBz1fMzUnfojeE4LecbWheIqir1y3hmZ+UMD3h1+eqDjYunmTNz++vvWHSG7Kbu58NCfNS7Z8gPFP69Itlsc//vEH/2TE0rh9nUtG3vxBUX+xz2a5kHNyNphklY0VsVU9Mn52XIP+AQDj6AOUpybmpJi9w+ePYMoxoutrU09n5cLXkHN+HeT1gVz4QX1oXXjK7CmitQR84fka2gehbInFU2tjBeOVQ09lyPQBQ96sER8O+bbBvuVbvuVhrsSqnw91SKc14mm6f9iiNYvE58AMxkAWn5542FDSd8D1g/Dlh1xjlY9s1lb6oz6UHfYduOS7NQbGxaZrxHvg/oUxNooDrHuvYGiTZd+a9NSe/S2IOwL/4MGc42PUODwd86HOHFpD1lJr6Bx52ue1A2OGYoAZV+Mz794ttU7LpXw4zJsbmDZaD36Kyqs58skGGdda68STf9esdYGmjea2OsilGFwfxm+O2CZH37zIu7/q9zNx7g3iS59cssbu2wT/iACeeF3nXrfhJ9+VxuTe6LUeOeSrfDYnKzkQ+8cq9IPr1OFQ25pxLbm/GpMYPWH2msC8X/Lr+vDKCDnwqoX7IVuIrj7+rF/3Qr+2IffG3xjUjd23VK5tuvInF/h8um/4pqV1Tnfm3xjkvXG7b/QN2ZRVavPhd3bLFXI4du0F/eTZS0Z9JTmVN2N0f5nXFl+TtlBsx1DMU27W6ztm/xym3rlYtrCls/LW+CdOxV3fVtm1GQ9m/SooNuWWjfrXvhs//MM//ICbSJNuMXiy1I24Cx3ps4i6OWV0BSf1GSTb2spujuy7aemfsisKmMy0O/lRCVUXI1+NC59PF3S6gTxeFzJMmex1Y9CHxI9vk+BLnQ8l5E8+3Wzws7vaD/hiQPSh+ECZ/UpPLt08xEFvtUfOAUTp5gPZd+GL0VjUkbHomzefOS7teZOwfmyYbvb0odjzTyfCo08e8AI+eYcgMarjGV8Hq4lk+HNg8fRTDP5QQFzJ5BsaU3UE5EAfn/yxKzdybA7V0yWjH5HNR3kCfa4Zm4jrRztkB+iwgRqveLpesivWYuogOMeQzVnqszbku7mlj5cM4Du8y1967OM7RDUn4iu3+Z2x0fWtjmuFTxsyfuOhi+RUbrKBZ0xAlh0lKlYyNq1ixhcvW+LSbt7EK+8zRjKoTZismNhIF19+lGTFZO7kwLisA22bLfvNVTEH1xUelE++2FRHE8mkA+XgEpDNf/YRf+cwY2/NpQ9rTPh4yUR0lY1xxdRtXfmqGvrVh628Vd+Cfn3sgTVn7fljJPE4sLoHQ9cm+ep8aU/q+rBO2MDbGhOf7jtzzwzZmjqzH18MrTV9fImn6yn98rEie5XJidU3cOyIzXXNNgI2sx+0ycudmLyqok3X9ZUunanHJ3JtmjuQO9cI/Ymp13wFsoiMWLK1YsadLIhv9sU/hxnTCn2n+mH2T/8Tx2JZZc/5OoZTdvJ9icxEvGNl864db2LyTo1LH9lTMmH1c2P/6fHwR1yUBWMBWQgZdTOwmG0a+l0Y3WCULTKy62KdQZGfAbZYbRj4FjNbyhlk9eKho5wykG98viboiptMJZAzPiW9Gd8KfbNf3G1+ymzMMYGLWP4cIIu7XNSeduOhLnD98+aojMi5ufSJebUHtcWmrqwuH0hMDhPlxIaubH7J5A+KMX+RsYOy3JYbSH7WkXj4UsfXVrKj7qbKjrabY/2QT/34bthyIWbIj77sg3qlvjVOdpXm0EbWe4/kEfnKOVdu5Eq87IrFYUdeyy1kr5I84puOcUCxa7MnJgcnfLqV2QH68bKjTl+u9ecPyOAbq6cujSmb/PmA0FosptYIFAcfYO0DX2SLx3ziOVzMQ6y5LX9ywJe+YgTtbCnZYkdeybFhLNksFrL4SP75FQN9usA3fWuILf3GbRz42mKiS4ZtxHbgN9/lo1iLu344pguNe8ocA738AR2x4a0+iiOsdTp048/+dONNn8p8rTor8FpLtfk0762p7E27K/RNXxNTT7lVTzee8cy46seH6Ut9tkO6YEwhH5CeEq+2dWa9iWFiy8/EtKGMoNhnXJdgtQl4x+yQqU/d2Oe1mL3mOXSdd31t+Zi82ZdtNrf457D6gcnb6g+ndFf/2vrWMqx6s+8ctuysmHa3ZGY8yc5yraPW9uy/CrbiPmVn9pG/8YM/+IMPNPHTWAFZZD2m92nZ4uqg46JwoyFnQ0gnOjh4sA75qA35tHDZUwK78ybGn7ILEaYdyNbK34JxoWTZNzY+Z4zZDKsPJTsuUhvh1FWyaUw9WZp9lelM3lwYs8y/PKi70ZkPc1MfzDiq17+W4jOG5qCDJ9uoQ1c5Sg+mXVCf7eaUXHOaTPEdQzJKNjp8aDtoiMdTNmgu9Xnih28jAD71kU8fKmcc8Vpn+jrAevJm/OU+f0Gu5E6sDj36yLYGqjv4dIAqn9mD9JAxKOlng5xrsieikMwcyxpffsAB1ZpJX16yjyc2T17mfIFxITKte35mHMnj0ZcX7eJD5MwhHl89EY3f3G2hOUCgFJN550tcrkV8NskrxdA6F7fxibEcm5N8yy89co3TOqAD2WucK/D0kUNQ+1KQD9UnbwXbjTm5Wd9C/bMM1ZWTv8pdB/RPxQWrj2N+19hgS7eyvum/tTT1Z39IPxuzfgr0pu2wZW+WE1u8FdnbAn4xbGH2n7JzCdI/5u9UHOdwTHf1V/zFEi7x3Xo4htVG7WMxnMMlMW1h6lVfba0xXOorPWUU3N8mv74pcwpbcW9htTfb9G5+wAd8wOEd2C0jJlGgbtr62xRsfDbP9cDWoaHJb+OYTrfqyXRgalNvM2njK2lzc5hxa0+s7Qk+bFj82WS1xW0j5BfyhWpPmmDHptdhjy2xy5HNzwZNRrzGA9NG9Wm/8dbXWNlWR+Jmt7k4hlW3EtjvoCEn2mLsEGYDb+NX0i2mGWNUzqJs0mNTCXizXDH52ZLb1lX8DhuNy5NO+RCvfnxzAMaIikcZZYNO9iGfYoeZN6jNnznHzw+/+WHXOlC6hoopf9lT8ocvd+Zm5gyxLZ7WEhmYsU17s8yuuSTPdjFUtna7RsghceEVT/qQfcDPVvohP2LG50vJLuCTwUPZpVOJx29zrO26dRhWj8pP/pXk82mtKMmxRwfUxdMcsU2PfcgeqKN8Tkze2ncO6aLp725i2ldOzHZjDKtsfVt2rovimjgW45bf2RemjPoxnbDq1r/KwRZvYuqDemt39k2ZsMXbwqVy53A37Kw27tbaYGOlLX6Y9XNw3a9rbuJU3yk/x/ruJCd0079KXNrRKdS/ltC6BeWW//qPxTb51acPONc+HGBXJuAJ0mbiJu9w2mZgE7MpKd3YbXT61dNr48azUTZgJagLWhnNAZHjA+nLVvbwkkt/bkAw68eQT3by2WHAGPiahxCYZRRqO/Q4rNgE1UHs5Q5fHcSwxl6eIL5y5gjEimzIoD+Z6ltUnMlN4De/nmqx369KIPIdftrg6TQXE7WViE1y1lKH2eJJbgtkyknz5ImY2Nhgr7WC15yRbXzJIXF0YAJ6+qsHuuTYFG8xTJm1zg5Sd+ApBn77IMMW6sBbrK0JmHbFkB18VE6KW33KKFF9UJs9vsWEx68xJke/+QZ9QZ+2Mv3sAn6xqBtv/dpBvfG6h5BvTtI3j9knP/3ER825dWld0J0yxaQO5I1NiVrPyekTt7oxhvkBSp8SlFHtyup3guK+25ixrXFuxX1sPDO+rf67gWPxzHLiVN+loBtNbLXPyUB5mvJTbktni/dIRtdRZfFX3ulavlP9cBU7jeUUTvVv9d3JONJld7WTr7VccemYJsWbPtW7325hjW/iWAyX8m4/gd2CoGwGbuR+f20NXP88CNhI3ez9oYPN2SZAB6nj2SjYg0poINmvjvhpo0mHHxswm2TJRHQ6EJxD8eU/W23o/KmzZww9ucl2OijoD+TYsPE5zMinfnZsuPo8QZzjyn51YF8MyumfLjtimyCTbFA/1l7HwBfy4aVcygc4bHglovmVHzH0lTabyYZpvz5y5K0JY2WDrfKdDrl0V5Atv+rFxq51yebUzSafiA45MTXmkGy2zdlEdmceGz/wzQe53qksj9WNW8zFic9XvoN6sbJp3ZMtN2zVZj/9YqmMz475w0fiAHbS448v8Wm3RrOhn3wggx9qN9/iyzbUH4mHvezSIxNB8U07eOrK7geus2TyC9rV8fn0oQLf/PLNL766MedHLvrQlI2J/Cnrj7fSlv4p0IFp927gmL1j9vG3+ooPjumGc/3HsKW38rSjicmvb40ZNTeTwuTNdRidgv4tf6velp0t3iMZxbvGXW4fTogh2kL8GWdxn9M5hXs57mzPOOJt+b0kXqA77aw21xJmHfhyrVwFq40Vs//m+7//+x8OsFtKeP1BzHyHM6rdQUu9DcAGiWdD6dUCdvCU+KhDxJbd7GW7jQivzQVJkA2nwyX78wZzCU7JsZU/4yIrbsQvFFt+obirg3aHWcQeiJkNPmySZNLBV0dzMbDlAFtutfM568luYco2hsCXdyWnfXkQc+M0h9aGOYY2f9Q84K1x84XnL4V9OCpWJXv6gb9LQJcf+ZDXcgZyCms+ikmc+sp98YXWmDykD7NOfx1jYF+e9Dss6dOm07XCtoMiZCuKB9p0tMXY+gG8KD1Y49SmZ45qV7qWm6/sILHxVy5ASTZ97fKmxJ+28jHl4uMhfsSW3eafPDlYbQT95OWbvliLLX2ER0a/a1jJJx6wzY6+8otnzrRdm9mdwEPVT+Fc/xam/buFY/ZO8bf6Zi7OxXiufwun4rkO0lNOG+ucQjIrncM5mdlffUvnEl+PRGzl8uHGVkzH4pxzcqdjmXPI1lXm9Jj8jOlO44PpY61HtcPaB+qXxjPHVn3qTrsT8U++QuDG7v1XB4xu7pAD5axP58o2AiWyIdigkA3bpmLD7IDbIQimLcj+ytfmA7VhsSneKKQP2TuHuXEGvtogkX5+jK9NtTHzsZYhGTZ6Osu2+DtI6LNp0ltjoUtHPtfx6AM6+NGpcU+Z4Alsh630qqPGgMh5+i727MhLc61dXOp4YjfmDnBKbXJ0HbKmL6iNZpvNfMgLkrv0HG6bHz7oFCvwzac+smxB+Tc+8qH+/K5x1A/5Yrt1qp5cMfJhzGTxi3MSOEQZH9AtLjrVyWYXZjzG1AEWyKor6ac79ZvHeTiE5MotO9mtrzaZbFYmn6zrSDl9ZFtsyeFlF7JBRx7liA328qEvKhbj8kFNu/sF2Xw2B/Jl7OxCvvVdguT4vFPk+xJsxVcuroLk6a40cV27x3Cq/1JfM8Y13i2wG9WemP0rrZj+9LdGa8/6KZzrf6Rizfcl+b/bWO8V51Cu6dytvLNzaQyr3Kqrfs5WcStP0TFsyW3Jzzi2+uGY3qXyW3J4Nz/wAz/wcIDdog5UDrApTKfVtwKJjwJem4qL2GZho+nwYpHZJJTaNh4QA4LsTX/TB7vsow4v7PExN2z8biRr7BNTPiSvTz2f/InTJsufsRnjlp9Znz7aIB2g1EEe2GRbH375UO9ggTftTuDPPG3JTRn1DoDsT13Qn3y2ih1Prv2hkhwki7SbV+2+7he7HIIPMvgdbhF76fFDZ8aKqlfSE7+YlECHH/1yBumUf3y+arMj/40l2ZmT+KA+YwNtOnLKvvFoly88svxpG3uHKRCD/uwp6bfmpj/Env7GqD7Bb9fDtLuCXr6V2vJAr9yoJ9MBExoTKPFnnEE9Cj4IiZHO2s9u41Ky2TiKV1sfGyFZIKdNVp7x5RIPsWWdWAfGaVz58GGzWGbZuNXzA1uyVwWdqVcsE9P+rB/DqT6Y/edkJ64iC3crxlPYkjumG1+JtnLdXF+C7EStw8lL7hhO9T1SMNc8rO3rYObnTnA3Yllxt2y2Fi4F+eiSdcj2Guv0V45Xqi9M/sQWf0tuC8dswjm+8uQTWF93url3yAir/DQ4yxXZKPHkbBI2EU/6PO31x0IOMB0gXOwdPttEQF82okBGu5J9m1MHF3bYN7Zpc9oI9UH9s5y+4tnw+OKzzW/1VeyApz19gX42bMI2zTZmtpAxyA1dfrLBj7xlY8YH+T0Hh2g2+ciGNkx7ePXnV6zx6ZtT1MHNIUiOHNRg2qOL2CKXHuRDW0lujk99EuhTl0sUP91ATu7yjVqH5Bw+k5l6p0AOFZ+51DZ/xqA0dyg5/uSGH7nr4Iz0QbJiVO86Up/9ldURHWNhVz15tIIetI75UXfApGs82kBfPR2x5ndCO5lKUEdsGrfc5A/R4zO55kU58wLkmzs2yDfWkCwZvlxjQFaffLKhzJ92r4HgAX71bCqjcKx+p1j9hHM+rtJ/TnbiKrJwSv4qMQa8lSbO8db+2itdF1P/mL1V5v/iOM7lp+v5ung48999BcQx7zOzvYXiPha/+1Z2jqH+aI0n4M8+9eSn3DGsuhNb+vF+xwFWHRmcHwf3w+VbN/7pZG2fQgNKvroDbIcyhwxwuPEUT5keGRQv/rqJTArJ2ZAiOuy1YepPNkw7kx/qnzKTbKY20Ww7uBhnByFxBDJ4oGx82ekwq4QOhPo7cLKXDpQXiHcJ2CMvzonsTbvq1kk5pSMWPHHPfJs7feryEvJFR39jyY6DbPOUPR+ulHTZU0aAB7XJ9qFAXPrZVyejny+UPQcW88WveOVl9uc/6NOOVwzANxvGAfoQ22KIJw/skjXHckYGytn0AeUL4osFihWps8HeGutaD9XljS49MSnx+CbDv3FkF6adYpx94gF9xp19B2wxsk8uH3M9Tj+QTHzrow9/8fIHtfWB+eFz2oHmxlz4uwCYdmDaVl8xeVv9l2DGNHGJPTLRbIetdpj1czgmG3/tX/0ck5tITr6n/CmdFVeVn7iu3opjMUze3fL1UGLOy3VxLC8rP96kibUd1uv3mQGn7i/gvhVmLqojMt3fVkp2q4Tk0KX3uinXujiW+/jKWQ+rr80nsBT6l3gcICdW2TCdwCpX0Fu+JNNh2dNXN+ds2TQiPBumjd9BJhn2OtQg7WhFOlC/MaI2Yf47YLJXfMdswhY/3uxr4RiPTZpf9ou/sScH6c/Y1enayG2mNmhP1ICdefjhK1k26UYw46xfHfXEkc3ZlzwUJ6ivm2s6+MrsiFvbkzxt+S/mbNMhn1595sYacDgpb+aMHSCbn/yH6snw21NZsvKljthFHWAdqOQRj4541fML0586H9Whp3w9/SSbDNvac22ANhlj7RCPN3OVX3KNQb1SP+JDyb4xpbuFbEP62QP1rpXWGRQDpIdnvBPTL1vZz072xSzfjYfczPu0E/DYoctG64teczht6SPnwwngNQ7jKyb8PigCG5XFEW8F/qTrYtoojkuw+qydrbDVDvWtNLG2V2zJTztzPrdsTd6x+or6lJMmr/olOCa3ZfMYTslMO+GcvXuBc2u6/jlnE/h0K68C8qvOMRuTv8ZyLLZHAk7l7RzmPWgd/2zXP+kYjslWXoIpqz7jOTWu+i4Ze3af4VcIMNokHDAcEGy0WzfJY8kLk1dAW3JgI7ZB2ZxhDmDGZDOpbjO3kTtgtyGRxUdtzmFuWGwoZzzq+Daq/AA9tlBxVa76+UDTfrytOj8dWLSNJX/q2WncKP9kZk7Ko0OSevpsd0gjr4TsTNuAT66Dm3HFJ5PelJ/6IR7iIzl1MbJbjErzVv57V5S8/gjoN24y1qjDh/WgZAefTPLFUQyzzWe5w6OLlx997OZfrNpkxJkOPiSXr9C48cUcGgcoiwmxWZ829EEOX3zxGxNKH2Y8lfrkiWz8qY9WFJt4QYnKfbGQoV/+m2OUjRWTx6Y2W+ywrd11wi6f1maY+nMMZOXLPJnf8omSqc4G38kVgzzln0+22M3n9A3ZXWmCDlr514GY2ZlxVF/5If9bfWHVPRVrMZySCclF52LYKmHyJj97kwfJTfm1DZN3jPhQTuCtY1n1Ji/M/rXvbuJYnld/W3KnZI7ZnbjumLbyMXlbvo/FNuvT5mpj9XevwO/qe6K+VW6Of61XTj5stSeOya98cdTeqk/ZFY1BGU2s7YktWb5ufuRHfuTtP+JyIwc3bV/pzz/eqoxWg/HDrIctHeDLhmFTgoLbgj43S5uJ0kZC1sbiwN0fDnVDtfl0MDa+NkB9xVN99UmWH/KIPns21HmwoJe/2mG1GVY+/cYV8YH4LDdArr7GMgno22hRT5WMUezQhk6/nAZtY3eA5dc4GyvwQb6c5RPiKUP15JTZNraAbx5R4/VNgKdn2eB32tEWqzpb2jNf4ta3FWv1GZ989FSWHfrNtXa2AF+sfMpxOvqnzaDeAVZ89c0xqSN28ZC5pNNYxCgv1ru1rS0H9EL26DbHaPKLVR1/9s/6BFm+6OZTaTzWVv5An7q4jQey2VjIyKM6ym+xNabyZW7YxE9mBblQfB1i1ZvTqYsP4iQHjZEc/8am7LoJxR7BVlxhxjfrl2L6OqZ/qg/O6UN95+TgXH/Yksv+FoVjfZUTsz/E25IHfHO21X9ujZ1CcspjOqf6ViR7qfw5sHNsrc58HPN3ap1PTD9XiX3L/6wXo+tcifAQXj4rw7Sx4lTfvURjqV45641xYrbP9cPahjuVqV5ZrGvstWHqXwr60+bND/uwD7vfTRq5QZt0m7FON/0EoQBOOa7vmMzK56+falo3pFU236sPfHbaPNXZs8Ebgw2LTJtsBw/6+sgj9Yl85accIfU2wuwdi33Wj2GV0TaWxsQf8IPkCvDFnn6l2CaPnM3fAUqJNw8J2Ym0rYMOvHNsoM1G/OlrxeSpo+Z8PUhM4Js/ccpB+QjNV/bJ+0NA8g52dNnXViZXvsgf863fQYVsa0g+8OWm9YPYtrbINl/Trjo56NqS13j0pgzEa43xiUIHYR/Y+CbXHAZ1NvFnTErt8gIzr9MG/RkXW2TTqx9fTsypOqove3O+imXWA90pmy05Uxd7NulOWyuBeI1Vnsqb+Lf08usaocMPn803Hf6tDdBOt3qY9dVXmPW7hXycs732rzrVV/6Krf5j8qfsnAK9mcNT0L/ShHbrZ6v/Elyic0ymcUD+L40huWnjTrDld82zcvV3Vf/Tz5bPoG/SFk7xxbX2H4t1i3/M9jGQjy5Fflf/bGzxKtf7clCPVmzJbWGV28IWP5uR+Gd9Yrb1b2HamOUx3PykT/qk+93MbQ6rAzdqJQqzDqtO7WM6q77NxWHG+682jIlVFo7xVh9tdEhMDjT4Np4ORTYlfKWNS79Fkq1pM+Alx3YHFm15ZMtGyWey6U0cy9sxkDEm/pA2X3waSxsvGch/0G5sZGzQPZ0tR2zNgwN57XKz2oQZt/psBzrpZddBonkI+LDKF1sHteI2Dvz86uvJLlvIukb8sEWGDugvnol847MrVk88gR2541uftpIOu+ZEX0/xoPjIzANsyA+aIB+JW39rzRrgrz4f1vKN0gvpgPywM3PBNr1imWAnHhnXEN0oX8bM9nqIZXP6b84g28raZNkNk+d67RrIPj4b0YRxmiPycq4tfnEC3cZcDOIzx3j66eZDWQ7oBbrpw6zPmKYO6FtpC1tyK8H0C2tM0WyHlb/VtwV9xrWlB5MvzlP9x+iY3BaO8cOp/vqyf4y2sCWzJbvKrGviGKat1cYlmDpT9xgvzPpVsdrcqoe1DVsyrfXW/Wpr8sNqZ2LVPyUbVvuQnZVPFvCrQ7Ln5n+9ttDE2t7CVrwrtmwfw5bcHNtar01vqw7ZnLyw8siimx/3cR93v5uxjd/mCgl383bDdkN384+/5SSjaA0sCvpNTE9EbEzKZGa50sQWL8wYxO69Xpt8m72Nto0MbHTGpkTia3Gd80OOD/mST7JssM8XbOnPGCeO+cKnYzM2Jx2m8tdhjQx+ix/ylQ2k3qZuLpTAhg8VxpOMen3sZm/aDWt9UgcAcy7f8Y+hPiV584bUi72xOmi2lvSLGanj0wOyeOZHHcE6Fm3Ej+uDr3jZBrbSad7ZdKibY2Mjv2zoi4K6vmKcyI955wcZu/ha02S08Se0xUu33M9xR+mpw4yNvP6tNS0W+WHXhxN9/Ckjuuw2rsYDSn18FAso01e3xtlp3vHZST5ZdqYeWbp9uEhHSTYyNrKo/CbPlrnrA1Q+J8isKJ57jS3fcIwf9M/8rTilr2+LtuzNetjiHUO2Q+1JW4h/rP8Utub4Uqz+inGL5no9RXeCU/rGOf0UT9jKQzpXxeorG1u8EK846l/lzvUHfLQ1rmM2J7qej9mf2JJhM7oEl/iBKce2dhQvTNlZP4UtuWNjmPf3FcU2sWXnVFw3P/7jP/7+DCndsG06DgJu9G7S+jyVMGE2DeSwQ85GWZCoRc9WE7wVqD58vz5g07VpTJ2JdPWjia2+6SubxmHT4acNS+xk8foqtqdDSnw8NG3SRexs+YTslyNy2QK6gWx2YLW1BfPEbrHkL5/6+TCOfJHJ9jEf+PQdcnyoMdfZ0Fc/XrliN9211D/HBq0hHyTqz/ZEvPq3ZI3TPIlBjOZZXPiAt+o4xHSAky9zMnOUH5j6UH6V8fnULud4ldb21FECn81HtqH6yiueSrboN14y1eXDGOUYP6KL6Lm2G+uMIxlxVl/R/MPUUWcru8ZOjnw+lOIEcaaL9E2UQ5glPl3jyx59/Il8ouybI+ReUF9+UHri7n6Bz4ecyrvStVG8bJOphMpzmPKX6lwFYtqKCy+sfqdsNJHuOTnY0sWbJWzJhfqUq9zahi2bx3RXCrM9+aeQzqSVf6p9XUx7x2ytvGM5al4m8OZ8hC0bW6h/y/a5djrR2kbJRbVnGdY24GVnYtreQnrH5GabzGxXT7/25G8h2XP94RJ7WzjGh9mnvspO/+GUjL6tmC/B4QlsxtuAbQxu2PhKG5ADq01PvQ3ETd5N3E29Q4m+uZFkew0Y0bUR9EsC2pcMPv1J9CqhzQXwxS1+voqPjD7x9yRTHJ4eIbI2q+yq64/o6Zt0DGzLjziSk0OxdNgqnlN2gG86zVHyU685Kad0HCiMAcrP1M2/mJTsI3mzmbMJ+V7HE+YcqtdOjh5bDpEQf+pB/K2yenNZDq1TdpVi1G/s5NWNsXHIBVm6xlFuyGuXO1Qd2GLDmjEW0CdPUCxAzzx3EJJH4CPboK/8V54ifsXLLr/GhoyZvj6H5HIgXnqBjDGyI4bZR4ddZfz8Aj0208tneY4HfTilE48savzlAPJBNn42UbrsynP3JH3FNO01P/rFB0r84kmeXXLs9cEDtT7kkywZc7/mtHplsmHWw9TZ6r8qTvlYkc+V6jsGfeWq9in5FVP+mG78lVZs8WDlH5M7h/SU5+hSTNnqV9G/Cqb91e/qs+tg6lyCVW7Ldph91de1FOZ1PLFeV1uY9iZNXlBfbR7zvWLaqj7thJW/1o/1gXY52pKbfOU6j2HKkWEzrOOvvto4BTayUwyXYMpWX/1nd8XNJzzhCbd/haCN1805dNOfm4ObP5k2pfhkQL8+qA/xUV3y+sraV9VQf3ag2EDfLFf+Cv1NvI1O6WCavD51/MaJZ0yojdEG7DDbpqltM6NTmZ3y0RiU+DD9ormJkmOX/WIJ6UGxouKLXwyBzRnXnJf8TJkQD5TFWMxsKOlM2cYF096sk6VLzhPYeOxUJ6/M7op8BHJ44vQ+tbnqK2yHDPEqs0lWH3l8eXCQNZf42ko5Kgbt9Cbwsm8MyIcycrX5qd21lQ/2s6m/ujKd4q4Orh2wZthq/Mmp67Nm80EGQbaV4s+udjbYjYe09ZGvHoEy2UheHKbJqyN8KJ/FEdT1sddY8hHIGB+wOeWLDehCNhEZ68M9IVlzXT8CfcngsUGOTW3rOOjLhxKyw9/E2h/WMd4N5CvwEU9c0+eMPcx2uhFs6ayYeWBDe2us+DNX2Z3+pq/42V1trrL1T/7Elg3AS/+Y7opph87UK2f5Q+UozL5JkK3V7tq/1Uba1cv3msNKWH3MdrZC45i8VWerb/aH5LreIDl9EYg/O1NmxRYP2Edb62/eQ7aIXrFoV06C6bu6snvQ7E8H8ItLfatv8las8tpRMIZ4q03t8r9i2pigg8IqVxxrXRnVDrMebvzMz/zMAybIpmQD72Ca0QbWJK4oUDJu7sjBhC11T5zSbbNFEvSYxzzmUPYHXOQQe0Auu/gzybCWkC7gs48e97jHHQ4pfK12bIBzHPGzVcmOMSAx2dxsYpF4ezLjFYwmnWxjXhcCX+zLeXXU5qxefHTZ6EkhHcimePSTXZFtdpPXFhsdJZk2ZSU58vrLiXlQz15oXtnp0ATavSpgHPS9NsJm/xwpZF+bz9pQPb9Ajq1AR+5f8AVfcPdLv/RLhxjIIH6tw/JXnzbKrnrrli3vTOPJxVyXxTCBx0/jN0fkHZTKIXqBF3iBA99aZDcZZbE2rulHXT85MTqo85XtxsJmPLJkzIu14tDbk2n28MhNWXOVTjFlG5R8G58+diI6Sv7pktWePh772Mfe9qtPLNaBnGnTSbc1RSbSF+ljx5hcb8mz1RjkQ1kcs56eMTcH+SFnHL1GgEfPTwtaF+zqawyNWXtCuzyQA7bFB6v8RDr0r4LuD9lW8mlNK8tD8yDu8n4Kc21C8uw3xi003sZCLtKHQCx44lr9bOU3G/TEVp6SD2TwzNk5NKYJ11v86X9CPxI7NL/lbM6JOPW7X8c7hjUestZ3Y01XDvkiLx9AZtUP9JqP8h6q44sze81TvrfA5rQFxYA/dZNjlw+l/uJmS4m/jkOek4NslHf9axyw2gE8RLcYrJX0ta2BNU+gT5z0mntgi018yMdEtop1SwaSqxQLu/wi8y429WKcdrp2LgHdmffun2y0vlZbZFZe93OoDNrlKr0Zo/5V5xhuPPnJT36gxdNFb1K68JT//J//891XfdVXbRrFoz8nt0n99E//9MNh5Wd/9md3n/zJn3zoF6TJ/YiP+Ijd7/k9v+ewcSAX+Kd92qcdNhO24DVf8zV37/M+73OIi82/8Bf+wu6Xf/mXb/uZ8VRnv7oN5v777z8k2MHB5tONhByb3/d937f7u3/3796+meBPG2Rs2C/zMi+ze93Xfd3dK77iKx7iawGpd5GbFE/f6H/CJ3zC4UkgOy/xEi+x+8t/+S8fJnWFfjF95Ed+5O4Xf/EXD20+oVjMgY325V7u5XZ/7I/9sd2Lv/iLH2RsSMkZ25/7c3/uENMW8H1geI3XeI3dW77lW+5e7MVe7JBXfPrG81M/9VO7j/mYjznYxhPL4x//+N2bv/mbH2wYz4d92Icd5gjIzJI8mhfvK7/yKx/GJj8Olk94whNu208P9Jun533e59292qu92u4P/aE/dPtQwiaQLz9i+fZv//bdd3/3d+9+4Rd+4XBRN8aXfumX3r3O67zO7rVe67UOsQD7+vlQmqsOl9lMTr6/8Au/cPcf/+N/PMgicb/SK73SQU67mID8P/2n/3T3D//hPzzwxfkqr/Iqu4/+6I++/YpCm+BXf/VX777jO77jQc3d4fr4rM/6rINfcv/m3/yb3d//+3//sHYBvzzxLScv9VIvtXvTN33Tgw9jmLGoi4/s7JNHdqxzOfqWb/mW3Td90zftfuInfuKw/ozBNfL6r//6h/meN65sdq3UB2zyRUbpcOcaeeM3fuPDOhW/Pvn24VHdHFsLX/u1X7v79//+3x+uaX7EIDbzb3yuua6tr/mar9l94zd+4yGObM7c0OUfyjUZ6/nlX/7lD/EW57/9t//2ML/a5P70n/7Th7XSGurmyjdyTeuTO/F+8zd/8+6///f/fvt6NofuVW//9m9/WHt0grp7gXtgMG/uZdZwMa8Ql/n78A//8Nv3kUsgdx/3cR93e97YQf/yX/7L3b/+1/969+M//uMHu/w6wL/CK7zC7g//4T98mK/yOlFb+XM/93OHeOQasn0M+oz//d7v/Q5r6ld/9Vd3H/ABH/Bg7621/W7v9m67d3mXdznkF+T/Mz7jM3bf+73fe2iD++/nfM7nHOKFxlVpPbo+f/iHf/jAI/e3/tbfOszXlP07f+fvHNb9sZzD1nj++l//67vnf/7nP9TZQSF5Nl0f/+Sf/JPdD/7gD97+FwbF4l7rfvTWb/3Wh5/5sxbF9lEf9VG7H/3RH70dX3a0JwV9rtG/+Tf/5u3rGU8ercl/9a/+1e3rGf+FXuiFdm/yJm9yWJf8Nb/IvPy7f/fvdn/tr/21Q/4mksH3QOAN3/AND3aSmzFN8Gn8/+gf/aPDPCanZE+58qwl8f6Vv/JXdi/6oi+6+5Ef+ZHDWWHq2zvFUdv6tY66zuH3/t7fe8invND9pE/6pMM1uiL5CTz3HTEYo2vHPUHJljjf4A3e4MArN6H8f8M3fMPhnuLeoW1M1qT7gnZ+leUCvu7rvm73xV/8xYe9fPJXpGc/cS3IB8iD+6o4wbyKCZQe3Lkn2PN7eDJ9NB6yP/ZjP7b7x//4Hx/2PTbF7X7uzPCu7/quh32nOIL2h3zIh+ye9KQnHeTFYZ903139VH7Xd33XIdfGTMecObu80Ru90UFm6qk3ntU33NgffB7AdDNmrE/phFP4oi/6okPSGMrA7J/AI2dhuqBe5EVe5HBjcREFflw4buRkTbqJefd3f/fDQSzbbqwWswUrMX/yT/7J3ROf+MQHrTwdMwZ6wcby5V/+5YdN30S4gUL26TlMSHY3xxXZkxMb2Xu+53vu3vmd3/kQd4kF8ZHxhMkm9/7v//4H+2RcFF/xFV9xuEDlhWz67LtQ3OBtEGs+Q3G4EcmDTYEse/y6YbrIWsiw2mrc8mLMb/u2b3t7M2LDzfSt3uqtDjxy5smN4I//8T9+iNGi/qN/9I/efqI6wVf+8kNfTJ/3eZ932ISN7x3e4R0OF9mUh+yJQ//LvuzL7j7ogz7ocPEAWyBnbkxuauKdc5Df8usQ/Kf+1J86zAkeG/nU3w0Zn898GN+f+BN/4jBe9sT0Hu/xHrs/+2f/7OH6sFbyoR/vb//tv737q3/1rx70Qb8N08bVtYX3qZ/6qYcPhPTE4jBX23VgAyDDJl5yQd2N2wH3Ld7iLQ4XvnUpluKHbqTzhmYOfUiyAdq82DbX2SfPtpuuDx0OftrF7nD98R//8Qed5pAN9qsDPw4dcm/t4Mu10jp1gHQQ7gNb/tNXGtM7vuM7Hu4JbMmlg7049KczEb9YxP33/t7fO2xuyYv9Qz/0Qw+HOXGzZ4P+7M/+7NsfzMSKb4zG75pTupfYbNyrOuTygfizQbA9ryG5cED7H//jf9yW80HYJi8XxRv0V1p/5phcc4iPtvTYNxbXW/Pz0z/907s//+f//OE+p918J0/OWHxwcTg15/VnX8m/MdgIiyW56rMEfezz7/rxQdM93fVEjn8PMj74gz/49ocBsVg3DprmAFwj2tbEtB98GJIn9xgg8w/+wT/Yvd7rvd7BF4jFB0p5lwNYY63ELz5ta8U+BulMXWO0fr7kS77ksFe5P+jnm41ieOEXfuHDAxX3JTLuv//lv/yXQ39+z8Fh2FxaV+SNnU0Hoa6NxhLssz4UKPMjZvcd69W9ZEtv4lVf9VUPD6Tm+lhh7txb3AdXmfxGk2fuxe/g85/+03863DOmrA+69oN05Ni+4joEObauPv/zP/9wcBSH+8b3fM/3HPrzB1txW88Oes4rrnU23LfliG15xffw4SVf8iVvr39Q12df/G//7b8d7Bej9SBOaC1BJZ57ivu99ZBM/SuMwz3KteChWON2rilXyU0f8HzP93yHPV+cqx+lHH/mZ37m7ld+5VcO+TPm7MmDe7Br1dzYm6w/oOvDr4cQ1rF84LnvyqF6+VJ3DTu/dP9FbFmfzojFC+Th2NjgPgxKORe4AbiJz80aKEYTk7c6CMlEDpTIxWMAFs2UC1vBz/5LYFw2oG4UK6aPLehz0xOnjfcrv/Irf0dO5FDeyLlJmvT82YBsvj6luOjcaB3UkTZZPproLTR2MXi64IbZjdjYWlBQPMU2CWyMPq1+2Zd92WEc8SfS12+OXKT5a5FNuyuB8ZC1lnyI6KliMvpW4o8fG68b80/+5E/ezosceMJgw+vwWt7osqmdra//+q8/PLnjX9v8kElP3pC6C6u17gPXk5/85Nt+xWPTkDcXOHLTtWbzC5VgPj72Yz/2IGeduwGwbU0cA1lrITtsr9DXeP7Fv/gXhyfiXTsTeHyJHbFrrD4Q+gQMxk1mXhfm2RMkn6rdGNMnewx0I3EZp7HYzDz5g/LEtw9FDjPa7CJ1qO26cAixwSenTK765AE/xlPuxB4P+ZbhO7/zOw99+PLiQP3zP//zzxCLkm5r6wu+4AsOh2gb07Q3ZR0mPvETP/Gw7ibWGC/BMfn4xSrXSJyVkTjf933f95Dz5hG/eNStJXasbx8KXSMr1limj/yzsWKLdwxT9tjYA9nkyf6zf/bPDhuoujkxpw7xIMZjcZBfKdvpyBlMXojnPuUhj3zLp2vftabNpvyw4wO8p/H2AziWt1MoTrb58Q2l9TbtFFc8H/jf673e6/YT6mxcBT/0Qz90OGC4/8ovrH6MB6b9tS7uSSum/DHobxxbKI5wic3QWCboOji6nzkTzfVP3sH2+7//+zfHtNorDvyux2SuGueWbSSGaUtpz/JQwiG9dce3Pdl9zYMJ92xtcU3b7gnWs2+NPDmlB9kP07frr/0WscevBycehLBR30Tjmv7zt4X7MoJcfCV0GuimUOnCUSdDT1lfch2o6p/28AzUZunQ4NOPp2RTBrQlocPTHIg+dla/Eft44PBUYlesPoFcMbKRnrY4HIr4mPbY4cdGaDMQK6JjDL7isSk7FCAHJBdFtNqDxtHNsIXHnlc6HOLMmcMX3gqxdzO1ONmnzy55n5LEsfqF8mIMW/1BH3v8RHM+xF3scrfaqj8bSiDngO9Tfwc0NhxqyIgPZc8BEbEFZDztfe/3fu+DXePAK4f0ir0PFXTZcMAhVyxgg3TowifvhmDexCa/K/ijI8d05NuT7w7xQQziKW565R7KjZIfeVVHZG1OXl1onrLHJ9ClY226qbSJkS8Xrq/Gmj/rwkFzXnvZRyH55hsaAzlPReRWP3iCKQd8k8O3huWdL2PUZ6Pw9Ziv9rPFfmNHK8iRKR7UWIPr0CG060W/+fQVIF7jDNq9ckAWiZf/8pLPcuNpgg9g6uRh2rxT8N345jXXuPWLy7dmXl0obv3y656LkqfvqeBf+kt/6XZei3siG/lkqzGHbM7Y8C7Bls8tkGtOzaVvt8wFfvSt3/qthznId/M6Y1MWe6XxN7bGMscH0497Pf/q5BAbPaDp2rKe7XMegCiBbX3ko4lsTpk5Hq82OFiWC/3k+Uq3cfvw7aB9aj7I6kPN3eRr++bUfsMmWpF+sSJy5Qu0i7VxNYZTyCf5CbyQjy3kq/gic21sk5edWXpq6Btg9XzKq4dJp+Inr7+yemhcgC++1sZKW/M3fbOjv3HN3IBr3DdfxeEDiYdr0wZ99+D2664XMh7OeQjQWLagz4HegxAy2uzYKz/lUz7l0E5feQzJTKzjeRQhAXYzNvAppO59NO+zgYG5gdvcbHL06bz6q7/64VNei96F21e3NobVMT19QL86OVQ/Ow5f2iio+2rpAz/wAw/6K0wCXTaMS/LWZIRpmy+vCXiPDyxQm7AyGQdQhxlfGcYTs7w4/LDhJtKY+fXp+2d+5mcO74SKDYnJIU29vAE977t6DUGftkXmHas2XnxP4PpaaAu+vvDI3wYtfocHG1q59kTYe5C+4hTzJTDe6e+1X/u1D1+3d8OffdaUd8esr63cG7N34LyHR088NoPWFZ0f+IEfOBy6yMi7p0lk9SNfpTjo+IrEIc2h3sZN3tdjxTPjUq/NRyQHDqZyYizFTNYhrK/cjAfPkxR5dTA1Frw1P3Lu3R5fy3eNTWi3Vrr2pj4dn5yNTY7F1ldjQNYTKHPoEFhs4gjGIlbvDFs//BSnA77YrGefxMmR10/eAdma5Vus0y54wue9T7bk6HM/93MP80jWOnOzNG82c18P+hradQJ0fHVtnbuW+DY2m6T3zXwNaO2Kxys2XZP0+DDPjRe8U+89Q4cz175YffVLBuT5277t2w6x4ZUDceI//vGPP4xBPz6Sd4feZNN1bRm7vPhgYGxARi69Ez3XClpzdx243nwF14c6didcb9aiD1dftf+QC90fXSMOMb6qdfBzP/obf+NvHOTlXH7We+m0z7YPZHP9OERZI9YpyLevRLtfknGPuhTpbGHmrxhspt7r7UNFMtaMObWG8JG17qBevxg9VeraJeNdT6+uBPbsM/qnf21j9kSp9aJf3Ws9Pjzr91TeWnD48ZVy7xGCb0/Kk3XiMCGf9eP7tsm74MG9RuyuKfeWwJd1TP73//7ff5gT89DY9Pk2w/3Nu7HW7YS4rSmvWfT1tPdRfcXtWgM8T888pPEuL4iRffr6fUXtflAfnndB3VuN0Ty539gzjAOUYgLyjX8CL74yv8pLIG+efrf3QTaQ+wXiH60g65ryBNJX7ewYsw8wfXsz46s+UazlaiJ5fQ55zfMEfXrlCvDyTf7N3uzNDk/K5Vq8rlfXR759o+l1DdeC690Hc2eQbID5ca4C9/O+sQM27RMO7e7N2Q2NXZ+HT9a8NWje//N//s+HNSXP3RcntBtP7WSKb8YJh7sOB4zC7ARt772g2m7qJrGBS5z3e1z4Agc2kQGfOhzRbzEUeMC38dXXTVIbeZLzdm/3doc4QGyT6NiwxSeWaf9Y3QLx0rP3p0Cfg7jFn032jIttEwFilUPvp3TIDGzaVPXZZOkYizHQ07/qGJsbkX7kSZSNy1MF8ngWxMQcN3hfxw3F2PlyCHibt3mbwxyJAXm65AVtehNszLzAbFe3YTk0zA0VsZ1fZetrwjjkw3t76sjTCV/Dygcf8mST8g6WT7/50WddeU/Whyf+bDTeM3bQKa/8z7GVnzkWwOfLpucQs/aLxx8ReZfPzVt/tuVzrvGp+//v7q6irUvuut9vut+bcwUDd5cXdwju7u7SOBE0hCCBRoK7uzQe3N09uAV3dwY355KTzzp8n/NPnZprr/08naR5f2PUqJpVf6+aVTVrzrU3G9wrNhPK5+AmZzdkI5t8M+n+wm+CIq9NNnqLkk3+PK1MBh40Hlz4Vb14eVDzCtJiZpOKz+Rp7OFz7/3Wb/3WKb5kmPCgGIJ+oVcsQF+zL9ruFe0WaLlEvknaZxZo3WO+77PZ8T2jUx593X1i4fcdHN14O90mPz9tgvHyTR+RyzdJuw2bDXS25gOYWI0vdvCBDHRofNvGf7rpM+Z9giMXK3a5B2wKgV4bFt+MpaOYTZ3nsKMlo/utDcEKNJKNkblCH5IjBjZW5oD4xNs35vw1vvFBtk7wm6/imw48NlGT3kOUAw8yk6cN/4r4pGhhllekhw/mFJ+osGvVxzav1nsDo//MNeZ2dMaDTaAfDgN6/Wfz5tvUNbboG7fTPpsD9er46H7Q72Ds2nyax43XHi7YR36b6ex57GMfe8rzUdk65FtCshuP6I1X9rtP1DUXSvh8920s91sMde4nD6Xue3XpAe0SXS/1Ui91ipd2a4hNrbI6Os015iT0E3xyL7RXcG3c+WzJHFmcxNiPkbWRybdkTZuOUPwvoQ30mDt7eJ68yvqKvfVPqFxuHndQZyyZ1/re9wjaspf/YeWJhn3stA7u7hl2ohWveIA88h3c+AafL2iMA7HW1hjSf+DAoAcwCb3+82khPehf+ZVf+cTvgSh9fuNjLRHTHZJnDiT/QQ960Knep4/sZNuK7A8zPsp0V9c13JVT0gzIhPoSJw28SVu5gJNlEpeUG5zRuea8pC7Dap/GZ5uATrr4yNJmMuvVWBsB7SY3dqFHG99MU15lPOjV2SDI2WGio8+vFqcsvjp5aVOpLVS2OTJo8humzrXOhOMEy1O8mFvw1WeLgbB7OIgG0AF/TBzFA9jhJjRx5++lyFZQLgUxoktcID3ZBfkJ8duEsEVbfuITd/2ajdrINpFnP34+6Ru68SYnWfM6KGeHCb62bAoelHoFHybtEX73d3/39CRaX0zgt8ngi5hl4yqvDYsY+Gi+jTyYdI2RJt9pH7j2EFCMgB6nTUG9U//a8aAxptklrnPchvShldwr8gn3Zn3a3CGx1waAXLE1Kao3ebuPPSjrd3wwx2d6YdpEFl1O8enCr44PfqjQ/cLGKcMYclJGp7ZiRc76QOMUVJ/pAzTGrE9bfMrhFdtjHvOY02cE60Sdnasf0/5pU9C+JrLRsZV/cvXJXsuSjXj3oDY8NpzmlYlskqY98jmGwmwP08dVDszr5K1yV0x+/WqTbgOrH2YbOZK/ZOChpf4EeWnaCGTgE1ttUrKOgMY4jsZ4ccqljhw5eKAyHqedeKcd+nEiWnkpm7zRQ1892R4k6ctXG2cP9ZAfxgD6roMYgTYgQ7uNWna51k5H4y0ZlfFpz7fZdlQupVteOWgnU9LmuvrZJlU3Ybyw2Tww57N8awyhWXVPmH/d6+Y037564wfpm7zKyUzuTHQXR8ju9i/ZGa+2xou6iXi1S8aDfjBPzcMjcvhqvTEX9klEbfrbQ1E60DlUiEadB2PrubrqJ+oDa/B99913ml8c/tgbZae0InlrgmLQ9a16zmhM4MowB8ROaXW7NsHXGZLOCAaTV1Zed3jN5lWK1wye0tI/5e3qdJJXG56gHWd7FeT1mKTsSUnw8fKRfj5BPq1QZ+H0BOKp0a9nPU335FA8LFiepucNylevcj2holPXpkRZshnwVBLyawdtBoAFRm4A2AjFY4CyQW6BFTs6QM5ONinjMZl++qd/+ul1x4QnNnaiXRfc60C2P7nhCd0vHJ2mlfSnE2fxJJ8PxSKIX/XKbLYB6FQBLf9Mwm5GNwJabWjB6wy/WnYi5pWFX/E7bTTmJt0OxkNjX25BtCEWC7xkOKUK/NB/FiOTAlsuATp/Ksv3avyYMeg+EyexcG9ANNrYA2Jk0nGyon5C/6NrjOOfMta3FOxv49wmT3zVBbFzj9WevODaKyh9rf+d9piw6iPjyYm4V16unR6yr3HmvvRjMf3nF/BObn2m4T7JruKMP9unHcqzjXy8YmWz1n2gTLZrNHLjSo5fMnZswPV7cvEZg+CarH6JrC+LufvI6VupUyg8K9Bfhx0fm3xiYc4Ub2Pe5yXmKLnXmWKGzkbcPAViIYY+z3G643MT96w50ndq3W+loExW5SNcQjOBvmQD+j7v8z6nV5aSv67iPtnJikef8Ym/7tf6U783fl27n70Cx7Ni9sGuPaQTyAS83ftibAyAenOPE3JvI/linWOn+7O+KTXnSZfGDvD2mRUZknvKgzuQp84nI2JSnWR876CNT1JrtsMW6yDZ2sE8Zd1hA/1HdqMXj9rP+act2klX2XpunjDuJWPdfZkNl8A8Zl1Kxkze5PA7H49kZp8x60TSZ33iNPnYNNE4i3dNIT79Zv/hR6N+GOgNhzmVLvMTXfGymXy88TcWjTXwUG2zWazw+xy0AxFtze/arQHm5a7R+JNd+UGOtaT9Bpod6CHDCazk22+ypr3SBFlSY6E8rLpONAqCxmhOyadhGb7DzogV2jlTJwPZXk16DWpj5lWPj+4NytrTP/lWCL6nID+qMqj8EMP3HeT5iNiGwOaOfzrJYHNDywtOeiBfTKCCbrPiKX5uOmxe3Ez4yCihMVjo0eban7hoIWty4GcxWfUH7W4Q3696BeaVhW9v+CFplxzN2zAbUCZrmDJtqL0y9BmBZCMO0ZiMTLT6nA/s28HAs4jTvcLTmBMnmwP6nGIp+3ty4sjOBm43V7A54RcfLWK+ixL34gM2GV5z0m8j1GtystAp25QbT3R6oPFtog2Rp+N0okMfuq6O78ZjNzs++kyWgJ4PniKd6uhf46gNunYp2mybsJjhmUAnrmjpnDGKn94gllN+yXWpOpCLJb5iqo5MdourcvdHsgKexl0yg2vf1Tm19m1cf7sznTasHgK7J7yetKHNDjl/nVjhdS9bZHzSIreRZVMPOav+I/AHvQW4h2Ljw1gtvuYafxatsS/R5zWuuHQviI/YheLLrvoif2YfhGmz8rwOu7qJ2tno5M1CZs5zolxyz/k7jtntFNurRP1W7PSDk3qxMF/anPhG1GdYXguSn43pnNe7+hW7OljpldnlRNB87d6TzOFsPJID4otXDPjER33h20vf/+kzNPranLCuaast57Cjq48lnwFYN+lCyw5jy4MBX9zzPv2yqfV9K9rVjtKK6+rmXKFsTLIJ9CVM+erMWyHaCfOmz0SsG6//+q9/+v7R+JbQe4vnlM71kX3V79qPMGkrF2Nj0z6hMWK+2c1H52AMGPN+N1Lq3vG7FbErZhP005P/QJZv9M0ngK97J0Rbfin0j3HiDY4DmZn7Xn1nI9BtDNj86j9/7k7/+csJ0zbrlTdv7Jo+QWOoe6q6kIzV1xV4oqHDGmpuWqE9/cqlFefa7nLDMbqTDgIt4p7wdFSTtLR2huu1bmKnEBr8HBUsenOaPO1Atw7VvgY74Ms+KHDqPY2XdJw60J7P8hXo6JTIK9FvA+Uj53kDobf49Tq0OhvYvkcBMryCblE9gjax9zTviF8+7aDbDzF8H5Vd6cBbnGxqDRx22XSF6G1qPY1lyy6+QMcRtK2+kHPOP0AjRr4Ns4HxilsMq8cvOV3qcw26bE61N4bqpzYdaCwgTqqcgJC9sy9UNuZNcEC+et/L6e9ONtTZQPgUxCKpH8WxhyKgC7/UxhaNvD82riw1zs/Fl060ZJGZjyvQHd0j9dHa5t7DYzylRwLXEj/FM1tXsIecbAMyyBS7XkGKATrf3JKlLn3qxS/fnJbYpFkkLPhTB5uaXI+Apj7p9b8+c79nm++kbT6cnBY3emzElQGtcqk6YA9b69uJaK/DyncOaCU66ZbYKybFnl/RscsprYeI4i2X0Erig85my8OjfwriOkz7klu6U4hRdq3pSEf9BMakjU30fHeybNHOPzEy75lzu2fKr8O5Psw29vicp29m2dA8QI8xyAZ05iEP606iap848vkIZEpAFnvxy6ftszzjN8uBHHY6PHGy7fM1/jTWzAUOVXa8Tyykp/jcNE4BD/8aY7MsRbPKV66dLZJr65XypCdzXt9OjPBmW2O4pD4dK9TRZ9/m4EaaNhqbkjWxv60eT0m/6u9sAPX5fwmSBcmwh3F/kMOPaf8s76B92rniLkHKQGU3nddPXl1TxikLtQljTm7XYWdYdfI2AKWdfPag1Y4eVrnqOzmeuY0v2xsEFi8bESeofOOngOjUCfLVsSe70JEFngS90sBfHdmeDHV+gfZqySbTR9C9qlRvU+mHU0109K0+dY0nHdmpzabYx+P8Av0nZfsOU4+BZXPgx1LiV/0RimEDcoI+MS+RJ/ZN6OdQTLJNUodXX/mPQj4gFyuncOr9mMc/DbD5YJe+1kf1NxnszFafJOzsphfy3V87mK8j+eLEkO7+cgTQ6aQZvzK9NknyZOL30OQ1rbrsUe9UcNo5kS0T9MbPFjphpVUvNQ4gHTu5E2zMppWWfjYbt2hWdI9I3aPAFqcbPi/Axy626E/911/PEDd9qG9dpx+tH1w5nev+7RMLNGiliWk/neJFjockJ0lsqB89vBlj7qVkobUp6hOGZKUv+cr8U17nrB2SE7ouT780r1eoE6/iLTX+xZ5vk8887ns9PzwUOzFBI9WXbFDmj0+xxHlC+2o/TB+knb3XQbzdZ+4fiR8eJKc+ctk35RsD3o55Ha4evdfa+tSPVnzLDfqGX+7X5kqY8i/BSj9t0WZj6u9omptci69+krKdr2zxFyu8mYp3pon1ekU85IZiccSLNvodXdfkrEks/QjQ2xHlqfccjmy5FPhb40vGDJu0yaMrdR2U9QM5rVPSlLmOsaAOnx8ae73ePTZpjVlvQ82FO0xbwq4OyGVLYyhbu7/P8Un6BU0p+EzID/ys+9GFeNcyKLNnItkrrTpzrHXT/qfxNund434AKOYQ/5RzhGjICne1IMBqDOVuOpOaxUCdTpIM4vjK5+IJyvM60OPPjPj21Tcovn3yCtkp6eRJP93pn06YoL0GxCspS240C6XAT/3KbLQ46VALGJ3JlAusk1Md7Zs+J37zv2+Q4aTCyaayOOgUp3dkp9OfB7KJMehtZNWRLzehGpzKUnKjkfjrNWALSnTgT09ZkLKpBWnSAN9s2KftZPPdq0M3XslNoi2Q18BVrzzbg08kfFLhya74l/yIwI2Hb/LmK7vEh5/RqDMmnXL7tWz91Y9NtHmN5a9CWAw8TNDtFZ0TUyCnWNiYilXX2vIrO4wxJ7aNX+3GFt/Y7yQxevo92fpsoT6cvgF+8TSpGQeuJfKhHC+Qw2/Xyausni1SeqKZcC1NORN8jI8tcjZG55odTdBolMlD58m+zXf0ktfPvmV3D99zzz2nE7/a8Tr5tBF1TRffTXA+Z/FNptfY7jUnZz4viBetse/7wcZ38wDki7zyhGt8ZNjsODkH+o1/D0A25f7EWbEBr6/TWb3El2SaI4qz63LtpeTBLE9EO7FeQ3SSzZlYm5fmvOceMP71YTA3+Q7SveJhwumf72bf+q3f+nRvGsuNBTCu+5NJ1eV7eXXlJWhswNq2g3vLWySbP29arAXyxtAEe8iS88t3gclW50Tdt3r6t1ektXsIMn6nr7WvKcy6/C8B/vw1Jr1Z8EmDMe0zJn3iL76IP0Rvo+4zqepmug6Tjp/TFtD30RiP0LgM9aG8MkQz11v3jnnXiZ0DEw+jc92ZMVnTjNlNsfaTT+iMjb6D9WcT2Ud2tDPFF5TZbZ7BK7mH+qsN+ukI2e/ByHo073Og319p6U3r6m+00mzreibQrzbLHsbIlKxtPglw2j9pV7ly/eU+0I/VSR6u3PviRof+QaM8YW9HZtA+14n69Qji4/51P7Q+StnpMM9/Mm18Tl2Q7HwL6ud4DXflAOJp3E6ACc+gtgAIxARajurENSgrGO9bJYNIMij7l5hNClM3ZFfQboNoE9yAlBvkTr5M0ibIOiue0rxJgHy06myu2aQTLBD+Q43NIOCzYe0HE3h8v+dPBGkjR+67Gj9OsajbRLVJkfw9V6d9YfUNvNr0nY7NanLp4pPXq3TD9CEkz7cwJlUbKX2DVpuNiPpO1rTpk/UJ8pzs4HTS94pi7gaR9InJwp9jqQ9WWeSIox/d+abJZlFs+MoeJ9q+1bNxc1Mad9pMRDay+sNN6e9xmljY4PsfNzs6IM/C5TvhJmWbYbHjLzp2uZH1V+OkfjJh+37Nt5nTb7zo2QS7OOEn14LMXsiuCbzGhoWNXHqmrspycfBA4pvnSQM9iCWDj/kTb1AvxjZibEyWvmKH/qquhwZ07JeSq+xecd+1+fBnuAIZkhMnPGzLX/L0n8XDZszflbYpsRHJD8nm1wNW8w0+vsrPgW34zUe+gwRyJXXePri/9fGEdv3dj974b8wE7T7pIYMNYqbOfWTzN1MxLA4rdnVA3szRKUs+yfBmYv6IS/Ltor+O0KKBNr3qLBwWQLH2XbIfh+gvbenpcEL/h2TMVP3Mk7HmwXV1eLoXLNbGjjmDD/zqBDVMWcaiV9wejBqH4DMBG1cLv3kT0ukzAvTZClPmJcB7xK9srJkPbHSceOsb3zL68U1zdT4bPzfVD/GwwzxoDHYtGbPR6EPz++xf+v0AFNRNG8TSWPZj074NtUZ44+gtVp9J5MOlmDG7DtOewA+ftxgjJQ8HrQeXwj1sfHW/zGSNXWM54T4XR+s5vdNO9jmBn/PrRLKO8gl1dPne1bfTkgcH8o0l38KiKU241ocOprxFcl+xTZ02a6kfNAZ12s2rxm5o/m98SB1cKMvFAA3MWGhjvzr3QJ/eZa96b3n6O7bZtsNRPUydp29gT4XHC6shhRMZUP1u8GgXjF4H6fTo4o2/BajArO3nEA2bDUwLmqQz+EO3idgNyR46rpNNf7boHPKcDNowmPzjLSdfR6LzhI83X8H3QyZa36JY3NKPxoTmFJf9K6YefvjVsI09sI2/ft3vRCl7J+IH8tF47bPeeH54JTbqbPK8NmVnSI4+tNFBl72rDm3qlCX+ebiQ1x82TPoD0HZz4UVnckCrrpvDq2a0kvFikhBvP/zwWlh/m8gbS9AvryG7IP18FkMbY3rqC4sc+oDe5kkSa3aBeOLzPWuLQzom1Nl4OYEx6aJLRlBHhtPcTjjZOMcROfQVLz47LW6iSK5xipZ/jXk0/EPj1FoZDXqxNo7SISb921YpOvF0jTed5IdsYp+8E6dsgcYVX8FfrjAm8BZPub51r7muT9GIjf7IrvodXKsH+UzajGsbaDKjYUf3ppxutECfPncSa9xb8I2VQI7FQF+h5SP7bOQt8h6g5B6k05nsFerJkNBWlrStfNXVPunFq7jxEdR7U+Rk1f0PxUWbhaRrUEfG7N/7E9kVGpvTJ9fn9KPzwMvP7hN8HlLNC/qzDWKJT/3gC/91KB4T6kqhMjv8Iwvy63N6wfhRH9SzQYomdL3qWaHNKVfzj3i5f9mgn7XT6ZClBymJbR4Qd/FNH7l+DCd5wDSvoO8eKX7Rr1h9gmiPeM7h3FggL5nFVJr1wKb6YNKt9MoTUzb/7Qc8aIk7u8xJ3uSIafGhK77y64Au3u7j6pWl2quTr2BDtjpQMk8Gcm2I7VuS4+HcujD1OWzjl7JElr9+BPjAGLE5XW2oXW6t9nZUmQzrmgMtD9Hn+hSSO+WTk/yJu0zEbn45wyk7Nfx3x06jSnX06kALi5tJmaw2koKUrPhXHZcCPT5y/bUBE5cfIngKN2FbgJxwOhU12Gwk2GFBmpsknZotQKaBbsLXaZLT0v6zDGSriYlsm3UTRwtHCYqPXBKPyl4jzQEGKy8bDRan1VO2Sckr2GgnqpMbKJI/6+NVafEGH1Z7yuZvm/9pT/rFSxJD8V51sqV/G2fwl2wa2mj2xEZOIKd+UDaw3RTKknq/CPcDtOjVufa6VHKyZrGy2aDHyZkTD7Ynp884gL7GA1v4S6Y/J9RNhadc0mfVBdf9cr54TqQfr42a17X+QPROB/2NQxsh9K4DGrEVT/qccPIR8Gjno9fHxZJe/rXpQ+cfIbQR0853f6rFr9fd+zbxPslw79YvxrY/xJ6MHdxvNnRstDHtD8MDGZJFUA5OdHyaY1PvUxrj0PzD9/vuu+/0rar4iZXcBMsXNHJ1ZM2xyr6J7OeL0wh9PvupGFWnHNShF49ovA2hGx+7zCsWAzabK5xoeshxLZYeSCxqeKXVPuOvOav7pFzqc4fsg2SJgwcNcxP+7ruuPYi5p8WHHm+mnDCxF51TOt+Omn/Ma21swTzQg8GTAvXnpYjWGNLHk7c+h+pnbh43nvXF2h8TaOObdMaCpG62S07EHRIY0z5XMaatN8aJ0zRrR3x89sNZ42jeU1PXOaTTBtPBBp/JMWf4W9NOS/WvTb63UnNso/FJ03W60iElOz1hlTGvJ3/3UDG7XeBP/03loRVv95Z7Z6buGw8++uYc+OONrNN1bzIkb3Caq3a41NbiJ4+Hv/GWa6cv+olJ47NFn340bvWfceFNhP5E6173xsB8F8wR5md/YcHc5vMw8Ukf3XiMPTJWO+a1h3nx8TZW8qmQGM9xFMgq7bDzF04bWDebhdOE5yY3EZvo1F06ALVTUmdKJtJOyOaNhMZmaAZuBzw7w9VJNi0mZ8fmjqxLXilLOoKOJmaTOt18lGxoXUP+sdknA2SS7fWF19lzMJHllMVpkcXbohKyFz2/yZPHr13Zwm9DYmAVr9IE+/k0X1FYmP0QzAArFvHJXddvdNnImGDVZYfkUwTyo2UnxA/GgE2iMWGctJCjB3Y4fRKrXbLhYm+xgGwWe/olN4TFtklEO92+kUTnWrxMGuidrPm7tmLjNT9dXrFoix+fD8bV8Vtig5gbf8Y7OZ2eBLzFqHitINsioQ19iE8dPXL+exqdT62TJx3G53xIkOs749gvrI1Fr4GmDv2kzQNVusRau5ydZLgHfG9Y/8Xrf2MbG57YxQLQiJmJykRIxgry2e1vt7rX/DrZKbpNbO0SHb4RI8MDhwWdLR56lPUb+yV/8mXaxwYPNu43cTEBa68fi0GoLKdPstlps5tN+gV/yXXt5frWeLf58D1940qbuNr4+xN0fPYGhk3Z7YHJuJxjcdrGd9+2iTu/fe40k7//OMedvLL7zXfH5if8816TbErxeohnn4WIDx540fsvWf5EkgXFfS1Gyfag28Pe1HkO+re5YvLseNXNWMAsT0Q328XdwYRNhzK9tZOtH6ViJ5fAetbvFHZYda2Y/qBzrX9tXo1r48ifEBRX8fVpkwVcXTrx+bGZt2pdryB36tqB374X921otkj62ScYTgXNk3wWp+CHk/6uNZ5io1yacF18dzTpnOn+wpRH5yyH7KmtMQg7Wxy0NNeYq0qurV8+S3C/T10zgTZ6bGLNl74tF0/9G83Ezo6JVVflUH10q7wjPrC34VNgN36fItj7sNlcisZ83Fgwju13fHNr/HpzoQ2v3FxsU5u8iXmt3f1xzz33nGJl8+pzQ/Kzuz5Tjnf1I9q1HO5iPOg8mxSbMWUBsGi4CdTbTHDYhJezOZbQrqcj6qKvvjoO2kTQ1+lvdNGuBkPt2tgkkSXNa7ZavJJJpxMHmyW5+lU+G/DzXa69CYgM7f6yQP9EoD+UrY0uH1AbADre5OWUyUknOp2f7Xg9LacjsFE7qKePrb5pwVM9/8hvQMTToOimSrbXQU4B8YF6Gxb2oRWraJOXTIuaOg87yQft6tUV/zXxLznl6YHGnXHgpNnJgnaJXU6KfG+qbHH2aQZ9ySDf2OxhJPuUvf42yYtpfZhsdWJnU2zsBTG2CDiVtTDZnOgnp55OA8nnB3683Q8huybwsMX3ntmXDMgmqZgWKzTiyC66QnqcDppQjZHGOh6JLomf+C1q/bet6OgRu2kXeDgzQSeTbm21p1/8Z39XT55rGyaTvM2SDapYo0mfa33PhuR3TzgtsukuxnJjJRuSMTFl+0TAKQuox2/B8uDmz5nZ0EjKNoTFDK2/9+sBkV3swJccCbRJoI5d+H1X54efc+zX3rU29kjphOIzaeW1y+MjY01k6TMP4eyvj/Mtm8lpjsDnAZndEA+UA9ppx+6ajq4DGbs0MevxzutAts199muzfvl7q+aI5gq5k3dvr9Dwh49O+LvX1WfztHVi6lbuurKx462PeLNNPI1585ExLUeXDu1iPDeRwXXyo5915aCs/8kyJ9GpLprmiuSTY82z2VbneiJdkIyu13zqia+2sLaLzRHdTBBN+WyD5Kx0MPXM+qBdXJqrZjI+is3k7Tob9GE21UYm2aXqQ+Xy+NFC9PFWF2Y5RJtd5VDZW1cPUgG9N4dO6vPbemsjr22OR/eJ+6w6uXHlodjcxuf8KG7p9dC0i+Vcg0M8yYKV7xzuQkiwBdDpjcWOIBsLJx42sHbsrj3huTGdfOJjJNqdsgyabcqSek7a0Hn9afJULljRzQExUft1SZAL9NpGV6dVyWxAwaRVT44Y+KGAkyN1TjdMlCCGaLwu7vshyesim11lk032oPeKXDzpgOI5oU7qw3X8dKOz+fTZBP7Jl7xip80k6yN2qF3utbGNrLJ41AcBrzbjQjs5bFd3ScKfbTPXRpcbxabEmBILPzxzY0VLl//2ZHx8/ud//umHKhaG4piP7Ara/RUDi0v/RcTrczSSPieXT75ldU0GeN1tw+KVu2+ejE+nm8pOzdgG+D3Ve+WiHNiVrMBO9TZJxsOMMdpu+HwG5a7lsx2PhwkPUjbX7NNukeKnMpmNbbr57QTYR/QeZNoEmLgnTFJi5sccJio09IozZMMR0IuRPnBy6UcIYujEyGts94J+ZiPaaaukjr0eZmzCtIuvpGy8eIihA32xgcYC8Nc/NSFLOzpl48tYEiu28FXMbLSjBfKNjfz2KswmFo00QXZxsanQzzDHBbAt+2Y56IvqZ1qhLl/lM4mJecqJv5O+Ob9MeWj5Qae+8et5JyS1T5+OkDwp+niK44rJE2Y57OisQx42zENiy1ebVJ9r+PbaQ6Lcw5e+bfEmA60HTp9q7HxbddU+61YYo8ZF41080SdfEgf1Nto+NXEK3hyy0wfTljUPrsnUb/5KCv2N8/TK3ecOIGz8vVHpnpk6JmqTdy0lD3Z81cVfmpiyjjD55Oi794OxC1P+yhfv1Ck/grb4krODtmnLjnbqPScrkFea9Mq7VNvqT23qyXJveyNgvCXbHsIPOINY+gGtz1/61AXkzXPK1gWfTswf6QK56OT1U3wBf3Lp61qaMSoPR9fy0v9KYMFQ5riBboFvouOcsnrwq3EbD0artzCbLMnBRw7ILRb+dE4TNFg0lPHikXzkayNTsG0ELViCp87rzF7Dao8Pkgu1z1e2a55ei7/XzDpWXUhetpgo+WADy3a0vsf0C380YKBYIE0aQL62Jg0LoF/ItrCZdJx421D4hlE86RJvG16ghwzfInpV63U3fnTiaROsjXwTlPp42Cx+ymj1mVPAvivFw2anVF47WdiTgUduQSCPTv3KTgvkLlbx0SVHzzZ+gU2FjWWTrX7VRxYkdlqgnLj5DlI7NL5sFMmy4dbuD857nWgjh0+MbT6dMPJFv+hTcsjnJ3v4TJ4Yi728P+zMbr/yNuHzES2QTY4No28j2Qr89ToTv0Wz2OHrtcwE/T578NreGEFHV/3l2g9rvHJHC8VUzj5jTxz46H7hm7b04nO/8beJJF5+2Ih7ELA587rfKR1fybHo6x+vQPskAchVthFlmz7J3mjkkj42dtknXoCWfGPHw4hTMpsJp7IeAhovbLOJsvFA21zT/Q/y4s+WymJovmBTY9PDd38CDdjm9EuOT94YsZFlr7GZL+Y88tR5yPbdtbnC2DMem+/0IT027GyiPxv0gQ2WfsufieIX8HXvk21s0R/WmK8w/vWPvvLA4FMG//3PN379MI1N2tHy2WcafGi80CGdQ3a4X/jlWhytAztoNwbEKbvxeVDsGg3/zfPzHnNf6yvjxdjHp569XnUaP66Tw3915mLfPepjMI58n+pVOlvdK/1NSrx4xD45+ThRnUS/txri51MVn5M51DAugHxzsLHs4dfbEjbgzVc5kGXOMG+pR8NP8+O0YdrEB/eMe8ppsO9vvXWgA68HE/7ZaJtXzAkSGZL7nT7zPp342DCRfWHaAtkT3doODh26lyQHORBPMsA4ZHPQl9LUIa5kmvdBm7WtdrHUx/FNRDPBd/O3Nin59YM49yf+YCejgw+80JxxDuSYd/jLVjBWk7EivfmUnebQ6vQz/9nMfvORP1EoVmjIkFvHvNV1n7l2QGYseKtrTetNF798WkSG/Q/aZAfrHhsAj3t0tq/Qx06H+UoeG4xjcB2y9Rye4nGPe9x/Rbgy74BGgAS8m8HkLJgtRG4e7S0OaLTjVdbG6JxUh65yIN/E1YYQvZQ8evClA/IjXdk4gT7d8U4ZK9LrBm/zlY8m5QZfsUGrDGRmS3xBDPhhsLBTmSw05NhY4HWt0/sXi9mfHnXFnkwbGJiTpQR46MjfElqDVU539cpkJAfvrJtwXbyLif5TVmei5JObKfn5IJ91+WMMJUN8JHK0SfTlt7bGCxlA3rRTGx/JUy+2rukDddGTq92ClF560NKLDk30aLtuHNCTbGWnRG52OiF6dkJjIBlyiax8okcfi0185RN0sDewmYzkmWCLHRvJ1eZ6+gXK6ox3duVrNmlv7GizQYoW+CWO+h+fxJ7k1N/Jg661VS8vLhZ3PmSnccV21+KRnpJ6/HL3MRp2anOtns3R86fxYo4DNtNJFzuMNzzqspGcdNHB913/rFh9NA70MZ3xn5NDp1ilnw/APj6QB/UJWejIjxZmGc2qc60znm0AoHo6Jk22zQ2SOjTZbCyItzxbQVuxVD/lqpeSFZKnX+lMRnn3GBrXoXaylGHGQ131E+Tgoa8xFPIPyrPVdWU5vil/9lWY7epdozM/yZMp0R3N5AO0M9ba2W9Mh6l3IpnlO4hjcZC7po9NXSc/WcZiG2qQR1cdeDht06O+OEULdFQOrrMpZL97RLtkrrIegnb6OriaiBfPjFv9sNKv9kA6axOfsKMnV+LHvB/U0as+u+g3Htd7PLuKV6n7Yep13X05dYFrbeY/c6+5ji52pQPQ4ZFry8fs7zq5YfqhvLY/wQb2CNonpjGCwmBJ3bwhCrAAcgw6mUpGel2vgYP0SA18dcro67B0NoiSE/8Eekg/Ofh3+mG2oafTdT5L0MSV/FD7tGkin4DsNhRAjxuLbHXaIHq5RLYY40/P9Kccol+TDYHFSDk/kh8fpCM58klb0hYt2/W9/hE3tmmD+hKdWHcDkAHaQJ04SBZ2/kra0Rb39MYP2rK1NrEU29pXHmU293QZ3KxtbPKPDcZ+/MUDsl+7J26/Up+TpZi45h953UPaoHhJU5c4eLBBO/VBstFalBqr7EaLR1Iv/uokyN4V5KHJRmnGTBt5fNE/NodoJsScPXTjs6FFk03JmrpAPu1iszqLDF2Ax0Ij1y4vNnL0ynRI7LBY4ie7PlFGD+zlEz79Tr6HB/wePNWxnx3ZDsrZS5ayOvKvQ3KyI5tWqE9ePOXVy9VJfOgayOYbRA/ogvrZBkd1MHUF17VPuvqk64mpg++Vya1vJ006ppz8pSN9kDx1U7a8cnJmHVQ/9QR05NErpy+6qedSJOs6TB3oXV+iC93kbaztsIvBdcgO8XeP0AE7Hav8dKivXJ680BiKdvLAlFUKsw1WPmnyzfYVU4a067toINlTZteTbocdL8wxl4zGv+sSxD/bQD9J6sV5yqs8eZTdk61jeCZtiIc9crY2JiamjpA9K04bWIVdI1C0Am03ygp1EocotUBwzDUezkk2HhbgGfAjmbCrzzZ6moinHrKVJSBjF9hziDZdXc96ZZ3ChujSXR7Y6nraoDzrKks2HF6/8MtmKn7Q5hp2ckM2BTTqZn0bDq/Va4suJJuunZ5sgZVX2Wtp8sWpTQc61/xTzof0Q3LQ5bv+NX7kbYzFOhzJkLOza/1mI9NNJc2+9NRtA+s6WfQ0vsjSNmWWA574jHmfZPiGk7/pm/0tzXo8aOmY6LTFBlBcXbMpXkgWOjLmhl1bDxPGEV/mw8C0RQ7JRkMXficVUy9dEj36RfzQ1Q7a6WQTWRLwN5pyoB9PdNnDdnbzn+3q1elPsoEc9mkrluSoLyY2n2iUs2eOJTL5wxc82iQbWL5J2tJDdjaG6uTSEVa+eV05OTfFEc+RPHXdb7N9pT2S+6TAdbqnbzOW6uY1TFm1zbpd+Sh2O6wyV3tuipW/+0N5tp3DtOlSnhW3Y/sEvcmonC1HNs36I5qQzAcKVl/D9PtSe+NJ1qV8O0z9O8z2m9q5k7vKgrXuKA93P/jBD773v8uHmIYfGay9NpNek7zFwaTf6z0LF6izKEgWwRaVFtEmznNInxy9BaRNDRkWHjqlORHHt2Ln4xG9unyW+Mp2yYIG2cBXCzCwLRzJnnaQJ7cZ4Bs/yFJHlo1L9ermJFaCZMIsBxtKPrTBgXgnZt3UsdKu12y1Qe7bmvoF+Eg/P7TxQUpGORnFWQxsVGzgjJ/irF0s+FgsAjmlgJZufUYumYBffXKnPcra2YBHH5CDVr4inWzTj30Phnaljzb76UaDT/3se/Z1/6Q7/4EMqXq2ysU9GeSnqzrIBjkoT6gnDz/ET1dy3Ot00elaWzLxphemfO0SJK/26slUpr+T1HyvPl2gnA3q6GWDeLKzPkSnrrK8MpnGqJiThU5SLr7odiADsucI2ktT1ixfJ+MSTBlH8thc2zn6I/7/k7GLy3VAO+m7vomMiZW/MXITeZP/dnEn/Dubd/LQVT/vBVBf2uGo/v7Cdfp3mPT51nXlma7DpXR3gin/dvSt9F0fyZlxmeOkBHc/9KEPvbeLI8z2mNcBtcpw3clE3725NtFbbC0CFjd5xilbTCwKFhj1cwFZsdNfmR76LDjptAAlW46uhQWSAbO80x0mXUDfojYXbomPdCcz/5KTPV2zld3J45PF1uYFjUSW3AJaQktPiAbKobINEnq6wqQL6rJ9xVE98Ivd/RiQnGTRq39co9Nnxa1xMNE1P5PDfg9JUu3J0H4O6JOTbvYYi8ZucYfkyQGdhAev+nyCZAM5YsDG+LVlbzaEriXy8LdJmr7Trd/cT9ElH9CAusZH919ovJCNzvW0PaQTktN1/YoXyFEXDfrsmvYFNMUCXCc726pTzs/6wBioHpSl7BInUG5csUkcXOs/UIapQ10bWPW1t0FH0xjZIT/KL0F6nhhY7XDNB/lMtYVZhvV6gv3a1/x/KqbtD0Q/Gi9PDtuOdF7a5zua/Cnf4VzbpbjUxjB1rnzXydImRTfpZ145rNc7XEJzJ7hT+cUtOV3LS6B9pjDL4PruhzzkIacT2LURCExI7TOf7UHZRChZHEz4vaJFr95Cok0CCxya6MhoQdamnA6LBf6pcwft9Fl40OOjT1n9lJ/OFiLlEqAP1U3s6mDGh14LHBvo0GbRZcOMTYgG+ICPHDaGZNoUFUs8LcDabHSLV/Uh2+jyXZ9YBPUhupBdsw6qX0E+G9hoQ8jfbJk86vWLhMeGJN8aA/Ep463PnPSTrd0GsXETbWnGb4V2IE/sXCuno76rvwCNMl1tZPsRHboJvPxxYqospVNe6ppcqXKxYUcnsvxkX33sHuqB0b0XL5TXF+yzSeerOrGbtGhWkAfk0xuPeolM9ZJ6dOqMc9fFMh5laeoO6VI/9cgrl7SLjbiQlz9SUF+On13a8bNPvCaferRyqC6/5XSS1b2tPdsmul7rz4Gcm4L8S9KKXX3Xs/6ovPN5xXXtD3Qc+f5AQePlyWkb3eu43dlzyXi5FDeRcxSjm8g44r1J/KNpToLq5DsZ18m9rv1Ocafyp1/rGIHZDo2RWVe5+lsbWKhyEoVZH+b1HJByHeP01URvkVx5AY9kIWgBgBY8GwILBBkt3m06JTpauEE+U3XZJsdDH750KqerFM+RrK5nqm7C9TpIS/Smn4/85pdcaoEE5fgAfVBmF1kWYZukNiW1k9er8lkvsc/rfRsfclakc2LGZ8WsL28zNXVEV3xmuTEgHujZzS802S3xRbuxVsyqw0+f8Re9diDnHPKP3h4C2IJfnVTfJAuPOnqV9Uf6gG+dFOOR0EnhnF3o8gMd+dlAtkRfNhjT6NRPufjV6ZP8IJuP0UqTX3syakcv5hPqsokt+OKvH2Zckq8ezcTUqR26htrlfNE/dDdOkhuNRG/+J0Oda7z6Onv5ppwfIK76sLGmXpy6t+iaNobqdm1HSOdNcBP5E8VjYrV5lX3dddjVH9E+kDFtfiDa33h5ctq26s6mNT/CbN/RrnX0XSdzh9XO+zNm52Rpq33mu7odjurhXNv9gduVf65PuyZ7lb+7XulO38Cq2A2MHSZtZXkpWKT8Qtrf6bSw1DZpYOWr3MJhoeh0to2BNothbfKdHHRz4Vvby6UW1SZyMlsQZ2y0T1lr3KD2mZJbvKB6ycIvscM1u+nPN3zaIRuSCcmE2tC3ASNXvcVWG1+1K5PtWnxb8NORvLDzd/WpFJRtMNA5faw9vpnC9E0fTNtsVvkjqWO7TYUxgRZNPsrViaXEfzzJn3qnb2hC/cIHZfLwiyvEP23GL6GXssXmymcUkzb+FeyZNk200TI+9HH61LnGJ2buD9f1NdA3Yx9/bcrak69OWQ7xiol4BvXxzTJaybXYScVFnTbxCdWVS+wA5ZCdeKMXW/5UB3i1TVqY7erFS1480Mtn7NA27viBXgwaHyF70qGcjEuB56ZI302x46tuzcO8Xtvyfa0PR/UPZKz+GgMPFD/mWLkdm25nrJ1D/Q+rPet1ui+leyBjtXnFbD/y9zoZlyAZsx/uD1zaBzudl/Du+KqTr+nuhz3sYYffwEbUxKtcQOKp3HWwCFisnTbBpF8xHVvpWlAsEBZtC0inahYcdCWLNX1zwbL4QHafQ+0trhYk+luk2tC2gVEfTzZMHcqr3nyNtmtQJjPZbEiXybINGP+04deW/Mqr7GwQQ6+35ZI6coubjWE+0yEpB/TlZCbfdW0Tk07fsV2f1VY+y5BcqL227BWXxlgn/b06R0tGPHwF/hg3EuCBYp6tK4p/fUKenDxo48ImmLZGA2wli53RwGpvNnQ9aUF7m2nxpLc+1TZt1Uaf3PXsTyBbIk+Ol43T5+xRjl6d+BuTUF200ZEhJ49+evQfvsYannQmJyQHpnx5bXRA/hpnySYTbTQQLxQP/SR+4okX0pVdQA7b9aVx5MHJNRp12QTlYb2+Dum/Dum8qXw4x1vdmq84xxtcz7ojWQ9krPbPcfTkxqVjJWT7Tfmuw5G8c3qmLTOek+cc/03wxOyvc7K1zfa1vLbvcJMYHOm6Xax9cwkm/dqX52Rpm+1d73hOP+L67/IJ54jBRA2TZtJWbxFgqMVqYqXNmdJE19EUBAuVxZMtFqs2JBYjC5B6C5KkXbLwtBDtdIWpM71ApwWODMlCWUJHfosxxFuqHs7VBW35x1epk9T0Wzin/vyLP5lTtjwf9JEF2Ka2eIbpL5CfvckOyZ86YdKxXd9I0dQGa/moDboWGzEo9tnsWt+nP7u18ZlPjRt5Y0V9svGU1nrX9LVJKjZtUFc+ZfL1lWv10SX3CEftdLdhQ8MGuTo52er4DPmrvn6dsl1Xj5YcQF9Cn+2ABi2kM5pQPdrqxcymGi+drmHyxle5GFcXoosGv5hIxnR6tSUD0hMvsMP4BPGderXhUWa78axMvtw4dB8la4dzbSvovRRTLlvOAe2kX23ate14Zrod3C7fxJ3ovylWPV0/qfSfw3V9PoH2dmy+VMdK1/Wq9yY2XKr7COm+UznX4cin6uWleR1meYfor6NbgX76PvlvIu+mesM5vqO2Wd9cDepn2+kEdhKEiFYFa/2unTyTuQXTxD6xoy+tqL6FYzcALSySH/GY9J0kWmCkdFtkyLE42VA3oMmVlKuToPLumjypzRC9Nijkt3Fq4YRkr1j9mTTayJUs8ukG/mYDHW2O+NtGDE08uwR0ZBtZ9Oi37KZbWb0FG026YMqSH/mjnlyxnxueiSkLKsun3FnWxj528be/cOBEVl3xSxY/oPjJ+YKPXcrFL1/RuE7GLEOyyEavbOOExjV740FrzPhTYnJ0EB0kW77WTeCnk93ao6nP8r9y9nVPupbYNGOKnl3xThuUyQBt+MmaurOlOoiXHRIZxT5bph2VpWyYemHqqJweNOQqG7fq1dEXzwr1dMjFqPGef/jZBe7zZJOJzqcxHgaVj3CkewXZN8GlcgHtpO/6XH3XYZavw5QxcRMZ53Ak//7Ekf1PbL33F246nu4U6ZsxKtd209hFv+O5iRwwR2XfGpcpKzvPYW0/oldfCjvaI/77Gzs9s88m1hjdLnZy0iVf07RHmuhaftrATuGTwaQ9r2c+64GMFhe5TYSNAUzaybOCjNmunMwjh5QtLG2Q0FncLSTqLfDq56cFIFdvAULjOn8nogdtrqPpmi7JQixX34ZICupLE/k465VbtPlRW7Rzs0CnTQf92vFZeNtQx1MOyUuGNmn60yZLPX1tapw0amfXnBAmpnx0FneLfLS1h6PrXf1axx6biWwU8zZG6uXZnt3skPNPLk7iZfNy9CACq25QR0bxoktdvPnsulfPjQ224QF8kI5zca2/jTOYdjVutKtPDhvZY9x7wNOmTh6dHA1eIKt29qEvxuiyGaKT5jXwPVvxkVsdWeRKgEeZPfUDGsA7sdOVT+Is1y/V0RddcF0d+cYO4Eu/9qkbjb7kPz+MbXOQ8hFWvfcXLpG7+tiYmOVoJu0sH+G69olVXtdruhTR3oTnplhl39TGJybqux3Otd0UtyPrKEbnYnddXIt96QirvXOMh8raVnk7+hXxrLxh1k+66lacawvZtfp3Hd/Ejnane6ejWB2h9pV3hylH+eh61q+4+xGPeMS9FisTWRP0NPI6g7XFV26zomyRnNjJyVFttVee9DMgytlFj8WcTj8Ys6BMmRYui0qLYydQckCrzUIlWeDISH8+TVvOldFLdLaYteC3oEK08mnvRIv2XBSjjTcoJ3P6LJHDZ74VtxXTlplqS55yMUYv9vmqvhTQ4bPY90AD2bvakg1HmDyVbTTk/NSHbMxOdcrsnBuSCfa5B7oPtOurNlfkrPfIDmzQjlY8GlOuydDGBvcFHdrIl9Br109oj2JQPTnkos+m4hLIUYcO8PI12/jHT3Xig7YE5GqD6vMDtJETPSivtleHXo6fDbWxQ9IuqZOU+UcHvql76qicX5XR26x7iEm2WE/edJEr14aX3vqRbVA86rf6tTq0jcXkzYSW/JnUh9on1usdpozrkC1QLKtb5azXsKsD9dm6kwXVz5QNa7xgXh+liV17aYdp78xnzGeblJ13inMy6J/tu3FTWlFd9u6w8kWnfvJEJ5/pCHjPtU+serqWl3ZY5Ue31rsuBeVV7rw+4ul6th/ZB7XN/NJxg2alSz/M8oqd/Elf+yV2hPgn7zkbVkx+5Z2c5gBQHw1M+hX47/7QD/3Qe03ybhIwAdsMmpxN3FPANLzraRS49v/BnWJJ2maCXd0Oa/tK65rzFg6LlP9THqJNRqlFqXYLuI2vTUWLqHYLlFNb7fmoLTlhlsF1cYqWPMkmgb1kF582AJI+mJ2Jjk5pAm2Id4W6bhr8+lWMgJ90tzADmql7YtWXP3jkTbDpcRLluno8fBfPZEys17Crg52N6WtzEk0yamuT4e0AW9XXXhlPcSNXjIwB4yO5te9AjjaJz5I4kKMs7t1rE2zDK37Zlo7K08Zkk7vGJP3o6wM08mTR4T7Hr1+0i02+ResabXXpco2e3fmj7jqgIaOxnbzGo/tTPaRjxks5G/MN5PF1T5GlrP/E1TVMeehKgZzGiwcvqH/yWdkml9xphzFzhGgmpt5d+yWYMq7D9HXmax1UP9MO1dcv19FNVLe23W4sboLV1nl91Dbr7gRHcvjdGA83icWUi6/rKWOWV592dPKVZ4ej+h3QTplwCT+amUI2quv+7npi1Qk7uhVr++76unQJ0O1sDMmZNNVNHTt9a/tMK45s2NGGeNDs+Gd7eWnFpJlY5d79qEc96t5ewbawWEgMAhO5RVIbQS0QhKCVqy8HNBbGdbMyDVHuejVoYuWdfJXx+xumNuHsru0I6Ys3Hy1u6sjxOtCC2iSCrgXNYqgMTdgw/Zg6ZqrOIrguqGTOHOijA31IzqWYuutTqY1CvlmM5a7pLAF+vLMOHX7X+SNHW3zSkZ9iRw6a5IRsDOt1qF5eaqNJ76ynQ84GOZvRdaqn34uBFE28xrFrY4Ht+OobiG4HbVBsJHLcF+6n9EyoSz56shsDAQ2IKfvZRE4pzDo8YlM/uJb4DmLSQyxd63iT6ls02RDq0+TtkBypjTc5rulkG1/EiK5kadcmh2wHddMWclyzZ9qULjGNp/aJGWc2iAlbldEDHmW07CWTPHRsr9+inZi2hklz1L7KWXFde4huJ/NOZazXUF3183rWzTzsYrHDlDfTih3NmsJR2yzfKc7Jynf5pXEIk578S/innsrzesWdxOCc3zt7j2jRRb+zMcR/nR9HetTXVnl3f+/KM5/t53Ad7aV+HMWk9jWfOMd71HZUP7HTudMP52yYPHc/8pGPPP2Iy0RvoTABW2AldRa+Nh4tmja8eKQmc0gOXgs1IzKk8jTgyMgVKx8oV+9Ejb4WGZg8kxaqC5XZ34KlzuahDa3FSuJfi6I2sQF1xWGW87E8XV2ja4FWlvhBdjTAJtfJvRNMW+gmW052fkr6Xpt6PrELD/5y9clDR07jBCzq4gj5CMmQQuVZtyKemWxg6Zl+lVcGZfbK2cRHOR+Nafx8lkvqXPObDvT6O12Nt/TMVH05ve4teTrFaO3PfJCjlaAYhmLMJjLQp29i2sPe6PCwAdLllLkNpPb4ytVlbzqlOS6yt2u5lDx14sCfeLXhk7uvJDZkn3pltJI+qV4iBxrDrkvV12fRAFmgnm0wc/X4OoWNPn/qEzLZpy889OTLiuwJ5KQPjtrX+hVTxlqeadbtwOZJv0tQDmvbESbdmnaYPqNZ41ndlLOm6+J2U+z69DqwgS2VYWffSlf5JkiefCd71oW1burdtd2OXROTfy3v7EtnaUV18U66tW0nf8UcU0fjK1Te1a28cE6/tinnUuCZvF3vMGkmjuh39edkzzSxXsOO7iaI/+6P+IiPeII/ozWDYSJuw9qG1iRuoTNZg/ZOHSwsnYaZ+Fcj0Ugw648Q/462eotHJ74zuJNv8s8yrG38Sw5byW/joV4cbGh9z+nawqWN7zadFjWpATzhuvjOtlmHL5kt5OQV01Acb4JVf9ezjt4WZDr41ekjOu3JWlNQLnbGTou7mKmfYwbSD1POOUze+V/Epi0zRx8PKNfepkmc9S+7yWI3/9UnW5sxIibxaIMp8wjix3d6yMar3LhLT2Xy6UQz68WwDaz6EqzXoIyPHjJd82/qaMzV19rVJUfuWj05xqO8vsy24lAePygXQ4gvkE8/O7TRBcr45OwVu+olSKf2iWwglzz2Vjd1A371ZKDlI5tmH0E0ZOoHUPb5FOTfxOQtrZhtEp4d3cTa3vXMpXybdbNth+gnLq1bka6Jc3zRR7OWr8NNaCemnokjObNfJ476btbFC0fyJ3b06mZ90D7rK5/Tc4kNO0y+VQa9O7nneC7B5Jk6zumbKSjPewMmXWmi61k/61b6HXY06lZfZn6Eczpn/Uq3k7uL365uQtuUlZ54Zr7W7XAJDZxOYBUyUMqQrqU6uMW3U4kWvBaUFg+TfzzkTefW64mpqwRz8ShHZ8NMpw3FTmb6K88c/wq02luAogULqD/XxV90be5saMUhaEOjLt10Tb+OUDteuViLpWShpLOY8zv5IdnVr7p217MuPou2xGZ9rqzNgs6GdYFOxio/efiKB7vxk20c4VnjjW6VNaGt/nMC7+EB4jnizR7Y9UnjWF+LObtKrkEuHnxq7POtGJFVvtqBN51tyII448tGOpXrZ7zxV6Y7PVNX+sOUC5XJSn42Nb7I5hM9kxePesA7dcvR5uMu0ZFvUy64JptcfUqOuNSGH68cTXBde30I1ZEDZDaeswGiyy/Q7lo88LguVuprUw/K7lf12QPyyhOTBlaaHQ9Uj1+6BPkfdnyXyFrlnANaKTulGfNz+ibPiiO+yVOq/iiWK3a0+QDlK82O75zO6CfNET1aNqz0YVeXfHkp7MrRTJ5ZP5G+tX4HtDv7QvKjWWmPdEy6yTvpXa91EH31a7vr3ThXXwpr3Zqnf5emfdIRsrccJn2yJro+J3ciO2DlmW3ngKa04zm6jucmiOfWJwRVpHiXmtwrm9RN2E4d5ms2mzrtFiqnozaZrlvs0KwTW1ivwTW7pKCODKdvnYaFZEw5068Z3GTO9jVFw18+2bDSLbm2seSfDU2vYaNp8WeftjYckAyY+gAd2fhBPdriyhZt5IqrvIU7mZC8m2LGQ5ne/OGvejrbqAMaKRQ3uY0DOu14W8j0XRslY2jafh3IwWd8tYEN2ta8cnZ1HWY7W12Tn7/xgbJ+kMSfH3J+oS2Ho5yvyVAuDspSdEAf+WjY07jongqrb66llaY6dkpkhnSLAb+UdzYp42PTWj/zFWynE8iccC0GEho2sLUY1S4vHuiSQ2eywXV20IuevB6cpOIBrpMFeIxx9ea6dLrWhk+7NvVgPCYP0rNLk+4cVr7qjhAdXyZPqO4macZlxY6+NLH6u7bfCc7p2sV52lf5qD9mm/E16XdxiRbNRNdr/Q7TlspHcnfY0RzVlVbM+rV9x7PaOe2d5XO8sLZN7HgB/5Qx9c0clLXvZO3qdohmvccm73VyjmiV5/X0C2qPpnylW7HS76AtObcrz/VM4aiufLbNMqztcPo7sC28UGesmHWzwyS8LaQWGhvaFjaTu82FQGiz8WrzhV493hVTPqBb69jR5oUNBXvyoJl5bTOPbyKeCfbTY4MaopFL/JKU+W4jOzeu5PLXwqxdfbGT8KFR30KdfIgum9PVJiv76pP8kLRPJANm26pDTl51yaw/2amOPnajTWe8jYEw20AuHvHyZ8qY6LqNjjFgo1V9duZT/kD6tK9ytUWnzSaHXPEUZ76G5KDPjjZ86MUh+fkxebKvJJY2QdklqYuuuEBjSYymzQFPSNYsS3jIk9dn9WO6lPUpn6B7Nn3aYdoJ+Vn7CnK01T5zKduSK56u+RstW4F9oB6NlP7syZfKPZyIN9ri2X2YHEDLXjY0JqPPD3zFTr3xCF2vCcph2jbrJz1Ed1QPk2bmoG3SzjZYrwMebWt79aFysZvYyd7VQfXZq4/UZfvkmzZMvkkT1M000XX5KiPdO31QOyhHt6ZJN6+jh/KVNsQ36y7BOfq1bdU923f9G9BN3h2SR44079dS1+WVd6AvGaH4xNe9VX05lId5XXnSB9cl7VI4ugfWtEP1cn6tsmc7aJv6drTJcC11XQL1uzhCPBPJhlmG3fVaF47qw7n2p/jP//zP/zIh2zx02mFiNlm3YKmTr87VJpFhIhfIJvY5aPC2uNNjwreAtEjVRkYyp255yA6nu17p/+u//uutjqabLfEBXfHMjq5d3qIW0E1aMixMbUqBDvX45MVPoo8tZGhjk01c/vG902k02tCjBfxtDivjAzmd6pPPJra5Jlv/iSkadqknv0U4WeRUhrUskSGhJaNyKSRLP7KlNr71jTJ+vrCN3cUDLblBHTuNDzRBPaSLr8bAv/3bv92SFciXyIF0uC5nRxuS4q1e3VM+5VPe+nFgNrAHXfEWT0gvOrxiAN4QkP3UT/3UJ9royrNNjBo/6iTy6SZPIpssIMsGu3upmCuTEV2oTp5uMvSHByx6Gn/KEnqJbrLF2niVk4Em/5X5gG7qCOSggeJArjIfagvskPhcTPWzuOQbHv1Q35BJHlpt0eHRRh77svNpn/ZpT/2jTQwAD/rGnXp1xgm/fa6irM2DOllsEDt1dDzDMzzDiadYhmwgv//+pkymfPpRXr1EprpslAMdrvldXbpKxSQko/u5uh3IYuuUHdS5H8SLnGyQVrr4JxrztbGJvYE8SR069qKZwDvHUPGYc+YO2sg+RxPyZ7XBdWVjCl36ldmdbyF9yYyuOUUd293f+j368mJ8KdCyqT46Qn0R8KUnG/k++2zaJk350SQDqoNyMpMzIYbutRlrmPKCthI78WQLevVdK2tvTK1Ar01fpBvQml+SU5v+gNWu4t19DclIL57GDZDZPYkmuuYAyB9ylNFWFz0Z7DJ/qeOP+Wv6XA7KdM8xUE42eemQr1A364/oVkQjTx/MMqzX4Sn+4z/+478YHoFcQDgvKRdUHbIGoIQu2ikPlKeD0QuWhZfMz//8z7/62Z/92RMN/m7clQeSb4PxxV/8xbcGEKj/mq/5mqsf//EfP00CBsf7v//7X73SK73SLfuik+j+pV/6pasv/MIvPNUDvk/4hE+4eqZneqbTNR6Ty6Me9ahbGyWQv8RLvMTVB33QB538+MAP/MCTT0D2K7/yK189+MEPPukVu4/92I+9+sM//MNTO7pXeIVXuHq/93u/E6340mtBxfO3f/u3tzr16Z/+6a+++qu/+iTDNWjj23d913ddfcd3fMfVP/3TP51sUG9BfK7neq6rd3iHd7h67dd+7VubKfbOWPGLXnlxZisdXX/Jl3zJ1bd8y7ecbGPzx3zMx1y92qu92okOTXQT8T/mMY852fd3f/d3tzasJuXne77nu3qLt3iLqxd+4Rc+2UTWX/7lX57iS0+yyUlWevK/MfDQhz706o3e6I1O8Xr4wx/+BH8L+E3f9E2v3umd3ulWnyTDpvTbv/3brx772Mde/fM///OpXRw8ULz4i7/41Vu91Vud4meD0gYW7+/93u+dxkX9IM6f9VmfdbI5qDee1Jtg+Iz/cz/3c6+e9Vmf9eQ/fvZ78Pq6r/u6q5/6qZ86lfUnevJsrl71VV/16vVe7/WunuZpnuYkWz/mS5tJG6Hf//3fP9nFB7qg+AX19bN6uu65556rN3/zN7/6+7//+6sP+IAPuEUniem7vdu7ncrFzb32C7/wC7fk2pTfd999J5ulb/qmb7r6yq/8ylPbimkP2vIv+IIvuPrVX/3V0/3XxJ7+933f9z3ZqY7vf/VXf3X1ER/xEbcmbvX66TM/8zNPf8sZxCAZoCye5pYf+IEfuPrTP/3TW5O6ftDHz/u8z3v1Oq/zOqc5wnhkFx0/93M/d/Vpn/Zpt/pb26Mf/eirF3qhF7q1oVX3zu/8zqeNbHjrt37rqw/+4A8+2Q54wVjS3z/2Yz929Q//8A+ne5G9xtHLvMzLXL3ne77n6d7Qx/qKD9rZ8P3f//234qbuG77hG07xD+YnY50d9IkXefrY9R//8R/fmovCp3zKp5zmID6E+hqU2SEOH/qhH3q6P2DGFg17jO3XfM3XPI0nMVUvTX1kBfXi+q7v+q5Xf/EXf3GqI8/mn29k8te68M3f/M0nXu1ir057QPfxH//xp7gCvWJKDluOQN67vMu7XP31X//1E9i2grzwVE/1VKc+dB8H7b/xG79x9SEf8iEnOfr1ZV/2Za8+/dM//Vb7lEGvBGIgvmx1HxvH2sRaTM2T5jFjjVz3u342ls5h6hMf9nziJ37iqT7dE+YsfUwPxB+9XMyf4zme4+qN3/iNT/MSufzVl2i+8zu/83Q/q0+HMrieevEZs+YU68DkATL5ag1rzgtrX8UnN5atu/fee++terarf/u3f/uTTNfP/MzPfPX1X//1t+aXkN/d1+bl8AIv8AJXX/ZlX3aLx7zykz/5k1cf93Efd7IpOfrUPfuSL/mSp3a2JNe8Yk0VR/ibv/mb0zxnPgHt5lD2de/gNTYe8pCH3Ion+z7ncz7n6sVe7MVO4wIN/XjMk8aoPjVOtJPrAMAcx69nfMZnfAIeYPdnf/ZnX/3gD/7grXrpVV7lVa4+6ZM+6TRvpj/kF8zyES6hgWIZ1uts/18KjJwE6jjDaRAsndZAanLRaRJ6QWoQSupKoUCpQ0uOG1VuwjWpR3Md8Asou9x0dLLTADXZmwjSbWIzqNlKfnZlP90WcWVy+E4Wmuz5oi/6oqtf//Vfv+Wv3CC0OWY/W8gQIzLw2RxlFx7XBmz6v/d7v/c0EVi0+MEOC5AJ1aYPr0Sm/59Pj4lTzr8P//APPy3MgU3gpvuzP/uzq5/5mZ85bcYe+chHnvjETJ+yTX+xi934JHJnH7r+vu/7vls3MZ6v+IqvOA3owI8Qn820je5P/MRPnGTkr7Z///d/P2022fZe7/VeV+/4ju94soct+h/9JWBv/Y1fItcGNl0tBhJEYxPyO7/zO6cJSFs+aBc3k47F6M3e7M1u8cr1j/6jG4942Hh92Id92IlG3xk7cnra2KIXw77XVv8nf/Inpw23vi5GE/h/7dd+7eq7v/u7T/1sMjTOpSa7fDN20Ou7MO1OdnXsaazVZuyCGBhvHtS0lcg2GfIfDbAjG9BYkBrf51A7X8h6uZd7udNk7P7Qps4kanNRbIzfH/3RHz3Jb17itw2QmM+4BHYZI2RbXNGjBTq0/+M//uOpL37kR37k6nVf93VPG/k2hvnDd3KgBVASQ/aRITboxLYxSEf3kwc04+RXfuVXbo2LYsdvNthgWyhs3rNPri8sSsVC3hiUAlvZnG1spZ8MY9VYA3LRqCPHdZjyQDs6svVBdk06Otw3HsS+7du+7epTP/VTTxtNwD+xyidXbII45xuY99hdHD2AeNgwr7nO9n/5l385bYTzp5N112zeQZtxL7b0rbYFcmoT06lXbkw5RPjzP//zW7abAx/xiEdcPd3TPd1Jf/bHx0/J/GETZx4O+lefu6d/+Zd/+XQYYzPcppm97JhxClMHaEf3nM/5nCe5ayzQojEX6AcPxSt/UG+c/tAP/dDVW77lW542xOijMfaMg8YJ0L0DHvOzcUruro/Eh03dewFvNpanxz3+/M///Ldo5PrHXOrwyFhWZ321ntsATt3aytG4t8lG41BBP9aX5H3UR33Uia7YstVG03yNRlyNC+2uzVP545o9xi06csnw8Pu1X/u1J1rt6sWJHHMfPnTmHLJcA5vtBz76oz/6dD+41ibnA18e97jHnfYdDlg8NJODRjJ/utaHeCTyrQfyKS9983qWj3AJDSQbyieSc+r1HQHcInq88zaanmY92eoMDnHYIHTzoZUEG09pYtavbUc2BO0FG+/MS+zUyW5+5eo9HRvYyhOusyPaUnXanehaXBq4ElucBomJcqhd6npF/GR/3ud93imWbjI3Pnlsn0DbZkPZJtDCPTevtQF+yeB3emEBt2iioVuuD90gJiB9Sz96N4oBKzm1sXiwT8L7m7/5m0/wVLrCDWbDZTEjU8yAbPzZRn6nu3jYUrv8usTX7Kpv+bWDNmC3E28Tj1jjTZ8cv9yYdlpuA75D+sXwe77ne04LDD59R65yfQHo3Tf6gJ8WAQ8+JhQxojfd2SGhF3+bfZsq12zGg045+fk4Ud1sT3bl6xBN/biCn0f64609mpXewvA+7/M+J/rabGzElp9BHMSgvrc5sNnTD+JuHEVPFlrj6zGPecyJhw/4ihtadeX6sQfH2X+Q3DbtdOV7iC/5oM7Yf/d3f/er3/7t3z71HeSrnGz1ZFu8LDDFuxieA/7sWzHt2wEfHSWY19Wt4Gf+569+sEC+zdu8zan/8m9C3XU27ZAs95ET9/phxTnZR74EvOIhX1Pjxry1tpl/zHeBHpsLG6TZ3wGPWH3pl37p1Wd8xmecfNEuNR+gKfcwd8899zzBuIL0z7Ri1jVG0jWxXkP6p2x11gv3poct4/RI3uQ/QnQrf9jxVzf5Go8TU7ZTTX0XvT2LTeKUc3QvzBz0Az4Pu+YLba7d5055HRgph8k7gWeFcWFd90DEH/FFl52VVxg33ig6FOrwIbC32JDn4ept3/ZtT/TJk/jvDYg4QXVOa/EXnxXTnlmewFfaYddeea2fuOtIIWDKCXmDRBAsDgayDZDgCZJBIbUJatNyzpD0k9eGqk1VvPGg0YbOAqKztbV4yX/6p3/6ZB87k22C8CTbZBJWW0L1/P75n//502tS5ero90Ts1SM9qxzX6T4H8fmjP/qj0yYzX2a8gjrxtQEz+Lyq/YM/+INTG9rovd4ywc+4i4VXJV5TdeNlW7a75pf4tgHjIz6y6ne0+tZGolgmL5lehYnZvPFM8DYpNniNC+30fNVXfdWtp8X063tJTIAM7RK7tKEjzzXbuknTKQV8ZH3zt3zz6ZQAskGbT1GUixuwzQKjXXkH+rR5XePUzcaXr/zAF6Ytxil6J0vFVM4Xr418LsK37iGvEJ1mk6G+b2q199TOBm30FsOpP4ibdn0nbnjFLaxxA9dkzTTBbzHd8QJ99Wf3dak4ibvXkl6ZBj7ZfJItDk5IbYrYi4ftFgp9J36uyVMGudMb4zE/a/MqTaw9FJDFbnH1etAnQeiiDejYhFYfNybYHoqBhJ4Muj/5kz/51uln9fhswMWh+zK9Nmj6NzlPbNAx0yUwXs017C8G8eozm5tidKnMSyD2Ng0OD1bQI94TYhhmeUW+i39+zdTY1ZZfQN/v/u7vnk5y85MMY9HbE5h9iwY/H2yqzAfZZZy7d83j6Lo30TuEcQ/Qx4bsQU9Gtgf3t7Zo3PPX+R/QSa2p8XcPsdN8+sM//MOn9T6/VpBR/JJTIpuNgHe1TR2/80MuqZt+gnhMGrEHMtE6MOiQIfDHQ0dv6UBeOX/mdWX+P+xhDzut3cmk56Ve6qVOp+71G+THJUiHvnUq76BqlbWiOmuBT4L0S364L/lpTZG7nvOVT3EaO9loHkSDX70ye1Zkazgqo8vGHa5rPwd6TlbvBFQnzyD5SuuGkgxSzhtIDXYbR5OZQa7TQaDIKJcEycnYN37jN54WHMmravKAXgPEYm5R024T4PULOQ1CnbieSoJJz6stetI7kX/BNVoLoG9C+McfSb3Tz5d+6Zd+gsF1J3BCZBN3JI+9bDDYTG5uRjHObrkbyimxSdNpz2wjV7wM7nnzk6u9pA0t2W4enw+sNuHxXat6sWSXOkkff/mXf/mpLj3KXmmwjTyvafMHv5MK3+p4jfyt3/qtp4cFm1qn3uoAPXkWfCfW+t23VtJrvMZrnNrQTF/I52/20fOjP/KjJ1qJbu0mHA8ETqmf53me51SfDBMU25SPQJYTXafJ5ImBMbKCHRJZTuLy3zW/jHcnbyZVpxv60EmWzQ/70YK+8U2sBwKg70Ve5EVOi6ENGDskdZDtJiGx0z+SGL/Wa73WSfaK6a8yH+U7Wna5v93nc6ygp9OnN77f5l+6lSX92CZS7NzfNm7FyoZVrMjlHxpyJRtQ44NtaKENcXb84i/+4mkcZ7vc92Z9N24usVl87ud+7tPrUN+D8oc8cncgg6/k1X8rqiPHA6dxnUxtNt18d8LvW+xneZZnuTVmyPUpjU9c+PtAA/uNQfYbp+ZVm8m5aeCDzVbftt6fIFss9Z/Xwq4vwewn/bD2b+36wjylX3x2MhOd5qXpq1g4ybPGZItccpjiwcU4qe8l96w1rA2KdvTeJvj8zfzucxN16OV8dqBgfTVHssU4Nmd4ZZ0/0TvZtRZkt1fdq89HYA9/fBNLh2SOtEEjg3zwEG7jLgZQfUDr/re+rck94dM+37/St4P1H61xpj/44fvybOArXgcN7mUy2eoNIKDT7kCluMQnd1LpjSIadUfQVgI++YxCn6iTP9uzPdupX8xn6sg/8usIycfrMxFrU31WHqJVr+yAyoNU9sh9sysuPr0ybtmojXx7Cb898LsOQC95uDcXoQFjVZ02UC+5Lp8pzPKdIDtglsPZCGdgcF1a6wsk6Dg3mgVMMsAFxUJns2mjaaGKB79F3IlmyTc7BVsymaPRKdH4dtRC7ojbBtq3i32zIuED+j3B2pBWdw5oTCx+GOAmZSNb2OubTcfv2R397YJMC6KNisFyHWx0TRrFGo8Ps51gmRDF+O3e7u2unv3Zn/3UzneD1as9N6y46wv8yYDVH6+/nPgWR4mt4iCWbnx22xia7CTy8cx+e/mXf/nT6y+TkY2XD9p9O+wEx9jwyoIs/eu7Ocl3SS/6oi96ogG2sQONfncjWmjkaOYiEPgosVmbxbRXK7MvfYMsRsaVTQwdyaHXa5Y2REcQXwuPU3G86Kct9KOhx9hvAwRs9K2nTQ379K+HFAuO8Zdvs6/Yzk7xlMi2CeODHzXZiIttPHI+i7txIbm/iu8Eu6YuWK8n3HfQOIi2uOsvdrGJjexjh8SG9Ml9c4yez/FbhH0W1Ldw6sSsza6Ydd+QYZyJB399W4pevdxJDb5kmKNsgm346WW/uNqg4N9Buz6kU3kXG3VslTfu6CRTvR+m2Kw4LTKHWYDZxk6JbBtAfhwh2iOsdqGt7hzfpXDviZkNiB9SWmyTy1eHF+YQOldb7hTk0fWRH/mRp3upunO41Gf3qDFqzK7pf//v/326d/QjHyVjs8/LIDuMJfeE8WssVy/H5+EFD7sk97FNp7gaCzal1hlrng2Ece2BzhuP7nG58WMuJIO89HibgUa7fkKzi1H6A5rGrh8x45X8CMyctNJaH2dd4KNx7B5nw5p8p6rNPbiCvOKLjp9y80dvXNC4/6B4lPgKaMxPNpvdqzOp0z/uQ6Bv50vQZiPtoGDKMGYcdNFV7AKeczJDNMk1B9mUOpCb8sKUK/+t3/qtW3MmG8xv1jOxZp+HD3YrN07Mn53qV2ccymcsnOBmw7RllldMf44QzTlcx/94O/+/E6eQYAGBqSi6HCy5hq4rqxc0A9WNKbkm2yRnw+VmF3SpwQnKq23K2UW2wOMzCD3RNajjIQu9ek8cFm207NGW/FI8JhOTE6inw2Lnl9naXUdfvuK69kCeTaENeDfEDvy1GFpAk6nO5OLmsWkpvm6oTr48GVqk0RrYJlYPEuLPj+LIDhAbG7Iml3ytnX4TMJ3s1UauyVV/1ofonARqT4fJ2FOhScWTocnfppaO+lvOBzzpTaYbm165Nsi+EsjxaDOR9go38N3NDcn3MCR+yQBjQNs5aJe89knnBHniI+dTcQTxEwubLZt/P86wKEvkREsu/mkbWeIkpuLBz8bOpINsVE+m3PW0pbbayWMD2yXXtQc20E0vedXZfLl2b4N2fOrINBaAnpLYe7sR1PnRk7/g0Dgj22bCBhD0o5gB+drdB/TjyVa8Yuo0Rt6cA80JHh7Y19hbQUZ9YuEOYgP577ryPKHCr80DWnEhz2cLHloADfj+HMhRl2/yfILpX3Sh6+rkK83tIjns45MHVX3RPKK9T4OUQbl0J8AvFt6QeAtzDlNnesvPgc18K+kndfpSLvHVp2nGU33TuDGeJPd2DyLpNUc6bOiaLJsE49C4oM/mwpsrJ6zWNa/rnUTOt5Ih22DKnOk6xJcPcjboU8ma4W0U27SRKRY22Ds9lfljfOzSpE9/qG32QXUznwmNWJinlN3/Ph9wMjnpA53WXA8G9RustgQ/qvM5Fx3NR/rYA6gN4pQ9dR3JOwe89PgUx/gK6vkGyWWLT1ICGnOgjXx9CTb31lzfVBtTfHeIk62S8UVeMAasL8WfrHJYc5jlJxbScZeBKVCgcjUkx2a96/LK8UY3y9F0owmQRa8Nl4nAoHNjW4zY5PoI5JLRoJPbkBmoynTIX/EVX/GWDei9mgGydUw2zM0saPNnK9S10Drl9d1rE1hyYZZ3uK4dxMYxfwvbDmxpgiNT4qfXFur45ZWlOKr3tGpSxCc+Xk26CcWXj8XbxsnGuE0TGU4eG7Ri55e/jRM3rRsBxMME3SRtYqI79EoF2MsWN4QFu8ROmHRhjZ2+4ic9ZLEfDTuKRzzkoUPfONemHp3T3/pXXWNx6hSjS4DHQ4hXbXMCALoac3SsJ58+QbjnnntOf+bIpzReydrk2/zQ332zxkdeWZ+Q7Zr+/JrQNie/GasJvCY4f4bJjwIkG0ubv8ZAYBN6iTy5OnrY/t7v/d6nNwJ+3ODPt3gA5Ot7vMd7nMZyfqHXV/5aiFOA4CHIfd1YxEMOf/npugcnvmSPe7sHlKDdnxvzC3Z2OOXyHZjTC/RAHv61D8kFD7Z+vOFHZ+zIj+I5oU6fF3NQtkigzW9oDgpiscZ6Au2kX5G95Whn+U6RvGTxSXnaXP/ejr5s3aE2c46H83nSfo5v4sgmstyHxsZMTpmdYBkXjUXjxIO+seOaDR5GPGDXf/5qQhskNNnXmAF15sB8KBkTNohiWwpoJUgm4Jt6ID0rpq4JvHwy1r2xkN7gDd7g1vrHNzF4wRd8wdOnPOa2Fdr1j9h5s7Im84mN8U2Rvfk3bd/54lONHjbxmFusOfoGrTafjEx5q4zaPJBZR0AdH71N6c/v1X+3CzJLZEvGj7/q0RiDdNDXvGuelEdjnOorMqyRHpjYb940rkqt2/iaN8WIP+rQd28DedkXzvl8u/HIjxXkTZl3MdqAFADJhJvxBQgSuOZA4HqdkqN6qE2wO0EULEHVNmlDts02HeVJV0fV5sbytKQN1HsNKXXShs7Nt96A6vHhERu5TV4npEF96TqQmc1rDuR6ivIhtsltRfwNoKCP2KqNjSZfi6qNg2TzYVPkBy9oxbjBJ5Zi5jq/jAHfGtns0oPHJGrR1kf0GBMmZRuvaVNy8Uggfv3Aiexooo+XnOrPwdhwWiE1ofNDHyaH7ikbZjmaJoVuavXiIC+tG5CgbYKf5IhdJ08Bv2uyxcDf5kWfDmC/xdP49OrIYmGT5dtPfWSDlo/A/viLNX86na4uTF3l2TXb1OlfE7U/pyI5hXaSoR/TH7ofIRldy71CN06cljlVJEcidwcLub/QkB0w5Xmt6U/U0Gvc6zcwvjyAZQNef6/YPKCOvOTwTZx9umKB8/ebbVD0m0XV/aevGgsTHu7wOtHnB5/IRZd8qFyMK7M7eyAfZ39Ne+vnmwJPfLfDfx2mzHxdbTXGw01tmLGcUN+Y00/60sNED7JHfAFNaQdjyEmn9cRJ1Uy+uQ30mK/XP63ota1X2qDOfeu3HfUvvjkOssNYm7ZXry7Z6ZGMG/nqb3x3Cjbyz0GO5JvMdLLVZwU2VlD91J293fdr8rnV6u8qI6w+7jB55XjE3icCbdL49CZv8ianb93B/CF5COk+XFH8g+vqJN85G4ezb0o3RTz565rtxqPDEXFfkT1zz+CaP3xjl7+o84Zv+IanBxGfGvYQ4e8L+3Qx28F8aoPf/GQ9ad0Ps5ytMOthvb4E0/cVO113cVKQGN6CruMtViYHE3rO3MSgacjkUy/t6gQSBH+9ocECbkNRzi5y2OiX/E1sJk5H+o7Mbb5aiExOj3nM//sndWw2bOZ0VpuXkD3pl9PpVWYbviagc9A+U3VB7A2OdLn2TYrJYuqPp+sVU7YnSqepnrjKK7NbLOpvm3gxFxcbVol/YtmkhMdk5bWnb5ZAfMXcD4HmTTVtDsaUWJGHr41GfbdiJ2MFPvL0oQ2PE90eSJJJRtezHNS56flhLIkDeeROsL1xOZGdFis5Prn7xmcbu8mGHHT+ELnPPtCrk9cusVPuBNYPBvwwQcwk9oojnvggP8nXv9PXiezUrg8qT6yyAU10s42dE7WV46Ezv0rdk9EAHjb5Y/i+N1yhL5wKd4Jd3xjL7k9jXHzUSR5UTd76mQ1BG/0l7TYifghpfOpDdrgfJ7ITlJOT3VBZH6GpHq3r+KAYwZQ9Ec/tYuqYuFOZ+PM1Hfl6f2Bntzr3qDcn6dKvTtD9ZRQ44pv153xHV//QMdOUQa/vIR0aJN/JlVNJGyTX2fit3/qtp3EFZEcfjXyOCWli6s726tIBO17Y1Z0DHRKb+ClVl06+SmiyfSJbkjNlSTueifRVvg5TB8g9ePtNTHXgR8TeCPGhe9Qm24PpDlN3cZx2OSH15nSdK26C5LFJ2Xorl8xx5v1+zHuEtS1b5dZ//jkgmUld3zDXX9ZreyJ17FFujgvK6ZNP3bN+8uxwXfuKqSfe0yjqAoHFz8au78LUWeBbQJV1fPSAfzWmurUNz27wrnQ7tOFrQFq0bLb9YtevlRvE6r2KtJg53nfqBfg9WduYN1jiUc4fWG2h00DwukGntvGEc3Ync8oOThC9ggAy0BTb62Ix7ZWj55MBL18TmuKubFCKUzHNp07cirEYvvqrv/ppc+BEi3zQ7jtYE0S2xDNtF3uTt6d58bNZ0G6TQKa+MKbyf6bkzLoJ1/zgg/FaP/IX2GNzwy92x1/OfzokG3dp0sEcHyvU+budbWIluvl8RC+x2bdN/oObHye4z+hlT5tpKPfqkm3FTDz1S37CTt+K9IfKR7z5k2/SCrxrfXrw8suY5pvcdXX6RSwkQC8ZI/4CA54JD6XG4mqTfhZD9caY2IBr/3TDCZiTBw+z2YKm/s8HD3BOVPCle40Nuvoqf9RNqJegWKRnov4Na7vrxl9I3iyvcibWNnas9t4OsgHuL5kTR/LcA+4b9xjf2NGY0RcrjuRM+yfQGxvuwzVN+Z2sWi/TYXyS6697sM+4dO203rfc5im0q+6u1zy4PuJJ3ryG6mbbTUAOf6XGs5Q+3/56wxedut041Df49M+MJRzZNevX8jkeiQ2SjZi1Ws4GbQ60/KdFnxb6PlQ9+/WVhxF9eR3ImTFW9nsTD1Gu7xTkiasDjunPOt9D+vCYQ6dd+XwuQX3WtRh48E+WOdMaukL7lDPLYb2eqI2cdJXDrl6envhP1ufEJKhOYCwOnKiDDUAbjza0LQQh4RPJk0/aHdK/yomXTW20bbz6o/notWtzWugpw48LTCRuMvw2AH6RT4b66fPUZ+D7MyKeMqvH4xtHr0TJsmlyAuj0D/2lvgWDzC9N/UmuWX8EspsUQU5GC7YYuEH9gt/A086mEnTTioeyVD0fek1WXPjnl7d89itQutSzw+mDTazJyRiY/pd347GNTjw2vejFE0xw6udmNrvyFWYZ8q/6dIJ6OuXGrz4K0TUmXJMhsSV52snIzmkXoLMJ8yE8vupKK9JLhvh5neU7s/vuu+/0rweNN38mxolyIMcra5sr5f/78fG0gS1ePRAkG3b6XRerfA6TX7s+cN94HeqbUYl9fsS4yo1vxiWIjU9P/BjF5zxk+DTCZzL+/aLxJk39lY3jxjVU130uxQP1tz4TH/2hTpz9kNAv1v25I59k+OsOPhnoz7SlE78HYQ+WdJMx5za5z3PEReKDT3OML5h26RcgE9QVO/GtL4L4qZNAXOJNJhr5pEuGXJ12CSYdVH9/gt7sW+Wbh9mcjTfB5Fl9skH0lzvUpTusNiRnZ8OUG6wn/gyTe9GfspL8hQXJK1hggwd9n1E1H+tv94wTLZsjyfghXxz8CAtf90l82dVYzyYJfeuU1NhfEf0sr2mCDLJnypYSHp+feQPkx6n+zKC4o81262gb8x3ci+479z1+yWbPn65z7/Bt2jbtLTXmy3cJpu3Qt63N5+hsXF3rK98q5zd/vHV0SDBl7ODAwRwwdZNnXknPDtFPvvRMfdr46rMmG+vA1h3Qzzk02WTwVW7j7uGKz42hdE4edfrEZ1rVzcO6SSd1HWb7JZh08U49K1a5rk9RweBCWpkTeCJ+fBDdjBySTNzqTPI6vwW1QQNTbvmq43ahcwR8/mF9MCDvueee04TTn/7Q7oZis4GNz3XIXiC3H6/4vgqymZ8Gq40dOr7byE/+oG4OvOm3NvySV5eXxIRfNmJNICA3kYInJxOEv/fp5InsoN+k9IjH7Cf1+s4JtXLJxGry9lRo0e5pTJsbR+yNBTcbeU1KEh02XvFkv9NY3/Tg9cM6T6/42EufUxZjyTU5ofKsy35Q71pOF736id/y6StbvaIH9fTvNoQ2k8pttibYh/41X/M1T5MjnedADp7GnWt6PWx44rahtbHymtwmJ1/E0YOXsfR/PX784qHXKVCn2GRm8w5k6Sd05LgP2Ku88qG1APPLouVv7Sp7dbvSup7jLJBBvu99/aky8ZH8GNC3V17l0Y1OXPmkLG/iTY5Umf3zmn70gLdxbQy5N6NXbzL2aQIbPHTYTHs4m/BgkJ5O+SA/PRwWE0k5eybibZ4AuZh4sFau3pjvFTPgmw/Os4/U8U//K0vaXUtBPV3pCOQk6xKco9VGB102DK6VQ/16f2DKBQ8h8xTtCDfxFYwRm1cbCP9OeibjVuyNJd/E1i9s46uNWf/m1j2pHeS+azcexcu81JwI+OdcxCc86hwo+PW/E09/13hudAOe4lMe0F0Xg107W216zEkSn/q7zcl0j8x/ELDq5of7Q9x8c+nTIHk/CguX2BimjslTDCQx9nsVr8iVo/M9rHnMm8T59+L54VMAaxL+I1v47rDBWzdzYX4b475T1T+78X6pbxPWb78FCNPvoI4+9715Jj3q1TX3+VHwY/777++u66C1R1/Ha93xb4IdOFj3/T3y2nd+TJ3JvQRH8o6woxX/Uw9MxcorsWuDscmiXBJAN6NTC4uiNg7b6JnEBaQFJj07HbcDE4kb29PwtEmyqbSIdcM3eaAzuG2ilBuEeLKPP/5MjwHg42eDNaAxGZlUDAYTnh8U2STFH5qsbBy0A5qZwCtov2ie/LMcxLEfL2lnMxv5I85B7Nk3Zdg46p/4IJ/LnT6JJbtdl8SxBxQQNwnE3x9DFl++igmbyCTHt4XajBOyfMDvl6kPf/jDT8npnB/SWMAtgm6808B8fEr/xHp9BPzixQZ++zYtmWzTJzbO4uJam9OE+dTLDxsesbVZdD3BpzaCTm3mKe8R6DdunWh32k2OusYLsKdcrNEAWwGdxEf9I35NNPFO0EuGDbl2dMkqn0DDHijmO7lTxhwXQXykNnLiqI/ZQj6Zkg2AGGTbDvkwddSf6uTZTYfxpO/8AXin/vUVoBevtU/RkDkf9pIf8GWLXIKVXnKawRbl+tfiafy5psdmyKZ28vsLCmzTvzZqgS51/kpIY0adH6KwKxoynLxk2wr1jSkydgnIkaaceNF0r7uH9aFyNOzWPmN3KXZjbULcbCRgte9OkN78lupLoMdcKN7prE29ByB9qc9rl/uMwCYnW4tN7TZb5l5+Se4T86TNns/M/BUPhyn6ngxI1opdHcz6fCutUCcWeEoelt1P0Z/r28aPcWJc8Ml4LZfcC9Fl27Rxh9Ve5cnDJtcOqdjW+AR7Aj7ooznPs8F975S8e2IFmd7qup/duw5z5hilx9uYHkSL3cR1vk2QZ3x7wGY/X3b89YG/qy2P1lxgDyDGza3elvaALqF9mZd5mVOfgDq83iQ4vPODcAcNxXjn04rr2s+hfroJ7hJwmzw3Rsoz9CgvuZ4wEARLasOEplM1utoIqEcvFzTpptBJJs45cUsFPNBTPfhOzo+l8BnI8jV47GGbkxCvQQGNpM3JLp/iM0CmTnAtrlKxSkZy5NqdcFq00NW+gwGJzgQZjY/Q/S1Vm0l//oht/UMHMOn0y+0WnuJNRnbjBW1S/SOhmf4p43VD2EDzgU3+3Bg9oN0vtT3NuZl86uHVkZhrIx/fgx70oNOYYRtb9Y/ThymnZPzor3yLZgXabOSLzx/8ce98p9ci5CRH/PxHISdy6rXjc2P7lpocdXSpn2AHmU6/nVJkz4xVwKvd5tWrSd/y2fh6ffULv/ALpw3t133d153+rqBYpMvYMnm2ucp+urW5Nhal7q+dfiDXQ5fPb9B4KFl9AjLhSE7Au0tgPPirDP4kmP8I1H/08aMHfvK7hyK+8I99Uv27Q23Z1nU24+efsfRZn/VZpx9A+IsOTshM4v4etLHonunv/JIhbm049emUP3XOVP2EuuKg3yS0+gxsWJ3oeQPh9awTP7TskLPfSR6oc3Ktn8mNxj3uR6W+2bWY8hFNcB+ub2EmzMns8FmFvxc9k/7xd6MbG9KEOOlPP+I0Vr3O90OlbNPuQanPt3YxuhMkz+dXTvjF9jqsPlyH2ceBf3zTb35oC/lb/5Rqm/z+C10xchrZZtC4EGvffTslMw87ffPwL36SuciJv3s3X8i+ndji36UJY9DpqreNkj835zTOGs4HutH4xws7NNbd/+51Y0oy3u67775TMheY52eMVjvCauO5axtVsSO3GM37oD6qHZ8Y908Dpj0Tydffxp1X8uqS7U2oU97m5OjllS8FG6yJ3gTQB0cyxNpvffRHNPyxoTa/GK/mQW96k0W+E2X3aMDrjam5yaktfqew1vA5zqYdxfB2QZY0+2fFTodrfHe5MVzYVNiMOLVwM9kkNFCPBOzqA+HaBNJm1qlhT1xkG2SeWOXRyi9BOj1N9f1rA8YN3n/tcAIhlwyGOk9n2MD6hrWNE6RfblCgJ9dTsE3WhCdqNyB/smeNBbnsaTPvetK6FhNtdHritnh2c024lmxQnA63iaNfsgEy4B796EefTlLZ3aBgg81VMZqxyGdtFnay1NHlSdPi64S4ONo8q48PvZMF8dLHXoHzB9Cw0WmRjSvbbKz5TR8eN5GnQJN5NpNpXKrDny7QbszY5IpBcVmBLv2SOHuqxEM2HeCTCQ8oXo81FtPntX5/SzQ7pq7ki6d6JyV8Ud8EPoHWqyrfhelHfE6B6VZnM2uRs0igBX68/uu//ilOILbsb8zyQx1ZxaWTkl1cQN+Tb9NdHFbg7SFp+r3KZJ+6tR0PG/hjoyX5o/M2Rvz1sODbuDaL7MHrXs6/dNMB2qMrrYgHLLo2z+Q7FbNo2rSaoI1HD3z0kCkmks8dkqE+feUhHasdyuzXbgy49z2s4C/W9Hhg8tBqYSkGyfStr18iu2afh0+vXl1LZBk/vin0PZ6/ekGGRH9jxn0/bQtk0Gf+EgcPcfI1GUfZNEG/2IqlfnR/558cj3vNwz/sbJjQfkSzq2/8yt034g3n5NwJply6bFK65qt7r/lRsu74Zxtez0YjNr4Z9Xe4XVtTrFPKfDHuxftRj3rUafNqPtf36XEv2UA2J8K06wjRXEe3gj02n8aG5OHP27Nk8cc64H5p3E0d/DLn+obWN/RzXBk3khNG3/fP+3vmO5C7g3p87La2dxJavftJn4i55Nqppbb0sWX9U5m1RxP4bHO5wid8/nSgsTl52FG6FPiNEw9q+ny1AfSDMWkz7bTUNaBlo/vTPGMjy6ZgbjJHeBOgnGxx88DicMHDlAdaa3YontOPm/h0xLfzbcWO5i47bn//0I1hIWzz4dpGlkMWRk4WxFUQQ0oTBqY6gZMXbDoMfje+wWLzbEKWC3r0q7ygng0WfzYqs83mxGbEK0PJ6axfiso9Mc1B5Wa02EM30AQdbOK/jbbJg22Anu062aufIzsBLR/dWN0YM35tdMj2mtuT+Tr4g/ip97Tl1CO7p/3K8dZnYuLvYbJTOzny+NT7Sw75gh/vPffcczphsemQ3AQmpP6pAVqy3PidmPpuyg+RyJDUgZwtyZfb8HrSs8iTUxvI83dCf7BNLPXLHJ8rLXkS0G8yeNVXfdXT2EbLf/XGTWVQdoLk/+ZnR7bPhI4suo1rY8JrF+XoJ9Abj/2dWO3ooqVfnh/KJhgPBdroYit7LA5iEL+ye0pb/pBTWlE9HrJWmmwnp3KYtLNNeabqyGC/vKRenf4z9qMH8UvHlLNLE9Mu85pPfegSHyAX0EnaunZ/+nvJNo+rXFh1zjL+yqAvJP5JHh59d8fPbEl/9yh+194SWPDVZ5/cab17GNKXfNfJVe+zF/d8n0+F6OTdb/jJV15T+lewzRjLB7SBPA9+vuMOs32H9AGZ0kR11c/cZtEDCYj5Divv0XV1K2abNcqnRunirz8x6FfsTqUlGz8n0jZrc2yLmX8GYqy555xumTNq1zezP+pTuc8H/Nve2c8w++4ctPOh/q/uCGtb13iV+eIve8zP60CbRA/bSupmWXu2uAblbCsH7Uf1kxfY5ZS39YAO95S3DfpE35RcW4OSwTbr3LxvaisHcvWht3OtdfSAA0A/zHV/rZi2zjSBZtbzw8mpN0rTBnAtFVcPc/PbXHUQTbl1xFziwEy8ok+na7TGYjwT6na2Xwr80k1wpOuuFj2d5pTCRsQC63Ukw91gOovTTmht+tzEHAeCOVyCadzO0Rygl2yDyCaGLU38dOyMTrbFyGRRsIEMH43bIDtdJa/kGyKy0dNr4XQKQv8KerNLosukbHOZv3R6MrEBS/8O2vBMGmWxJccpSXrE2sLjyV17fMpyMW+CM/j6gZlrAx1NtqElxyTqKZks/vNdjqcBqk4skuHaiZ+NqjjwX27SlXuVla5kmJjFXZ0TBE+nTc4zscOk3g/ObCjJ18YmiHYHNMamzbYxK5HJ38mz42efp0sPIy3C6PDzWe6hxYmXk8Oe0MULr3yC7xJ/bKKVPQk7iS2WgRzX+sPGWBzdU3jQhq49mHm946TLGAE2asfHTjKLWXaWqt8BbfbwS/zRTx669KW06llRXXl+x+t6l8TAfc5XfoF6SD/+Kb/yiurx61cTuQcu/SFW+ogP2vNVWb15ox8sBPK0lwK7Zv1sg2w09vVT7R783K/0zbHauFPvB2Ietp36q5/wJsR3fe4Xcxf+bOSLWJHrBxjmxU7X59gCPOXxr+kSoEsG8FXyH5acept/L5WXnGRdagPw2UOj+dkYmnFb5ST/UjROSu4rr9WdlNaHksMEc2PJPWVM6SvjEE38TrUaQ07AHLT43KMxSm52ujfQWWOc4qtPJ/C3ctj5OHkuQbTxdc0HOou5uQzoLE0UtzDv51V2WGWAunhXJKN2n4N5k6jMVjF14KNP3JPmOknZIYW/UIIG9I+3MvZBgezpw4Q263D3cHQ+Tes/eQY0bNxh5xdUbwPuM7w5NmbcqvM5hznCW0CHO6CtfuOnZFx6a4q+dnl+xLdCnbT2xSzXH9O+XV3Y1a3Y2RKe4nGPe9x/ZZiUom5Q4JjO1fFybZzIYak25YA/mei7rg0mPXRtY+K1Yzex5JsuJxloJK/fbBzYAU6rvLqCOgW0k+fX+RZLIM8H0l7BeeXuCTrwwybMIkBGdts0+ZucBkODVSyckNkke0VqEqcPjdMcT2j41XnV57QyeSY5Gz36TGBuKnHyXZuJMjk2t14DtCFs80WGb7G89vADgDY1Np+e1k3qnrTIgPpAeydfIDa9hsxWPxazGLmGbJbzURzkwH7fDvqGCw37xMPDkCdfp93ijo5uk4Y/YdQfwja5BDLzzas639+IdXb7lhEP0OmkDQ99NizdrGwwVpwSBHzaJD888/mJuBlDYmvD73tDcZtjPXt8NuJ7LiCDPCdNYkVvuuVevcyxZlyiK35eJfpPUPSLk9jTYUyYsGy8pGJOLtBZ8lSu78SPjdFpc7rg+05xUG9D4VtLPPwC9Ww1FtwbaF2zRQy8kiIPnTFhYu7vHUpkGfvJMfn7xpR+QHMEbRZ7P14Ue2W+00OWhxT3t2t2SU48JPapB7rLycSrTUzwsJ/Nkv4TLzT61w/LvPXwoNB9QgZZYuRf2Dqp4Y82dcafTYl4q6fDfd8Dt0252Pnxp3GFNrvQs0OM9I1Fhkzj2CdKHgw7acmvQAa/6PF9n3veN3d04PFK1N/ItQmuf4Eceo03dgZ1q46gXox90mIOdP96oOPb5CGDTfTR7+3LC73QC91qg3M68HrF6cCkOve4zRpo/97v/d7TN3zkSezyw09zYlAvru5NY0ms5eQYVyB+0gR9Tst6IwL087v7cYI93qB4W9VYoccJsPsL8lebuPju06cDga3uQ/TK6Mxhvr90//RplLnRHO5X8z5L2KEY2rDN9Uu9DaZ5ZPpQORuhOt/lWwPcF9OHoM41W/SzU+fsl7T7nQM75vgL8U/Z7kV2WoeTNYE2vnj9C3P3D7+j11/GAxlssG4kTywdXllvlGHK9L2xH2+RV5s9gQdGByz6I1k2fDas7nl1YKzdd999pw0rqCdDfKyf9hba8asXmw6pXJPvkIJM1+R5U+ifYbAXX3J9xtGPPSVvjByyKAd05hWf9bhv/FidHP3qU0CbebFwDckCvOh92tU8ZL6xF3J/h2yaULerh2nfCm07vniO5FZ3awO7AyGc0u6GbeGQBNyC0+ZDm+CDm1qA5oRHRsbOuonaGgTdCOolOi3+9NCHji42ZCcaYO+EtgYpZANZ7JSjgeRUl91AD7iWXLsRDRJ02c0u+rppsi/EW9zIMNkW32xFxxeDss2dNvGNPz3kpIf98UL+orUoOUXQVvvUF+LJr4AWXXXK7AC+s0OfoLPAak9u/rITlANeN0622JDXnj/y9Fv4++xBbOTabExsaOlSzxaxxaMdXfaQr1zc2uDUH+pds8XNTK7xwg6+iV+TAf7Z3/ypT01U2UDWtKFYsBUPefUn+dEF9JJF0Csr7eySoycbLxp15BY3Npjs1WtHC8UUyLCprUxW9uJhW/c9udrk4pLO0nUQZ/bRwTY+kQPFmT509LBH3KMJ+CG97j98ePhmLLDNnCVBsujIVrTFDpS1FSfjM5uTjbYY6Ttl9omhh2rtEh52gX6eqN8gXyayDw3Z2SRla321Am005ZeAbDLjz4agfdZlzyUgD2332UQ+JLtcH0rdR1L68Kwx1TZlJSdo038T+cDvNVbo13GHlk07+V2vcvjc/UZmuTopnyB7qps61JFdmm10rHU7ZBs65amrtqCer9P2iWKpbeqdMoNra5p4ThtWoKte7l5tvLjWT+qSUR+51u5B2HynPjuSiSabJ+rP/JygK2gjt/l/In3J7xqab+hXbk7Q7tCD/cZy9HizpdT60DVEXyxcK4tRMaFPvYSvMrgmU3yrw1s8oDys17DWJStMfco7GWv9StP1Uzz+yeGW9Con8yrIQgl9YgDaBZjjBV+bIKsnQ5ty1/HB7nrqhJVW3kAQZIsD2XTL2REt7PjRAVurn3pXG6CJbbZN3mLCtnmzs0va8clNOAay9uSvNqnPVv7aULEH8rlFu/jjmUBnA+vUjz3zZsKXzom1Dn02QfZmm7wTCZ+dZEM0kxe9azTFVm6cKRs3buo2DKCeH063yK9NPfn4yUTThlM7X21exDk92TttAv3RJi2gpUu/FlupGGpPTrEAuViTp2zTNNvJUJZWO3a2oVdno24RiJ+/kjL7IJl8LdmEiSt78EY34VoM+CaxA6Yt6YRour4O9IoJHraKK9v0jVd7+sw1kClm7MkH/PkN5KSfjdlRPVr9pux0q74gi2482mDGhF9yNpKJL9sad3gl8qF50EOL18PGYLKLHz56XCdDXloRX/mKZMzylEM/+6vLxxXFCt1OzsS0ZWfXru4c0jexXu9oIHuB/Wu8YScrnhU7PSvtpNnJ0db4CcV95Zu5VF+tNrievGtfgdz1dZiyxKv1I6zypDmGqgtTb7yTZtIqT/pzmHbA5KkOlCW+yNNRcr3yzmvl5g1oDAXtxRuSu6MDbdHP8ehaUq5uRTJg8sxrmHJ2aLxN/h2mnFXfOUzdR3ascro+Z3c4R6PttIE9Ff6bcBo+nW9Q+B6vb7AmTOgtYhYmN4PJvgGhXrtrbWg6RSQrG9KzYuqrvTx+NuC3kLTI0SMpo5HQTN+qC8m9Hex4812iVwzYRLeyehOHeOCfMQG561kX+Cnls5zs4o6H/HjV2yA4uWyyKjZo1jhMvaUjRM8O40Ru86mudpgywyo3msaLTYFrNvNRvdcwXr/hZbd2vtCrTo5ePGwielJO7hyfIb109GQM0z48NlMSvewTY2U6AznZJbWpzwdtyZ32y0Fb5RXobGDFF1206md/smuiPqfPyYS4ig/64hZvdPMkHI22Uvq0S8Wz9hCtnHxAG1384iKebBN/dfHaxHpo41MyytGwLXv4VD0Z0ZHBZ/I7LRUTOSQj4FOX3+j6m7ZskadTWazIpt9Dvs9GPDThD2SSJa98HVaa/EnOzC9B/NdhxuKBgkttf2LhKMZrvevG1domrupmfeXp31EZui5fdUzs2vCdk387OPIJxOISW2G2r3Zq63ptC9VP2tvBasftonEQsi35XYdZ3mHagnbyz/IqZ/KtmDzRla+yd3KOZE8b4p05xHskO8w25bsf9rCH3XsdQ8mCYyNgko4nA7RJJm5Jh5ngLRiSRceCZNGQnF5o7xQD5HMBhHRfAnQmhmxoA0K3zQZdLehNIDNP16U6d7Q7PnXk85tdymxpI8OmqV85vomuZz3afJUszi38dEjobQrU0SWnF5KlrphDZbk2QOu6FKqfME74R1/t6SoH5Xkd4pHyxXjhB9l9o9PreBALtFOP2MjxOq3UXqyMCXHQPnnarOANsx3oagNcH9a3En5yskeub9SxmR9toKIpJR+6hvwM4kA32slLHj10sG/Vke82v/i7b+MvB2VtbcBqo3NndzlbV3vnNV7+t6HOXxBLiV1zPmAHHuV8gnirz55sDNXRyR+yXEvZhl556g3o8MnFULnxXQwbT67pabwmR9vMH0jY2fQ/xc4nJegvTcz62TbrjIPGgnzSGVcTtcW7w6zf0czxex2OdNwEU9/0lezZ5nqmFWvbpJl1s36itnM0l+D+kAGX9sOldNOeynJjaF6Xl3aYbSvtWh9mGdbrIz+mvHM5/llXWnHawP53+f+HlcmCDSbp0E1HYeUWjRbQFmqbEIumDa3JXVsLhWtyLawWhgKQfrm6c47FA9GziR0WHHmLMV0WH2W2ZXuyQtfp6Xq1b2KtW3nlbCk+9KtrYS1+2tSvtu1snWXt+srCKdHDV/Jt5OTqxSJ6mHGAGc+1Pn2rDfE4bZyby9rKK0+e6rumM73qlMWHD2zVp2LEP9BG3q4/XaPT1kMVmcVfTOSND23KyQnZnNz6kS34JcBbOegTco29aOMH19NecI1HmtBOHrunTdPe+PKja3Tq8tV9aXxUp33CNRvlxTiIH9n4QVl7esrjqSxlKxrleIEecWJP8Zl8eEC+04EGr5gq1xf5wWf15qYQDcy+gHQAu/C5Ziffu0anjh5l8XECu8p7IGJn3wPR5gd6HEHf73Jg/+qD6x0tdL3z+1wsVjk7xC8/J+tS7PycOmZ+E6w8Uy40d8z0QMIlfXET7PybdTfxP1p5KezKsy6o4+OkKa1Y6454ZvkIF21gC75NSRtMMCmvHYPeYIImbTQmcgtKpx5k2IjY5PQDpbnJ7MRNCsnJqfJscF0dpFuqTSLf4i93bQGip42FOjbSlZwV6tK7YqWf15XlJbGgK//ZYGPCHrbld3xsQxOyY/o5y/lboiNfyWqTiw6feqnr5JOlXt51eXTKkteofWoy00S08a9QP/Pg2jhis19luna6Kc3YyMmNX1kc8cn1eW8HxAWd63ynAw+ZYZYBT3L1H576TRnI0p/sI1sZT2Uysz17y7N9ono8dEUzaZNFR+NLnaQOioU6D5bqyYhuylPmBx42Axo61PM3findk06acuWu0dVGfu3q6cp2iL/r5MZfXXTK5LjOPvKg2Cc/Wpg2QTbJxVy9/s5vIEd52oy+twVdlx5o2Nn0P8XOBxqysTE3bTYWup5tlUuNlzluVroVZF+Cnbz7A5fqvwTZtd43Uu3zvnog46b9MtOKWXcJ3aTZpZUmzDLs2iaPfI7tEM2kC7s6WK+PcHYDGwizSJmIbUq6KcHgCeqkOiua6mcZX5sEybXNsQ2txdQGVnsbCwuFhcOmQ1uBWvXDDKJ8LccT3WpHuuhRXuUF5dk2sdKjA9eTT7Lg0d01e2ws1CmjZY/4iL0NSbT5ohzWmMw2ZTF1KqQ/lcnkpzYLr6R+tRnIntflwTWbGyuzfUdbXbomVnoobvVVfSQ3dui2sSuefAurPrQ2ISC2HqTUtxHpQc11euMPrrVJXfdAoE6/0aNeHZltgOqn6oA96vEWa7ZUzg7gZ5swqH61R0KXzORHTycbxEAcGwPpnHBtbIC4sw1tsSKXLnTZBcnJLkgHZE82Rk8um9poaxfPyYsm/ikvu9SXgvHBTolsMqXoYcZ9wrVYib8yOkkcuwby2NHDyQptK1ZdT0rsdD857TnCA9EmaAweoTb5Wt6lMMswr7snYDeedjiSt9bfDnY2XGrXBFtKO0ybz9E9EHA7/p/D9H3F7cYinmydcuRz/pr1gGetO8Kkm7TX8R3h7oc//OH3Mq5JeEWCTfgWBBP3OhlP5QVg12nojtrJXBcmm1WLJZ1OxtS3qbPgz00d3CSQgGbSKdNhQSuRaaG20NFHV3TxplfdtGH1EXbt5PM71A7Fg89t2lrU5S242ZMN5RPp1gaVyRVn/tI3F2D12TDtUp6yIPnobeL02UT88aAvrfKhtllGw7422Pp/8umnYmNDwQ6y6zcpOTD7k914yahNIkuejfHOfLVf7MSzzaHNtfGjr9VHSyda8vPHtXrI71JQ5htbpx0rnbpsV994mfK15X8PA8po5dO3dLBRKt7JmDTy6qD6ymTL6QnRJC+bxK7xiUaKpj5CN3mlZIb0166ND8ZTcumiB60U/8ybB907wAbxUJcd9Wsb2ORNuVNm5UsQ//2Jnbz7W8f9gQeSTWzJniO79JX+BzSNu4nkHMkIazvZN8HKny3X6b0U2XMnMuOb+Zomiu3/NMwxcRPsYnCnSF6yp/zr7FS/zkfJqG6WV1xCc4S7H/3oR99rAm/RXpFAJ2oWKpPzDkcTakbV3gCfA31FtBYHv2Zv40i301knZdlr4bFQgE2CTRM7yVBvIYLs2KG2XbvOY4fFs40HO+hgl4WTrqln5js/qwN+ZesOkzbQZWOUPewozcVzp/uoHJI95bNRHGrL13xfbcSHTl8BGWjk6Vx5draE2uLnm00Bu4wDttVWmW36qE9QjF82QWN48pEFZBtTNof+Vi4Z6vjU5wX8xxvwh1kGtHjbSGevMZXuTvJC4wqdttmP6dW+bmDDvK4sl+oHMSArX1zzTYy096YFPZrkQHLUiw17yci22bfVxTOhTnu+TtRWuXtO3NSrg2iytaSdL/U1VF+Z/VKb0Tm2yUMrxYdmyjff+FQGbfORvgYyk6dOwrdDNsElNLBe3x/YyXxi6LlTPNBsOuqzwN5sXm2fbbeDeG9iA3Q96+4vTNnJX8vdw9elSTd5K8+2/0m4rr/O4SY+zxidS7DaVH35OUxZO3p1R/Jh5dnJ2OHuD/7gD77XZGuinwoIaPBYpHz/2ndyta+Ydcrr9ZrP9h1M+jYe9LKtBafFgM02FRZbGxXyWizY2QYGXf7hn3rzeWeXvJsFuhaPNrVAhkW4jUeLX1BGgzd9AT20cO50huqTB+oslPlNjja+k5090SZv5kd1xZuvkjJ52uhUJxbSRHZY4MOUvcYAat9h8kr88QmEcVv8jmRKaBrjbLZBbQOMT5o62C9W+OT61Tiq38lp4xhfWK+DerxtSKXiG9KGX8bGAAACPklEQVQb6GGjutl3gN8GFk310w9Yy9qBLGWy+cEG17NdIpvv6nc2gGv82gDtjqa8BHjEtDGVjPpFXbKl4i5OjbmpOzn5UWy7hmQFNHiMD+XkNa7YohwdFI/06VdltOl0/0H3ghztLoVp5w6T9omFS3REM+19UtgWnpS67gTsLEbKq91d7+p39OG69h0m7e3wX4ojudXJuwdX2q7XFOKBXfuTA81V59IRbmL76u8lvDeRD1PH5L1OzkofdnJmmtjV7+pW3P3e7/3e91oYCrZBsgbdBC11ogY7wecU3QTJsdib/G2E1GWXcjeBdouZchsNdlpA0GW7BYYc9RZB9G0YJAMx2elPZ6n6yvjkbKCDvBY8elr8pbnJw1MSe/zJCnhgV5d+wNe1lD/sIVcbOyzQcmALWu0w5UHl9E3Z5NoA4m0B54O6bCFfHNKnHla5kNzVhvUa5rUNrBjTjb+2ma8pm/Q/+TaAbWRn/+tHQEt2cTK2PDCh4aN2crSry48V6deGps0/6Bex084XOcjJbTzJG6+gTgy6dyEd8pl2yO5Zjj4709+Dgmtp+pk93YOzP/AmD9Src60+eY0jqE2OFvChqV/YM2Mhr5z85ITK8hKgm+O1+5i8+n/lnbahWfsvHnbqa+Vobgq6IN7bkXFTXKdj2lJ6UuJJrW+Hxlf9cw6Nh6NY3dSflX7asI4XWMs31XenSOdMl6B7+iY8T2pc0v9H2Pl0Sd2lsRC/O7EvpO9Se2GO+XM2TNmzXN+fx9XV/wPym5EgISGnLwAAAABJRU5ErkJggg==;" vertex="1" parent="1">
          <mxGeometry x="10" y="10" width="562.18" height="210" as="geometry" />
        </mxCell>
      </root>
    </mxGraphModel>
  </diagram>
</mxfile>
